M48
; DRILL file {KiCad (5.1.9)-1} date 07/08/21 21:34:52
; FORMAT={-:-/ absolute / metric / decimal}
; #@! TF.CreationDate,2021-07-08T21:34:52+02:00
; #@! TF.GenerationSoftware,Kicad,Pcbnew,(5.1.9)-1
; #@! TF.FileFunction,Plated,1,2,PTH
FMAT,2
METRIC
T1C0.400
T2C1.016
T3C1.300
%
G90
G05
T1
X125.603Y-108.966
X126.111Y-111.76
X131.445Y-90.297
X131.826Y-97.536
X132.842Y-88.265
X134.239Y-84.963
X136.652Y-95.758
X136.906Y-101.727
X138.24Y-96.964
X139.192Y-91.199
X143.637Y-90.17
X144.907Y-88.265
X147.574Y-87.884
X148.463Y-109.347
T2
X127.49Y-85.789
X127.49Y-88.329
X127.49Y-90.869
X127.49Y-93.409
X127.49Y-95.949
X127.49Y-98.489
X127.49Y-101.029
X127.49Y-103.569
X150.35Y-85.789
X150.35Y-88.329
X150.35Y-90.869
X150.35Y-93.409
X150.35Y-95.949
X150.35Y-98.489
X150.35Y-101.029
X150.35Y-103.569
T3
X129.54Y-112.776
X134.54Y-112.776
X141.732Y-112.776
X146.732Y-112.776
T0
M30
