G04 #@! TF.GenerationSoftware,KiCad,Pcbnew,(5.1.9)-1*
G04 #@! TF.CreationDate,2021-07-08T21:32:50+02:00*
G04 #@! TF.ProjectId,OpenThermMonitorTwomes,4f70656e-5468-4657-926d-4d6f6e69746f,rev?*
G04 #@! TF.SameCoordinates,Original*
G04 #@! TF.FileFunction,Legend,Top*
G04 #@! TF.FilePolarity,Positive*
%FSLAX46Y46*%
G04 Gerber Fmt 4.6, Leading zero omitted, Abs format (unit mm)*
G04 Created by KiCad (PCBNEW (5.1.9)-1) date 2021-07-08 21:32:50*
%MOMM*%
%LPD*%
G01*
G04 APERTURE LIST*
%ADD10C,0.120000*%
%ADD11C,0.150000*%
%ADD12C,0.920000*%
%ADD13C,2.720000*%
%ADD14O,1.920000X1.920000*%
%ADD15C,0.100000*%
G04 APERTURE END LIST*
D10*
X153269904Y-96119380D02*
X152888952Y-96386047D01*
X153269904Y-96576523D02*
X152469904Y-96576523D01*
X152469904Y-96271761D01*
X152508000Y-96195571D01*
X152546095Y-96157476D01*
X152622285Y-96119380D01*
X152736571Y-96119380D01*
X152812761Y-96157476D01*
X152850857Y-96195571D01*
X152888952Y-96271761D01*
X152888952Y-96576523D01*
X153231809Y-95471761D02*
X153269904Y-95547952D01*
X153269904Y-95700333D01*
X153231809Y-95776523D01*
X153155619Y-95814619D01*
X152850857Y-95814619D01*
X152774666Y-95776523D01*
X152736571Y-95700333D01*
X152736571Y-95547952D01*
X152774666Y-95471761D01*
X152850857Y-95433666D01*
X152927047Y-95433666D01*
X153003238Y-95814619D01*
X152736571Y-95167000D02*
X153269904Y-94976523D01*
X152736571Y-94786047D01*
X153269904Y-93452714D02*
X153269904Y-93909857D01*
X153269904Y-93681285D02*
X152469904Y-93681285D01*
X152584190Y-93757476D01*
X152660380Y-93833666D01*
X152698476Y-93909857D01*
X153193714Y-93109857D02*
X153231809Y-93071761D01*
X153269904Y-93109857D01*
X153231809Y-93147952D01*
X153193714Y-93109857D01*
X153269904Y-93109857D01*
X152469904Y-92576523D02*
X152469904Y-92500333D01*
X152508000Y-92424142D01*
X152546095Y-92386047D01*
X152622285Y-92347952D01*
X152774666Y-92309857D01*
X152965142Y-92309857D01*
X153117523Y-92347952D01*
X153193714Y-92386047D01*
X153231809Y-92424142D01*
X153269904Y-92500333D01*
X153269904Y-92576523D01*
X153231809Y-92652714D01*
X153193714Y-92690809D01*
X153117523Y-92728904D01*
X152965142Y-92767000D01*
X152774666Y-92767000D01*
X152622285Y-92728904D01*
X152546095Y-92690809D01*
X152508000Y-92652714D01*
X152469904Y-92576523D01*
X152469904Y-90595571D02*
X152469904Y-90519380D01*
X152508000Y-90443190D01*
X152546095Y-90405095D01*
X152622285Y-90367000D01*
X152774666Y-90328904D01*
X152965142Y-90328904D01*
X153117523Y-90367000D01*
X153193714Y-90405095D01*
X153231809Y-90443190D01*
X153269904Y-90519380D01*
X153269904Y-90595571D01*
X153231809Y-90671761D01*
X153193714Y-90709857D01*
X153117523Y-90747952D01*
X152965142Y-90786047D01*
X152774666Y-90786047D01*
X152622285Y-90747952D01*
X152546095Y-90709857D01*
X152508000Y-90671761D01*
X152469904Y-90595571D01*
X152812761Y-89871761D02*
X152774666Y-89947952D01*
X152736571Y-89986047D01*
X152660380Y-90024142D01*
X152622285Y-90024142D01*
X152546095Y-89986047D01*
X152508000Y-89947952D01*
X152469904Y-89871761D01*
X152469904Y-89719380D01*
X152508000Y-89643190D01*
X152546095Y-89605095D01*
X152622285Y-89567000D01*
X152660380Y-89567000D01*
X152736571Y-89605095D01*
X152774666Y-89643190D01*
X152812761Y-89719380D01*
X152812761Y-89871761D01*
X152850857Y-89947952D01*
X152888952Y-89986047D01*
X152965142Y-90024142D01*
X153117523Y-90024142D01*
X153193714Y-89986047D01*
X153231809Y-89947952D01*
X153269904Y-89871761D01*
X153269904Y-89719380D01*
X153231809Y-89643190D01*
X153193714Y-89605095D01*
X153117523Y-89567000D01*
X152965142Y-89567000D01*
X152888952Y-89605095D01*
X152850857Y-89643190D01*
X152812761Y-89719380D01*
X152469904Y-89071761D02*
X152469904Y-88995571D01*
X152508000Y-88919380D01*
X152546095Y-88881285D01*
X152622285Y-88843190D01*
X152774666Y-88805095D01*
X152965142Y-88805095D01*
X153117523Y-88843190D01*
X153193714Y-88881285D01*
X153231809Y-88919380D01*
X153269904Y-88995571D01*
X153269904Y-89071761D01*
X153231809Y-89147952D01*
X153193714Y-89186047D01*
X153117523Y-89224142D01*
X152965142Y-89262238D01*
X152774666Y-89262238D01*
X152622285Y-89224142D01*
X152546095Y-89186047D01*
X152508000Y-89147952D01*
X152469904Y-89071761D01*
X152469904Y-88538428D02*
X152469904Y-88005095D01*
X153269904Y-88347952D01*
X152546095Y-87738428D02*
X152508000Y-87700333D01*
X152469904Y-87624142D01*
X152469904Y-87433666D01*
X152508000Y-87357476D01*
X152546095Y-87319380D01*
X152622285Y-87281285D01*
X152698476Y-87281285D01*
X152812761Y-87319380D01*
X153269904Y-87776523D01*
X153269904Y-87281285D01*
X153269904Y-86519380D02*
X153269904Y-86976523D01*
X153269904Y-86747952D02*
X152469904Y-86747952D01*
X152584190Y-86824142D01*
X152660380Y-86900333D01*
X152698476Y-86976523D01*
D11*
X124975952Y-117832142D02*
X124928333Y-117879761D01*
X124785476Y-117927380D01*
X124690238Y-117927380D01*
X124547380Y-117879761D01*
X124452142Y-117784523D01*
X124404523Y-117689285D01*
X124356904Y-117498809D01*
X124356904Y-117355952D01*
X124404523Y-117165476D01*
X124452142Y-117070238D01*
X124547380Y-116975000D01*
X124690238Y-116927380D01*
X124785476Y-116927380D01*
X124928333Y-116975000D01*
X124975952Y-117022619D01*
X125261666Y-116927380D02*
X125595000Y-117927380D01*
X125928333Y-116927380D01*
D10*
X142163380Y-89946095D02*
X141972904Y-89146095D01*
X141820523Y-89717523D01*
X141668142Y-89146095D01*
X141477666Y-89946095D01*
X141172904Y-89146095D02*
X141172904Y-89679428D01*
X141172904Y-89946095D02*
X141211000Y-89908000D01*
X141172904Y-89869904D01*
X141134809Y-89908000D01*
X141172904Y-89946095D01*
X141172904Y-89869904D01*
X140791952Y-89679428D02*
X140791952Y-89146095D01*
X140791952Y-89603238D02*
X140753857Y-89641333D01*
X140677666Y-89679428D01*
X140563380Y-89679428D01*
X140487190Y-89641333D01*
X140449095Y-89565142D01*
X140449095Y-89146095D01*
X139725285Y-89146095D02*
X139725285Y-89946095D01*
X139725285Y-89184190D02*
X139801476Y-89146095D01*
X139953857Y-89146095D01*
X140030047Y-89184190D01*
X140068142Y-89222285D01*
X140106238Y-89298476D01*
X140106238Y-89527047D01*
X140068142Y-89603238D01*
X140030047Y-89641333D01*
X139953857Y-89679428D01*
X139801476Y-89679428D01*
X139725285Y-89641333D01*
X139039571Y-89184190D02*
X139115761Y-89146095D01*
X139268142Y-89146095D01*
X139344333Y-89184190D01*
X139382428Y-89260380D01*
X139382428Y-89565142D01*
X139344333Y-89641333D01*
X139268142Y-89679428D01*
X139115761Y-89679428D01*
X139039571Y-89641333D01*
X139001476Y-89565142D01*
X139001476Y-89488952D01*
X139382428Y-89412761D01*
X138696714Y-89184190D02*
X138620523Y-89146095D01*
X138468142Y-89146095D01*
X138391952Y-89184190D01*
X138353857Y-89260380D01*
X138353857Y-89298476D01*
X138391952Y-89374666D01*
X138468142Y-89412761D01*
X138582428Y-89412761D01*
X138658619Y-89450857D01*
X138696714Y-89527047D01*
X138696714Y-89565142D01*
X138658619Y-89641333D01*
X138582428Y-89679428D01*
X138468142Y-89679428D01*
X138391952Y-89641333D01*
X138011000Y-89146095D02*
X138011000Y-89946095D01*
X137668142Y-89146095D02*
X137668142Y-89565142D01*
X137706238Y-89641333D01*
X137782428Y-89679428D01*
X137896714Y-89679428D01*
X137972904Y-89641333D01*
X138011000Y-89603238D01*
X136982428Y-89184190D02*
X137058619Y-89146095D01*
X137211000Y-89146095D01*
X137287190Y-89184190D01*
X137325285Y-89260380D01*
X137325285Y-89565142D01*
X137287190Y-89641333D01*
X137211000Y-89679428D01*
X137058619Y-89679428D01*
X136982428Y-89641333D01*
X136944333Y-89565142D01*
X136944333Y-89488952D01*
X137325285Y-89412761D01*
X136601476Y-89146095D02*
X136601476Y-89679428D01*
X136601476Y-89946095D02*
X136639571Y-89908000D01*
X136601476Y-89869904D01*
X136563380Y-89908000D01*
X136601476Y-89946095D01*
X136601476Y-89869904D01*
X136220523Y-89146095D02*
X136220523Y-89679428D01*
X136220523Y-89603238D02*
X136182428Y-89641333D01*
X136106238Y-89679428D01*
X135991952Y-89679428D01*
X135915761Y-89641333D01*
X135877666Y-89565142D01*
X135877666Y-89146095D01*
X135877666Y-89565142D02*
X135839571Y-89641333D01*
X135763380Y-89679428D01*
X135649095Y-89679428D01*
X135572904Y-89641333D01*
X135534809Y-89565142D01*
X135534809Y-89146095D01*
X141744333Y-88626095D02*
X141591952Y-88626095D01*
X141515761Y-88588000D01*
X141439571Y-88511809D01*
X141401476Y-88359428D01*
X141401476Y-88092761D01*
X141439571Y-87940380D01*
X141515761Y-87864190D01*
X141591952Y-87826095D01*
X141744333Y-87826095D01*
X141820523Y-87864190D01*
X141896714Y-87940380D01*
X141934809Y-88092761D01*
X141934809Y-88359428D01*
X141896714Y-88511809D01*
X141820523Y-88588000D01*
X141744333Y-88626095D01*
X141058619Y-88359428D02*
X141058619Y-87559428D01*
X141058619Y-88321333D02*
X140982428Y-88359428D01*
X140830047Y-88359428D01*
X140753857Y-88321333D01*
X140715761Y-88283238D01*
X140677666Y-88207047D01*
X140677666Y-87978476D01*
X140715761Y-87902285D01*
X140753857Y-87864190D01*
X140830047Y-87826095D01*
X140982428Y-87826095D01*
X141058619Y-87864190D01*
X140030047Y-87864190D02*
X140106238Y-87826095D01*
X140258619Y-87826095D01*
X140334809Y-87864190D01*
X140372904Y-87940380D01*
X140372904Y-88245142D01*
X140334809Y-88321333D01*
X140258619Y-88359428D01*
X140106238Y-88359428D01*
X140030047Y-88321333D01*
X139991952Y-88245142D01*
X139991952Y-88168952D01*
X140372904Y-88092761D01*
X139649095Y-88359428D02*
X139649095Y-87826095D01*
X139649095Y-88283238D02*
X139611000Y-88321333D01*
X139534809Y-88359428D01*
X139420523Y-88359428D01*
X139344333Y-88321333D01*
X139306238Y-88245142D01*
X139306238Y-87826095D01*
X139039571Y-88626095D02*
X138582428Y-88626095D01*
X138811000Y-87826095D02*
X138811000Y-88626095D01*
X138315761Y-87826095D02*
X138315761Y-88626095D01*
X137972904Y-87826095D02*
X137972904Y-88245142D01*
X138011000Y-88321333D01*
X138087190Y-88359428D01*
X138201476Y-88359428D01*
X138277666Y-88321333D01*
X138315761Y-88283238D01*
X137287190Y-87864190D02*
X137363380Y-87826095D01*
X137515761Y-87826095D01*
X137591952Y-87864190D01*
X137630047Y-87940380D01*
X137630047Y-88245142D01*
X137591952Y-88321333D01*
X137515761Y-88359428D01*
X137363380Y-88359428D01*
X137287190Y-88321333D01*
X137249095Y-88245142D01*
X137249095Y-88168952D01*
X137630047Y-88092761D01*
X136906238Y-87826095D02*
X136906238Y-88359428D01*
X136906238Y-88207047D02*
X136868142Y-88283238D01*
X136830047Y-88321333D01*
X136753857Y-88359428D01*
X136677666Y-88359428D01*
X136411000Y-87826095D02*
X136411000Y-88359428D01*
X136411000Y-88283238D02*
X136372904Y-88321333D01*
X136296714Y-88359428D01*
X136182428Y-88359428D01*
X136106238Y-88321333D01*
X136068142Y-88245142D01*
X136068142Y-87826095D01*
X136068142Y-88245142D02*
X136030047Y-88321333D01*
X135953857Y-88359428D01*
X135839571Y-88359428D01*
X135763380Y-88321333D01*
X135725285Y-88245142D01*
X135725285Y-87826095D01*
X140830047Y-86506095D02*
X140830047Y-87306095D01*
X140563380Y-86734666D01*
X140296714Y-87306095D01*
X140296714Y-86506095D01*
X139801476Y-86506095D02*
X139877666Y-86544190D01*
X139915761Y-86582285D01*
X139953857Y-86658476D01*
X139953857Y-86887047D01*
X139915761Y-86963238D01*
X139877666Y-87001333D01*
X139801476Y-87039428D01*
X139687190Y-87039428D01*
X139611000Y-87001333D01*
X139572904Y-86963238D01*
X139534809Y-86887047D01*
X139534809Y-86658476D01*
X139572904Y-86582285D01*
X139611000Y-86544190D01*
X139687190Y-86506095D01*
X139801476Y-86506095D01*
X139191952Y-87039428D02*
X139191952Y-86506095D01*
X139191952Y-86963238D02*
X139153857Y-87001333D01*
X139077666Y-87039428D01*
X138963380Y-87039428D01*
X138887190Y-87001333D01*
X138849095Y-86925142D01*
X138849095Y-86506095D01*
X138468142Y-86506095D02*
X138468142Y-87039428D01*
X138468142Y-87306095D02*
X138506238Y-87268000D01*
X138468142Y-87229904D01*
X138430047Y-87268000D01*
X138468142Y-87306095D01*
X138468142Y-87229904D01*
X138201476Y-87039428D02*
X137896714Y-87039428D01*
X138087190Y-87306095D02*
X138087190Y-86620380D01*
X138049095Y-86544190D01*
X137972904Y-86506095D01*
X137896714Y-86506095D01*
X137515761Y-86506095D02*
X137591952Y-86544190D01*
X137630047Y-86582285D01*
X137668142Y-86658476D01*
X137668142Y-86887047D01*
X137630047Y-86963238D01*
X137591952Y-87001333D01*
X137515761Y-87039428D01*
X137401476Y-87039428D01*
X137325285Y-87001333D01*
X137287190Y-86963238D01*
X137249095Y-86887047D01*
X137249095Y-86658476D01*
X137287190Y-86582285D01*
X137325285Y-86544190D01*
X137401476Y-86506095D01*
X137515761Y-86506095D01*
X136906238Y-86506095D02*
X136906238Y-87039428D01*
X136906238Y-86887047D02*
X136868142Y-86963238D01*
X136830047Y-87001333D01*
X136753857Y-87039428D01*
X136677666Y-87039428D01*
X141020523Y-85986095D02*
X140563380Y-85986095D01*
X140791952Y-85186095D02*
X140791952Y-85986095D01*
X140372904Y-85719428D02*
X140220523Y-85186095D01*
X140068142Y-85567047D01*
X139915761Y-85186095D01*
X139763380Y-85719428D01*
X139344333Y-85186095D02*
X139420523Y-85224190D01*
X139458619Y-85262285D01*
X139496714Y-85338476D01*
X139496714Y-85567047D01*
X139458619Y-85643238D01*
X139420523Y-85681333D01*
X139344333Y-85719428D01*
X139230047Y-85719428D01*
X139153857Y-85681333D01*
X139115761Y-85643238D01*
X139077666Y-85567047D01*
X139077666Y-85338476D01*
X139115761Y-85262285D01*
X139153857Y-85224190D01*
X139230047Y-85186095D01*
X139344333Y-85186095D01*
X138734809Y-85186095D02*
X138734809Y-85719428D01*
X138734809Y-85643238D02*
X138696714Y-85681333D01*
X138620523Y-85719428D01*
X138506238Y-85719428D01*
X138430047Y-85681333D01*
X138391952Y-85605142D01*
X138391952Y-85186095D01*
X138391952Y-85605142D02*
X138353857Y-85681333D01*
X138277666Y-85719428D01*
X138163380Y-85719428D01*
X138087190Y-85681333D01*
X138049095Y-85605142D01*
X138049095Y-85186095D01*
X137363380Y-85224190D02*
X137439571Y-85186095D01*
X137591952Y-85186095D01*
X137668142Y-85224190D01*
X137706238Y-85300380D01*
X137706238Y-85605142D01*
X137668142Y-85681333D01*
X137591952Y-85719428D01*
X137439571Y-85719428D01*
X137363380Y-85681333D01*
X137325285Y-85605142D01*
X137325285Y-85528952D01*
X137706238Y-85452761D01*
X137020523Y-85224190D02*
X136944333Y-85186095D01*
X136791952Y-85186095D01*
X136715761Y-85224190D01*
X136677666Y-85300380D01*
X136677666Y-85338476D01*
X136715761Y-85414666D01*
X136791952Y-85452761D01*
X136906238Y-85452761D01*
X136982428Y-85490857D01*
X137020523Y-85567047D01*
X137020523Y-85605142D01*
X136982428Y-85681333D01*
X136906238Y-85719428D01*
X136791952Y-85719428D01*
X136715761Y-85681333D01*
D11*
X132181571Y-84816904D02*
X131724428Y-84816904D01*
X131953000Y-84816904D02*
X131953000Y-84016904D01*
X131876809Y-84131190D01*
X131800619Y-84207380D01*
X131724428Y-84245476D01*
X146913571Y-84816904D02*
X146456428Y-84816904D01*
X146685000Y-84816904D02*
X146685000Y-84016904D01*
X146608809Y-84131190D01*
X146532619Y-84207380D01*
X146456428Y-84245476D01*
X134213571Y-102215904D02*
X133756428Y-102215904D01*
X133985000Y-102215904D02*
X133985000Y-101415904D01*
X133908809Y-101530190D01*
X133832619Y-101606380D01*
X133756428Y-101644476D01*
X135483571Y-91166904D02*
X135026428Y-91166904D01*
X135255000Y-91166904D02*
X135255000Y-90366904D01*
X135178809Y-90481190D01*
X135102619Y-90557380D01*
X135026428Y-90595476D01*
X149876142Y-116800380D02*
X150447571Y-116800380D01*
X150161857Y-117800380D02*
X150161857Y-116800380D01*
X150780904Y-117800380D02*
X150780904Y-116800380D01*
X151209476Y-117800380D02*
X151209476Y-117276571D01*
X151161857Y-117181333D01*
X151066619Y-117133714D01*
X150923761Y-117133714D01*
X150828523Y-117181333D01*
X150780904Y-117228952D01*
X152066619Y-117752761D02*
X151971380Y-117800380D01*
X151780904Y-117800380D01*
X151685666Y-117752761D01*
X151638047Y-117657523D01*
X151638047Y-117276571D01*
X151685666Y-117181333D01*
X151780904Y-117133714D01*
X151971380Y-117133714D01*
X152066619Y-117181333D01*
X152114238Y-117276571D01*
X152114238Y-117371809D01*
X151638047Y-117467047D01*
X152542809Y-117800380D02*
X152542809Y-117133714D01*
X152542809Y-117324190D02*
X152590428Y-117228952D01*
X152638047Y-117181333D01*
X152733285Y-117133714D01*
X152828523Y-117133714D01*
X153161857Y-117800380D02*
X153161857Y-117133714D01*
X153161857Y-117228952D02*
X153209476Y-117181333D01*
X153304714Y-117133714D01*
X153447571Y-117133714D01*
X153542809Y-117181333D01*
X153590428Y-117276571D01*
X153590428Y-117800380D01*
X153590428Y-117276571D02*
X153638047Y-117181333D01*
X153733285Y-117133714D01*
X153876142Y-117133714D01*
X153971380Y-117181333D01*
X154019000Y-117276571D01*
X154019000Y-117800380D01*
X123975857Y-107212142D02*
X123928238Y-107164523D01*
X123880619Y-107021666D01*
X123880619Y-106926428D01*
X123928238Y-106783571D01*
X124023476Y-106688333D01*
X124118714Y-106640714D01*
X124309190Y-106593095D01*
X124452047Y-106593095D01*
X124642523Y-106640714D01*
X124737761Y-106688333D01*
X124833000Y-106783571D01*
X124880619Y-106926428D01*
X124880619Y-107021666D01*
X124833000Y-107164523D01*
X124785380Y-107212142D01*
X124880619Y-107497857D02*
X123880619Y-107831190D01*
X124880619Y-108164523D01*
X124261571Y-108497857D02*
X124261571Y-109259761D01*
X123880619Y-109735952D02*
X124880619Y-109735952D01*
X123880619Y-110307380D02*
X124452047Y-109878809D01*
X124880619Y-110307380D02*
X124309190Y-109735952D01*
X123928238Y-111116904D02*
X123880619Y-111021666D01*
X123880619Y-110831190D01*
X123928238Y-110735952D01*
X124023476Y-110688333D01*
X124404428Y-110688333D01*
X124499666Y-110735952D01*
X124547285Y-110831190D01*
X124547285Y-111021666D01*
X124499666Y-111116904D01*
X124404428Y-111164523D01*
X124309190Y-111164523D01*
X124213952Y-110688333D01*
X124547285Y-111450238D02*
X124547285Y-111831190D01*
X124880619Y-111593095D02*
X124023476Y-111593095D01*
X123928238Y-111640714D01*
X123880619Y-111735952D01*
X123880619Y-111831190D01*
X123928238Y-112545476D02*
X123880619Y-112450238D01*
X123880619Y-112259761D01*
X123928238Y-112164523D01*
X124023476Y-112116904D01*
X124404428Y-112116904D01*
X124499666Y-112164523D01*
X124547285Y-112259761D01*
X124547285Y-112450238D01*
X124499666Y-112545476D01*
X124404428Y-112593095D01*
X124309190Y-112593095D01*
X124213952Y-112116904D01*
X123880619Y-113164523D02*
X123928238Y-113069285D01*
X124023476Y-113021666D01*
X124880619Y-113021666D01*
D10*
X153442000Y-107978000D02*
X153442000Y-111478000D01*
X150342000Y-111478000D02*
X150342000Y-107978000D01*
X154092000Y-110678000D02*
X153442000Y-110678000D01*
X154092000Y-108778000D02*
X154092000Y-110678000D01*
X153442000Y-108778000D02*
X154092000Y-108778000D01*
X138932000Y-117676000D02*
X139432000Y-117676000D01*
X138932000Y-116936000D02*
X138932000Y-117676000D01*
X145505000Y-113799000D02*
X145458000Y-113845000D01*
X147802000Y-111501000D02*
X147767000Y-111537000D01*
X145698000Y-114015000D02*
X145663000Y-114050000D01*
X148007000Y-111707000D02*
X147960000Y-111753000D01*
X149292000Y-107515000D02*
X149292000Y-117436000D01*
X139172000Y-107515000D02*
X139172000Y-117436000D01*
X139172000Y-117436000D02*
X149292000Y-117436000D01*
X139172000Y-107515000D02*
X149292000Y-107515000D01*
X139172000Y-110475000D02*
X149292000Y-110475000D01*
X139172000Y-115376000D02*
X149292000Y-115376000D01*
X139172000Y-116876000D02*
X149292000Y-116876000D01*
X148412000Y-112776000D02*
G75*
G03*
X148412000Y-112776000I-1680000J0D01*
G01*
X142415318Y-114310756D02*
G75*
G02*
X141732000Y-114456000I-683318J1534756D01*
G01*
X143267426Y-112092958D02*
G75*
G02*
X143267000Y-113460000I-1535426J-683042D01*
G01*
X141048958Y-111240574D02*
G75*
G02*
X142416000Y-111241000I683042J-1535426D01*
G01*
X140196574Y-113459042D02*
G75*
G02*
X140197000Y-112092000I1535426J683042D01*
G01*
X141760805Y-114456253D02*
G75*
G02*
X141048000Y-114311000I-28805J1680253D01*
G01*
X136220000Y-112776000D02*
G75*
G03*
X136220000Y-112776000I-1680000J0D01*
G01*
X126980000Y-116876000D02*
X137100000Y-116876000D01*
X126980000Y-115376000D02*
X137100000Y-115376000D01*
X126980000Y-110475000D02*
X137100000Y-110475000D01*
X126980000Y-107515000D02*
X137100000Y-107515000D01*
X126980000Y-117436000D02*
X137100000Y-117436000D01*
X126980000Y-107515000D02*
X126980000Y-117436000D01*
X137100000Y-107515000D02*
X137100000Y-117436000D01*
X135815000Y-111707000D02*
X135768000Y-111753000D01*
X133506000Y-114015000D02*
X133471000Y-114050000D01*
X135610000Y-111501000D02*
X135575000Y-111537000D01*
X133313000Y-113799000D02*
X133266000Y-113845000D01*
X126740000Y-116936000D02*
X126740000Y-117676000D01*
X126740000Y-117676000D02*
X127240000Y-117676000D01*
X129568805Y-114456253D02*
G75*
G02*
X128856000Y-114311000I-28805J1680253D01*
G01*
X128004574Y-113459042D02*
G75*
G02*
X128005000Y-112092000I1535426J683042D01*
G01*
X128856958Y-111240574D02*
G75*
G02*
X130224000Y-111241000I683042J-1535426D01*
G01*
X131075426Y-112092958D02*
G75*
G02*
X131075000Y-113460000I-1535426J-683042D01*
G01*
X130223318Y-114310756D02*
G75*
G02*
X129540000Y-114456000I-683318J1534756D01*
G01*
X134910000Y-102124000D02*
X138810000Y-102124000D01*
X134910000Y-104124000D02*
X138810000Y-104124000D01*
X134910000Y-102124000D02*
X134910000Y-104124000D01*
X129576000Y-102124000D02*
X133476000Y-102124000D01*
X129576000Y-104124000D02*
X133476000Y-104124000D01*
X129576000Y-102124000D02*
X129576000Y-104124000D01*
X143292000Y-104664000D02*
X147192000Y-104664000D01*
X143292000Y-106664000D02*
X147192000Y-106664000D01*
X143292000Y-104664000D02*
X143292000Y-106664000D01*
X134910000Y-104664000D02*
X138810000Y-104664000D01*
X134910000Y-106664000D02*
X138810000Y-106664000D01*
X134910000Y-104664000D02*
X134910000Y-106664000D01*
X129576000Y-104664000D02*
X133476000Y-104664000D01*
X129576000Y-106664000D02*
X133476000Y-106664000D01*
X129576000Y-104664000D02*
X129576000Y-106664000D01*
X148154000Y-85992000D02*
X148154000Y-84292000D01*
X144454000Y-90792000D02*
X144304000Y-90792000D01*
X144304000Y-90792000D02*
X144304000Y-85992000D01*
X144304000Y-85992000D02*
X144454000Y-85992000D01*
X148154000Y-85992000D02*
X148304000Y-85992000D01*
X148304000Y-85992000D02*
X148304000Y-90792000D01*
X148304000Y-90792000D02*
X148154000Y-90792000D01*
X133572000Y-90792000D02*
X133422000Y-90792000D01*
X133572000Y-85992000D02*
X133572000Y-90792000D01*
X133422000Y-85992000D02*
X133572000Y-85992000D01*
X129572000Y-85992000D02*
X129722000Y-85992000D01*
X129572000Y-90792000D02*
X129572000Y-85992000D01*
X129722000Y-90792000D02*
X129572000Y-90792000D01*
X133422000Y-85992000D02*
X133422000Y-84292000D01*
X139381000Y-90277000D02*
X135931000Y-90277000D01*
X139381000Y-90277000D02*
X141331000Y-90277000D01*
X139381000Y-95397000D02*
X137431000Y-95397000D01*
X139381000Y-95397000D02*
X141331000Y-95397000D01*
X133394000Y-96700000D02*
X133394000Y-96930000D01*
X133394000Y-101420000D02*
X133394000Y-101190000D01*
X133394000Y-101420000D02*
X130674000Y-101420000D01*
X130674000Y-101420000D02*
X130674000Y-100110000D01*
X134534000Y-101190000D02*
X133394000Y-101190000D01*
X130674000Y-96700000D02*
X133394000Y-96700000D01*
X130674000Y-98010000D02*
X130674000Y-96700000D01*
X130826742Y-95772500D02*
X131301258Y-95772500D01*
X130826742Y-94727500D02*
X131301258Y-94727500D01*
X146924500Y-94758742D02*
X146924500Y-95233258D01*
X147969500Y-94758742D02*
X147969500Y-95233258D01*
X142635500Y-85708258D02*
X142635500Y-85233742D01*
X141590500Y-85708258D02*
X141590500Y-85233742D01*
X136158500Y-85708258D02*
X136158500Y-85233742D01*
X135113500Y-85708258D02*
X135113500Y-85233742D01*
X141270258Y-96505500D02*
X140795742Y-96505500D01*
X141270258Y-97550500D02*
X140795742Y-97550500D01*
X144257500Y-94695742D02*
X144257500Y-95170258D01*
X145302500Y-94695742D02*
X145302500Y-95170258D01*
X134097500Y-93805742D02*
X134097500Y-94280258D01*
X135142500Y-93805742D02*
X135142500Y-94280258D01*
X146287258Y-100569500D02*
X145812742Y-100569500D01*
X146287258Y-101614500D02*
X145812742Y-101614500D01*
X145812742Y-99582500D02*
X146287258Y-99582500D01*
X145812742Y-98537500D02*
X146287258Y-98537500D01*
X142256742Y-101614500D02*
X142731258Y-101614500D01*
X142256742Y-100569500D02*
X142731258Y-100569500D01*
X124135000Y-113631000D02*
X124135000Y-116316000D01*
X126055000Y-113631000D02*
X124135000Y-113631000D01*
X126055000Y-116316000D02*
X126055000Y-113631000D01*
X150678000Y-113631000D02*
X150678000Y-116316000D01*
X152598000Y-113631000D02*
X150678000Y-113631000D01*
X152598000Y-116316000D02*
X152598000Y-113631000D01*
X137412000Y-99935420D02*
X137412000Y-100216580D01*
X138432000Y-99935420D02*
X138432000Y-100216580D01*
X135380000Y-99935420D02*
X135380000Y-100216580D01*
X136400000Y-99935420D02*
X136400000Y-100216580D01*
D11*
X152423761Y-106870333D02*
X152471380Y-106727476D01*
X152471380Y-106489380D01*
X152423761Y-106394142D01*
X152376142Y-106346523D01*
X152280904Y-106298904D01*
X152185666Y-106298904D01*
X152090428Y-106346523D01*
X152042809Y-106394142D01*
X151995190Y-106489380D01*
X151947571Y-106679857D01*
X151899952Y-106775095D01*
X151852333Y-106822714D01*
X151757095Y-106870333D01*
X151661857Y-106870333D01*
X151566619Y-106822714D01*
X151519000Y-106775095D01*
X151471380Y-106679857D01*
X151471380Y-106441761D01*
X151519000Y-106298904D01*
X151471380Y-105965571D02*
X152471380Y-105727476D01*
X151757095Y-105537000D01*
X152471380Y-105346523D01*
X151471380Y-105108428D01*
X152471380Y-104203666D02*
X152471380Y-104775095D01*
X152471380Y-104489380D02*
X151471380Y-104489380D01*
X151614238Y-104584619D01*
X151709476Y-104679857D01*
X151757095Y-104775095D01*
X143898666Y-105968380D02*
X143898666Y-106682666D01*
X143851047Y-106825523D01*
X143755809Y-106920761D01*
X143612952Y-106968380D01*
X143517714Y-106968380D01*
X144327238Y-106063619D02*
X144374857Y-106016000D01*
X144470095Y-105968380D01*
X144708190Y-105968380D01*
X144803428Y-106016000D01*
X144851047Y-106063619D01*
X144898666Y-106158857D01*
X144898666Y-106254095D01*
X144851047Y-106396952D01*
X144279619Y-106968380D01*
X144898666Y-106968380D01*
X131706666Y-105968380D02*
X131706666Y-106682666D01*
X131659047Y-106825523D01*
X131563809Y-106920761D01*
X131420952Y-106968380D01*
X131325714Y-106968380D01*
X132706666Y-106968380D02*
X132135238Y-106968380D01*
X132420952Y-106968380D02*
X132420952Y-105968380D01*
X132325714Y-106111238D01*
X132230476Y-106206476D01*
X132135238Y-106254095D01*
X139723904Y-103576380D02*
X139723904Y-102576380D01*
X139962000Y-102576380D01*
X140104857Y-102624000D01*
X140200095Y-102719238D01*
X140247714Y-102814476D01*
X140295333Y-103004952D01*
X140295333Y-103147809D01*
X140247714Y-103338285D01*
X140200095Y-103433523D01*
X140104857Y-103528761D01*
X139962000Y-103576380D01*
X139723904Y-103576380D01*
X141200095Y-102576380D02*
X140723904Y-102576380D01*
X140676285Y-103052571D01*
X140723904Y-103004952D01*
X140819142Y-102957333D01*
X141057238Y-102957333D01*
X141152476Y-103004952D01*
X141200095Y-103052571D01*
X141247714Y-103147809D01*
X141247714Y-103385904D01*
X141200095Y-103481142D01*
X141152476Y-103528761D01*
X141057238Y-103576380D01*
X140819142Y-103576380D01*
X140723904Y-103528761D01*
X140676285Y-103481142D01*
X128801904Y-101798380D02*
X128801904Y-100798380D01*
X129040000Y-100798380D01*
X129182857Y-100846000D01*
X129278095Y-100941238D01*
X129325714Y-101036476D01*
X129373333Y-101226952D01*
X129373333Y-101369809D01*
X129325714Y-101560285D01*
X129278095Y-101655523D01*
X129182857Y-101750761D01*
X129040000Y-101798380D01*
X128801904Y-101798380D01*
X130230476Y-101131714D02*
X130230476Y-101798380D01*
X129992380Y-100750761D02*
X129754285Y-101465047D01*
X130373333Y-101465047D01*
X144803904Y-104338380D02*
X144803904Y-103338380D01*
X145042000Y-103338380D01*
X145184857Y-103386000D01*
X145280095Y-103481238D01*
X145327714Y-103576476D01*
X145375333Y-103766952D01*
X145375333Y-103909809D01*
X145327714Y-104100285D01*
X145280095Y-104195523D01*
X145184857Y-104290761D01*
X145042000Y-104338380D01*
X144803904Y-104338380D01*
X145708666Y-103338380D02*
X146327714Y-103338380D01*
X145994380Y-103719333D01*
X146137238Y-103719333D01*
X146232476Y-103766952D01*
X146280095Y-103814571D01*
X146327714Y-103909809D01*
X146327714Y-104147904D01*
X146280095Y-104243142D01*
X146232476Y-104290761D01*
X146137238Y-104338380D01*
X145851523Y-104338380D01*
X145756285Y-104290761D01*
X145708666Y-104243142D01*
X139723904Y-106116380D02*
X139723904Y-105116380D01*
X139962000Y-105116380D01*
X140104857Y-105164000D01*
X140200095Y-105259238D01*
X140247714Y-105354476D01*
X140295333Y-105544952D01*
X140295333Y-105687809D01*
X140247714Y-105878285D01*
X140200095Y-105973523D01*
X140104857Y-106068761D01*
X139962000Y-106116380D01*
X139723904Y-106116380D01*
X140676285Y-105211619D02*
X140723904Y-105164000D01*
X140819142Y-105116380D01*
X141057238Y-105116380D01*
X141152476Y-105164000D01*
X141200095Y-105211619D01*
X141247714Y-105306857D01*
X141247714Y-105402095D01*
X141200095Y-105544952D01*
X140628666Y-106116380D01*
X141247714Y-106116380D01*
X127785904Y-106116380D02*
X127785904Y-105116380D01*
X128024000Y-105116380D01*
X128166857Y-105164000D01*
X128262095Y-105259238D01*
X128309714Y-105354476D01*
X128357333Y-105544952D01*
X128357333Y-105687809D01*
X128309714Y-105878285D01*
X128262095Y-105973523D01*
X128166857Y-106068761D01*
X128024000Y-106116380D01*
X127785904Y-106116380D01*
X129309714Y-106116380D02*
X128738285Y-106116380D01*
X129024000Y-106116380D02*
X129024000Y-105116380D01*
X128928761Y-105259238D01*
X128833523Y-105354476D01*
X128738285Y-105402095D01*
X145756380Y-92582904D02*
X146565904Y-92582904D01*
X146661142Y-92535285D01*
X146708761Y-92487666D01*
X146756380Y-92392428D01*
X146756380Y-92201952D01*
X146708761Y-92106714D01*
X146661142Y-92059095D01*
X146565904Y-92011476D01*
X145756380Y-92011476D01*
X146089714Y-91106714D02*
X146756380Y-91106714D01*
X145708761Y-91344809D02*
X146423047Y-91582904D01*
X146423047Y-90963857D01*
X131024380Y-92582904D02*
X131833904Y-92582904D01*
X131929142Y-92535285D01*
X131976761Y-92487666D01*
X132024380Y-92392428D01*
X132024380Y-92201952D01*
X131976761Y-92106714D01*
X131929142Y-92059095D01*
X131833904Y-92011476D01*
X131024380Y-92011476D01*
X131024380Y-91630523D02*
X131024380Y-91011476D01*
X131405333Y-91344809D01*
X131405333Y-91201952D01*
X131452952Y-91106714D01*
X131500571Y-91059095D01*
X131595809Y-91011476D01*
X131833904Y-91011476D01*
X131929142Y-91059095D01*
X131976761Y-91106714D01*
X132024380Y-91201952D01*
X132024380Y-91487666D01*
X131976761Y-91582904D01*
X131929142Y-91630523D01*
X133858095Y-91400380D02*
X133858095Y-92209904D01*
X133905714Y-92305142D01*
X133953333Y-92352761D01*
X134048571Y-92400380D01*
X134239047Y-92400380D01*
X134334285Y-92352761D01*
X134381904Y-92305142D01*
X134429523Y-92209904D01*
X134429523Y-91400380D01*
X134858095Y-91495619D02*
X134905714Y-91448000D01*
X135000952Y-91400380D01*
X135239047Y-91400380D01*
X135334285Y-91448000D01*
X135381904Y-91495619D01*
X135429523Y-91590857D01*
X135429523Y-91686095D01*
X135381904Y-91828952D01*
X134810476Y-92400380D01*
X135429523Y-92400380D01*
X128778095Y-96734380D02*
X128778095Y-97543904D01*
X128825714Y-97639142D01*
X128873333Y-97686761D01*
X128968571Y-97734380D01*
X129159047Y-97734380D01*
X129254285Y-97686761D01*
X129301904Y-97639142D01*
X129349523Y-97543904D01*
X129349523Y-96734380D01*
X130349523Y-97734380D02*
X129778095Y-97734380D01*
X130063809Y-97734380D02*
X130063809Y-96734380D01*
X129968571Y-96877238D01*
X129873333Y-96972476D01*
X129778095Y-97020095D01*
X130421142Y-94272380D02*
X130087809Y-93796190D01*
X129849714Y-94272380D02*
X129849714Y-93272380D01*
X130230666Y-93272380D01*
X130325904Y-93320000D01*
X130373523Y-93367619D01*
X130421142Y-93462857D01*
X130421142Y-93605714D01*
X130373523Y-93700952D01*
X130325904Y-93748571D01*
X130230666Y-93796190D01*
X129849714Y-93796190D01*
X131373523Y-94272380D02*
X130802095Y-94272380D01*
X131087809Y-94272380D02*
X131087809Y-93272380D01*
X130992571Y-93415238D01*
X130897333Y-93510476D01*
X130802095Y-93558095D01*
X131992571Y-93272380D02*
X132087809Y-93272380D01*
X132183047Y-93320000D01*
X132230666Y-93367619D01*
X132278285Y-93462857D01*
X132325904Y-93653333D01*
X132325904Y-93891428D01*
X132278285Y-94081904D01*
X132230666Y-94177142D01*
X132183047Y-94224761D01*
X132087809Y-94272380D01*
X131992571Y-94272380D01*
X131897333Y-94224761D01*
X131849714Y-94177142D01*
X131802095Y-94081904D01*
X131754476Y-93891428D01*
X131754476Y-93653333D01*
X131802095Y-93462857D01*
X131849714Y-93367619D01*
X131897333Y-93320000D01*
X131992571Y-93272380D01*
X147899380Y-97575666D02*
X147423190Y-97909000D01*
X147899380Y-98147095D02*
X146899380Y-98147095D01*
X146899380Y-97766142D01*
X146947000Y-97670904D01*
X146994619Y-97623285D01*
X147089857Y-97575666D01*
X147232714Y-97575666D01*
X147327952Y-97623285D01*
X147375571Y-97670904D01*
X147423190Y-97766142D01*
X147423190Y-98147095D01*
X147899380Y-97099476D02*
X147899380Y-96909000D01*
X147851761Y-96813761D01*
X147804142Y-96766142D01*
X147661285Y-96670904D01*
X147470809Y-96623285D01*
X147089857Y-96623285D01*
X146994619Y-96670904D01*
X146947000Y-96718523D01*
X146899380Y-96813761D01*
X146899380Y-97004238D01*
X146947000Y-97099476D01*
X146994619Y-97147095D01*
X147089857Y-97194714D01*
X147327952Y-97194714D01*
X147423190Y-97147095D01*
X147470809Y-97099476D01*
X147518428Y-97004238D01*
X147518428Y-96813761D01*
X147470809Y-96718523D01*
X147423190Y-96670904D01*
X147327952Y-96623285D01*
X144089380Y-85637666D02*
X143613190Y-85971000D01*
X144089380Y-86209095D02*
X143089380Y-86209095D01*
X143089380Y-85828142D01*
X143137000Y-85732904D01*
X143184619Y-85685285D01*
X143279857Y-85637666D01*
X143422714Y-85637666D01*
X143517952Y-85685285D01*
X143565571Y-85732904D01*
X143613190Y-85828142D01*
X143613190Y-86209095D01*
X143517952Y-85066238D02*
X143470333Y-85161476D01*
X143422714Y-85209095D01*
X143327476Y-85256714D01*
X143279857Y-85256714D01*
X143184619Y-85209095D01*
X143137000Y-85161476D01*
X143089380Y-85066238D01*
X143089380Y-84875761D01*
X143137000Y-84780523D01*
X143184619Y-84732904D01*
X143279857Y-84685285D01*
X143327476Y-84685285D01*
X143422714Y-84732904D01*
X143470333Y-84780523D01*
X143517952Y-84875761D01*
X143517952Y-85066238D01*
X143565571Y-85161476D01*
X143613190Y-85209095D01*
X143708428Y-85256714D01*
X143898904Y-85256714D01*
X143994142Y-85209095D01*
X144041761Y-85161476D01*
X144089380Y-85066238D01*
X144089380Y-84875761D01*
X144041761Y-84780523D01*
X143994142Y-84732904D01*
X143898904Y-84685285D01*
X143708428Y-84685285D01*
X143613190Y-84732904D01*
X143565571Y-84780523D01*
X143517952Y-84875761D01*
X134818380Y-86272666D02*
X134342190Y-86606000D01*
X134818380Y-86844095D02*
X133818380Y-86844095D01*
X133818380Y-86463142D01*
X133866000Y-86367904D01*
X133913619Y-86320285D01*
X134008857Y-86272666D01*
X134151714Y-86272666D01*
X134246952Y-86320285D01*
X134294571Y-86367904D01*
X134342190Y-86463142D01*
X134342190Y-86844095D01*
X133818380Y-85939333D02*
X133818380Y-85272666D01*
X134818380Y-85701238D01*
X140803333Y-99004380D02*
X140470000Y-98528190D01*
X140231904Y-99004380D02*
X140231904Y-98004380D01*
X140612857Y-98004380D01*
X140708095Y-98052000D01*
X140755714Y-98099619D01*
X140803333Y-98194857D01*
X140803333Y-98337714D01*
X140755714Y-98432952D01*
X140708095Y-98480571D01*
X140612857Y-98528190D01*
X140231904Y-98528190D01*
X141660476Y-98004380D02*
X141470000Y-98004380D01*
X141374761Y-98052000D01*
X141327142Y-98099619D01*
X141231904Y-98242476D01*
X141184285Y-98432952D01*
X141184285Y-98813904D01*
X141231904Y-98909142D01*
X141279523Y-98956761D01*
X141374761Y-99004380D01*
X141565238Y-99004380D01*
X141660476Y-98956761D01*
X141708095Y-98909142D01*
X141755714Y-98813904D01*
X141755714Y-98575809D01*
X141708095Y-98480571D01*
X141660476Y-98432952D01*
X141565238Y-98385333D01*
X141374761Y-98385333D01*
X141279523Y-98432952D01*
X141231904Y-98480571D01*
X141184285Y-98575809D01*
X145232380Y-97575666D02*
X144756190Y-97909000D01*
X145232380Y-98147095D02*
X144232380Y-98147095D01*
X144232380Y-97766142D01*
X144280000Y-97670904D01*
X144327619Y-97623285D01*
X144422857Y-97575666D01*
X144565714Y-97575666D01*
X144660952Y-97623285D01*
X144708571Y-97670904D01*
X144756190Y-97766142D01*
X144756190Y-98147095D01*
X144232380Y-96670904D02*
X144232380Y-97147095D01*
X144708571Y-97194714D01*
X144660952Y-97147095D01*
X144613333Y-97051857D01*
X144613333Y-96813761D01*
X144660952Y-96718523D01*
X144708571Y-96670904D01*
X144803809Y-96623285D01*
X145041904Y-96623285D01*
X145137142Y-96670904D01*
X145184761Y-96718523D01*
X145232380Y-96813761D01*
X145232380Y-97051857D01*
X145184761Y-97147095D01*
X145137142Y-97194714D01*
X133802380Y-94146666D02*
X133326190Y-94480000D01*
X133802380Y-94718095D02*
X132802380Y-94718095D01*
X132802380Y-94337142D01*
X132850000Y-94241904D01*
X132897619Y-94194285D01*
X132992857Y-94146666D01*
X133135714Y-94146666D01*
X133230952Y-94194285D01*
X133278571Y-94241904D01*
X133326190Y-94337142D01*
X133326190Y-94718095D01*
X133135714Y-93289523D02*
X133802380Y-93289523D01*
X132754761Y-93527619D02*
X133469047Y-93765714D01*
X133469047Y-93146666D01*
X145883333Y-102974380D02*
X145550000Y-102498190D01*
X145311904Y-102974380D02*
X145311904Y-101974380D01*
X145692857Y-101974380D01*
X145788095Y-102022000D01*
X145835714Y-102069619D01*
X145883333Y-102164857D01*
X145883333Y-102307714D01*
X145835714Y-102402952D01*
X145788095Y-102450571D01*
X145692857Y-102498190D01*
X145311904Y-102498190D01*
X146216666Y-101974380D02*
X146835714Y-101974380D01*
X146502380Y-102355333D01*
X146645238Y-102355333D01*
X146740476Y-102402952D01*
X146788095Y-102450571D01*
X146835714Y-102545809D01*
X146835714Y-102783904D01*
X146788095Y-102879142D01*
X146740476Y-102926761D01*
X146645238Y-102974380D01*
X146359523Y-102974380D01*
X146264285Y-102926761D01*
X146216666Y-102879142D01*
X143343333Y-99512380D02*
X143010000Y-99036190D01*
X142771904Y-99512380D02*
X142771904Y-98512380D01*
X143152857Y-98512380D01*
X143248095Y-98560000D01*
X143295714Y-98607619D01*
X143343333Y-98702857D01*
X143343333Y-98845714D01*
X143295714Y-98940952D01*
X143248095Y-98988571D01*
X143152857Y-99036190D01*
X142771904Y-99036190D01*
X143724285Y-98607619D02*
X143771904Y-98560000D01*
X143867142Y-98512380D01*
X144105238Y-98512380D01*
X144200476Y-98560000D01*
X144248095Y-98607619D01*
X144295714Y-98702857D01*
X144295714Y-98798095D01*
X144248095Y-98940952D01*
X143676666Y-99512380D01*
X144295714Y-99512380D01*
X142518333Y-103068380D02*
X142185000Y-102592190D01*
X141946904Y-103068380D02*
X141946904Y-102068380D01*
X142327857Y-102068380D01*
X142423095Y-102116000D01*
X142470714Y-102163619D01*
X142518333Y-102258857D01*
X142518333Y-102401714D01*
X142470714Y-102496952D01*
X142423095Y-102544571D01*
X142327857Y-102592190D01*
X141946904Y-102592190D01*
X143470714Y-103068380D02*
X142899285Y-103068380D01*
X143185000Y-103068380D02*
X143185000Y-102068380D01*
X143089761Y-102211238D01*
X142994523Y-102306476D01*
X142899285Y-102354095D01*
X127198380Y-116562095D02*
X126198380Y-116562095D01*
X126198380Y-116324000D01*
X126246000Y-116181142D01*
X126341238Y-116085904D01*
X126436476Y-116038285D01*
X126626952Y-115990666D01*
X126769809Y-115990666D01*
X126960285Y-116038285D01*
X127055523Y-116085904D01*
X127150761Y-116181142D01*
X127198380Y-116324000D01*
X127198380Y-116562095D01*
X126198380Y-115657333D02*
X126198380Y-114990666D01*
X127198380Y-115419238D01*
X150312380Y-116308095D02*
X149312380Y-116308095D01*
X149312380Y-116070000D01*
X149360000Y-115927142D01*
X149455238Y-115831904D01*
X149550476Y-115784285D01*
X149740952Y-115736666D01*
X149883809Y-115736666D01*
X150074285Y-115784285D01*
X150169523Y-115831904D01*
X150264761Y-115927142D01*
X150312380Y-116070000D01*
X150312380Y-116308095D01*
X149312380Y-114879523D02*
X149312380Y-115070000D01*
X149360000Y-115165238D01*
X149407619Y-115212857D01*
X149550476Y-115308095D01*
X149740952Y-115355714D01*
X150121904Y-115355714D01*
X150217142Y-115308095D01*
X150264761Y-115260476D01*
X150312380Y-115165238D01*
X150312380Y-114974761D01*
X150264761Y-114879523D01*
X150217142Y-114831904D01*
X150121904Y-114784285D01*
X149883809Y-114784285D01*
X149788571Y-114831904D01*
X149740952Y-114879523D01*
X149693333Y-114974761D01*
X149693333Y-115165238D01*
X149740952Y-115260476D01*
X149788571Y-115308095D01*
X149883809Y-115355714D01*
X139549142Y-100242666D02*
X139596761Y-100290285D01*
X139644380Y-100433142D01*
X139644380Y-100528380D01*
X139596761Y-100671238D01*
X139501523Y-100766476D01*
X139406285Y-100814095D01*
X139215809Y-100861714D01*
X139072952Y-100861714D01*
X138882476Y-100814095D01*
X138787238Y-100766476D01*
X138692000Y-100671238D01*
X138644380Y-100528380D01*
X138644380Y-100433142D01*
X138692000Y-100290285D01*
X138739619Y-100242666D01*
X138739619Y-99861714D02*
X138692000Y-99814095D01*
X138644380Y-99718857D01*
X138644380Y-99480761D01*
X138692000Y-99385523D01*
X138739619Y-99337904D01*
X138834857Y-99290285D01*
X138930095Y-99290285D01*
X139072952Y-99337904D01*
X139644380Y-99909333D01*
X139644380Y-99290285D01*
X136247142Y-97689666D02*
X136294761Y-97737285D01*
X136342380Y-97880142D01*
X136342380Y-97975380D01*
X136294761Y-98118238D01*
X136199523Y-98213476D01*
X136104285Y-98261095D01*
X135913809Y-98308714D01*
X135770952Y-98308714D01*
X135580476Y-98261095D01*
X135485238Y-98213476D01*
X135390000Y-98118238D01*
X135342380Y-97975380D01*
X135342380Y-97880142D01*
X135390000Y-97737285D01*
X135437619Y-97689666D01*
X136342380Y-96737285D02*
X136342380Y-97308714D01*
X136342380Y-97023000D02*
X135342380Y-97023000D01*
X135485238Y-97118238D01*
X135580476Y-97213476D01*
X135628095Y-97308714D01*
%LPC*%
G36*
G01*
X151697000Y-108688000D02*
X150647000Y-108688000D01*
G75*
G02*
X150587000Y-108628000I0J60000D01*
G01*
X150587000Y-107228000D01*
G75*
G02*
X150647000Y-107168000I60000J0D01*
G01*
X151697000Y-107168000D01*
G75*
G02*
X151757000Y-107228000I0J-60000D01*
G01*
X151757000Y-108628000D01*
G75*
G02*
X151697000Y-108688000I-60000J0D01*
G01*
G37*
G36*
G01*
X151697000Y-112288000D02*
X150647000Y-112288000D01*
G75*
G02*
X150587000Y-112228000I0J60000D01*
G01*
X150587000Y-110828000D01*
G75*
G02*
X150647000Y-110768000I60000J0D01*
G01*
X151697000Y-110768000D01*
G75*
G02*
X151757000Y-110828000I0J-60000D01*
G01*
X151757000Y-112228000D01*
G75*
G02*
X151697000Y-112288000I-60000J0D01*
G01*
G37*
G36*
G01*
X153137000Y-108688000D02*
X152087000Y-108688000D01*
G75*
G02*
X152027000Y-108628000I0J60000D01*
G01*
X152027000Y-107228000D01*
G75*
G02*
X152087000Y-107168000I60000J0D01*
G01*
X153137000Y-107168000D01*
G75*
G02*
X153197000Y-107228000I0J-60000D01*
G01*
X153197000Y-108628000D01*
G75*
G02*
X153137000Y-108688000I-60000J0D01*
G01*
G37*
G36*
G01*
X153137000Y-112288000D02*
X152087000Y-112288000D01*
G75*
G02*
X152027000Y-112228000I0J60000D01*
G01*
X152027000Y-110828000D01*
G75*
G02*
X152087000Y-110768000I60000J0D01*
G01*
X153137000Y-110768000D01*
G75*
G02*
X153197000Y-110828000I0J-60000D01*
G01*
X153197000Y-112228000D01*
G75*
G02*
X153137000Y-112288000I-60000J0D01*
G01*
G37*
D12*
X150992000Y-109728000D03*
X152792000Y-109728000D03*
G36*
G01*
X140372000Y-114076000D02*
X140372000Y-111476000D01*
G75*
G02*
X140432000Y-111416000I60000J0D01*
G01*
X143032000Y-111416000D01*
G75*
G02*
X143092000Y-111476000I0J-60000D01*
G01*
X143092000Y-114076000D01*
G75*
G02*
X143032000Y-114136000I-60000J0D01*
G01*
X140432000Y-114136000D01*
G75*
G02*
X140372000Y-114076000I0J60000D01*
G01*
G37*
D13*
X146732000Y-112776000D03*
X134540000Y-112776000D03*
G36*
G01*
X128180000Y-114076000D02*
X128180000Y-111476000D01*
G75*
G02*
X128240000Y-111416000I60000J0D01*
G01*
X130840000Y-111416000D01*
G75*
G02*
X130900000Y-111476000I0J-60000D01*
G01*
X130900000Y-114076000D01*
G75*
G02*
X130840000Y-114136000I-60000J0D01*
G01*
X128240000Y-114136000D01*
G75*
G02*
X128180000Y-114076000I0J60000D01*
G01*
G37*
G36*
G01*
X138300000Y-103724000D02*
X138300000Y-102524000D01*
G75*
G02*
X138360000Y-102464000I60000J0D01*
G01*
X139260000Y-102464000D01*
G75*
G02*
X139320000Y-102524000I0J-60000D01*
G01*
X139320000Y-103724000D01*
G75*
G02*
X139260000Y-103784000I-60000J0D01*
G01*
X138360000Y-103784000D01*
G75*
G02*
X138300000Y-103724000I0J60000D01*
G01*
G37*
G36*
G01*
X135000000Y-103724000D02*
X135000000Y-102524000D01*
G75*
G02*
X135060000Y-102464000I60000J0D01*
G01*
X135960000Y-102464000D01*
G75*
G02*
X136020000Y-102524000I0J-60000D01*
G01*
X136020000Y-103724000D01*
G75*
G02*
X135960000Y-103784000I-60000J0D01*
G01*
X135060000Y-103784000D01*
G75*
G02*
X135000000Y-103724000I0J60000D01*
G01*
G37*
G36*
G01*
X132966000Y-103724000D02*
X132966000Y-102524000D01*
G75*
G02*
X133026000Y-102464000I60000J0D01*
G01*
X133926000Y-102464000D01*
G75*
G02*
X133986000Y-102524000I0J-60000D01*
G01*
X133986000Y-103724000D01*
G75*
G02*
X133926000Y-103784000I-60000J0D01*
G01*
X133026000Y-103784000D01*
G75*
G02*
X132966000Y-103724000I0J60000D01*
G01*
G37*
G36*
G01*
X129666000Y-103724000D02*
X129666000Y-102524000D01*
G75*
G02*
X129726000Y-102464000I60000J0D01*
G01*
X130626000Y-102464000D01*
G75*
G02*
X130686000Y-102524000I0J-60000D01*
G01*
X130686000Y-103724000D01*
G75*
G02*
X130626000Y-103784000I-60000J0D01*
G01*
X129726000Y-103784000D01*
G75*
G02*
X129666000Y-103724000I0J60000D01*
G01*
G37*
G36*
G01*
X146682000Y-106264000D02*
X146682000Y-105064000D01*
G75*
G02*
X146742000Y-105004000I60000J0D01*
G01*
X147642000Y-105004000D01*
G75*
G02*
X147702000Y-105064000I0J-60000D01*
G01*
X147702000Y-106264000D01*
G75*
G02*
X147642000Y-106324000I-60000J0D01*
G01*
X146742000Y-106324000D01*
G75*
G02*
X146682000Y-106264000I0J60000D01*
G01*
G37*
G36*
G01*
X143382000Y-106264000D02*
X143382000Y-105064000D01*
G75*
G02*
X143442000Y-105004000I60000J0D01*
G01*
X144342000Y-105004000D01*
G75*
G02*
X144402000Y-105064000I0J-60000D01*
G01*
X144402000Y-106264000D01*
G75*
G02*
X144342000Y-106324000I-60000J0D01*
G01*
X143442000Y-106324000D01*
G75*
G02*
X143382000Y-106264000I0J60000D01*
G01*
G37*
G36*
G01*
X138300000Y-106264000D02*
X138300000Y-105064000D01*
G75*
G02*
X138360000Y-105004000I60000J0D01*
G01*
X139260000Y-105004000D01*
G75*
G02*
X139320000Y-105064000I0J-60000D01*
G01*
X139320000Y-106264000D01*
G75*
G02*
X139260000Y-106324000I-60000J0D01*
G01*
X138360000Y-106324000D01*
G75*
G02*
X138300000Y-106264000I0J60000D01*
G01*
G37*
G36*
G01*
X135000000Y-106264000D02*
X135000000Y-105064000D01*
G75*
G02*
X135060000Y-105004000I60000J0D01*
G01*
X135960000Y-105004000D01*
G75*
G02*
X136020000Y-105064000I0J-60000D01*
G01*
X136020000Y-106264000D01*
G75*
G02*
X135960000Y-106324000I-60000J0D01*
G01*
X135060000Y-106324000D01*
G75*
G02*
X135000000Y-106264000I0J60000D01*
G01*
G37*
G36*
G01*
X132966000Y-106264000D02*
X132966000Y-105064000D01*
G75*
G02*
X133026000Y-105004000I60000J0D01*
G01*
X133926000Y-105004000D01*
G75*
G02*
X133986000Y-105064000I0J-60000D01*
G01*
X133986000Y-106264000D01*
G75*
G02*
X133926000Y-106324000I-60000J0D01*
G01*
X133026000Y-106324000D01*
G75*
G02*
X132966000Y-106264000I0J60000D01*
G01*
G37*
G36*
G01*
X129666000Y-106264000D02*
X129666000Y-105064000D01*
G75*
G02*
X129726000Y-105004000I60000J0D01*
G01*
X130626000Y-105004000D01*
G75*
G02*
X130686000Y-105064000I0J-60000D01*
G01*
X130686000Y-106264000D01*
G75*
G02*
X130626000Y-106324000I-60000J0D01*
G01*
X129726000Y-106324000D01*
G75*
G02*
X129666000Y-106264000I0J60000D01*
G01*
G37*
G36*
G01*
X128450000Y-102669000D02*
X128450000Y-104469000D01*
G75*
G02*
X128390000Y-104529000I-60000J0D01*
G01*
X126590000Y-104529000D01*
G75*
G02*
X126530000Y-104469000I0J60000D01*
G01*
X126530000Y-102669000D01*
G75*
G02*
X126590000Y-102609000I60000J0D01*
G01*
X128390000Y-102609000D01*
G75*
G02*
X128450000Y-102669000I0J-60000D01*
G01*
G37*
D14*
X127490000Y-101029000D03*
X127490000Y-98489000D03*
X127490000Y-95949000D03*
X127490000Y-93409000D03*
X127490000Y-90869000D03*
X127490000Y-88329000D03*
X127490000Y-85789000D03*
G36*
G01*
X147254000Y-84182000D02*
X147894000Y-84182000D01*
G75*
G02*
X147954000Y-84242000I0J-60000D01*
G01*
X147954000Y-86242000D01*
G75*
G02*
X147894000Y-86302000I-60000J0D01*
G01*
X147254000Y-86302000D01*
G75*
G02*
X147194000Y-86242000I0J60000D01*
G01*
X147194000Y-84242000D01*
G75*
G02*
X147254000Y-84182000I60000J0D01*
G01*
G37*
G36*
G01*
X144714000Y-84182000D02*
X145354000Y-84182000D01*
G75*
G02*
X145414000Y-84242000I0J-60000D01*
G01*
X145414000Y-86242000D01*
G75*
G02*
X145354000Y-86302000I-60000J0D01*
G01*
X144714000Y-86302000D01*
G75*
G02*
X144654000Y-86242000I0J60000D01*
G01*
X144654000Y-84242000D01*
G75*
G02*
X144714000Y-84182000I60000J0D01*
G01*
G37*
G36*
G01*
X144714000Y-90482000D02*
X145354000Y-90482000D01*
G75*
G02*
X145414000Y-90542000I0J-60000D01*
G01*
X145414000Y-92542000D01*
G75*
G02*
X145354000Y-92602000I-60000J0D01*
G01*
X144714000Y-92602000D01*
G75*
G02*
X144654000Y-92542000I0J60000D01*
G01*
X144654000Y-90542000D01*
G75*
G02*
X144714000Y-90482000I60000J0D01*
G01*
G37*
G36*
G01*
X147254000Y-90482000D02*
X147894000Y-90482000D01*
G75*
G02*
X147954000Y-90542000I0J-60000D01*
G01*
X147954000Y-92542000D01*
G75*
G02*
X147894000Y-92602000I-60000J0D01*
G01*
X147254000Y-92602000D01*
G75*
G02*
X147194000Y-92542000I0J60000D01*
G01*
X147194000Y-90542000D01*
G75*
G02*
X147254000Y-90482000I60000J0D01*
G01*
G37*
G36*
G01*
X132522000Y-90482000D02*
X133162000Y-90482000D01*
G75*
G02*
X133222000Y-90542000I0J-60000D01*
G01*
X133222000Y-92542000D01*
G75*
G02*
X133162000Y-92602000I-60000J0D01*
G01*
X132522000Y-92602000D01*
G75*
G02*
X132462000Y-92542000I0J60000D01*
G01*
X132462000Y-90542000D01*
G75*
G02*
X132522000Y-90482000I60000J0D01*
G01*
G37*
G36*
G01*
X129982000Y-90482000D02*
X130622000Y-90482000D01*
G75*
G02*
X130682000Y-90542000I0J-60000D01*
G01*
X130682000Y-92542000D01*
G75*
G02*
X130622000Y-92602000I-60000J0D01*
G01*
X129982000Y-92602000D01*
G75*
G02*
X129922000Y-92542000I0J60000D01*
G01*
X129922000Y-90542000D01*
G75*
G02*
X129982000Y-90482000I60000J0D01*
G01*
G37*
G36*
G01*
X129982000Y-84182000D02*
X130622000Y-84182000D01*
G75*
G02*
X130682000Y-84242000I0J-60000D01*
G01*
X130682000Y-86242000D01*
G75*
G02*
X130622000Y-86302000I-60000J0D01*
G01*
X129982000Y-86302000D01*
G75*
G02*
X129922000Y-86242000I0J60000D01*
G01*
X129922000Y-84242000D01*
G75*
G02*
X129982000Y-84182000I60000J0D01*
G01*
G37*
G36*
G01*
X132522000Y-84182000D02*
X133162000Y-84182000D01*
G75*
G02*
X133222000Y-84242000I0J-60000D01*
G01*
X133222000Y-86242000D01*
G75*
G02*
X133162000Y-86302000I-60000J0D01*
G01*
X132522000Y-86302000D01*
G75*
G02*
X132462000Y-86242000I0J60000D01*
G01*
X132462000Y-84242000D01*
G75*
G02*
X132522000Y-84182000I60000J0D01*
G01*
G37*
G36*
G01*
X140821000Y-91112000D02*
X140821000Y-90752000D01*
G75*
G02*
X141001000Y-90572000I180000J0D01*
G01*
X142711000Y-90572000D01*
G75*
G02*
X142891000Y-90752000I0J-180000D01*
G01*
X142891000Y-91112000D01*
G75*
G02*
X142711000Y-91292000I-180000J0D01*
G01*
X141001000Y-91292000D01*
G75*
G02*
X140821000Y-91112000I0J180000D01*
G01*
G37*
G36*
G01*
X140821000Y-92382000D02*
X140821000Y-92022000D01*
G75*
G02*
X141001000Y-91842000I180000J0D01*
G01*
X142711000Y-91842000D01*
G75*
G02*
X142891000Y-92022000I0J-180000D01*
G01*
X142891000Y-92382000D01*
G75*
G02*
X142711000Y-92562000I-180000J0D01*
G01*
X141001000Y-92562000D01*
G75*
G02*
X140821000Y-92382000I0J180000D01*
G01*
G37*
G36*
G01*
X140821000Y-93652000D02*
X140821000Y-93292000D01*
G75*
G02*
X141001000Y-93112000I180000J0D01*
G01*
X142711000Y-93112000D01*
G75*
G02*
X142891000Y-93292000I0J-180000D01*
G01*
X142891000Y-93652000D01*
G75*
G02*
X142711000Y-93832000I-180000J0D01*
G01*
X141001000Y-93832000D01*
G75*
G02*
X140821000Y-93652000I0J180000D01*
G01*
G37*
G36*
G01*
X140821000Y-94922000D02*
X140821000Y-94562000D01*
G75*
G02*
X141001000Y-94382000I180000J0D01*
G01*
X142711000Y-94382000D01*
G75*
G02*
X142891000Y-94562000I0J-180000D01*
G01*
X142891000Y-94922000D01*
G75*
G02*
X142711000Y-95102000I-180000J0D01*
G01*
X141001000Y-95102000D01*
G75*
G02*
X140821000Y-94922000I0J180000D01*
G01*
G37*
G36*
G01*
X135871000Y-94922000D02*
X135871000Y-94562000D01*
G75*
G02*
X136051000Y-94382000I180000J0D01*
G01*
X137761000Y-94382000D01*
G75*
G02*
X137941000Y-94562000I0J-180000D01*
G01*
X137941000Y-94922000D01*
G75*
G02*
X137761000Y-95102000I-180000J0D01*
G01*
X136051000Y-95102000D01*
G75*
G02*
X135871000Y-94922000I0J180000D01*
G01*
G37*
G36*
G01*
X135871000Y-93652000D02*
X135871000Y-93292000D01*
G75*
G02*
X136051000Y-93112000I180000J0D01*
G01*
X137761000Y-93112000D01*
G75*
G02*
X137941000Y-93292000I0J-180000D01*
G01*
X137941000Y-93652000D01*
G75*
G02*
X137761000Y-93832000I-180000J0D01*
G01*
X136051000Y-93832000D01*
G75*
G02*
X135871000Y-93652000I0J180000D01*
G01*
G37*
G36*
G01*
X135871000Y-92382000D02*
X135871000Y-92022000D01*
G75*
G02*
X136051000Y-91842000I180000J0D01*
G01*
X137761000Y-91842000D01*
G75*
G02*
X137941000Y-92022000I0J-180000D01*
G01*
X137941000Y-92382000D01*
G75*
G02*
X137761000Y-92562000I-180000J0D01*
G01*
X136051000Y-92562000D01*
G75*
G02*
X135871000Y-92382000I0J180000D01*
G01*
G37*
G36*
G01*
X135871000Y-91112000D02*
X135871000Y-90752000D01*
G75*
G02*
X136051000Y-90572000I180000J0D01*
G01*
X137761000Y-90572000D01*
G75*
G02*
X137941000Y-90752000I0J-180000D01*
G01*
X137941000Y-91112000D01*
G75*
G02*
X137761000Y-91292000I-180000J0D01*
G01*
X136051000Y-91292000D01*
G75*
G02*
X135871000Y-91112000I0J180000D01*
G01*
G37*
D15*
G36*
X130022295Y-99985347D02*
G01*
X130011039Y-99981933D01*
X130000666Y-99976388D01*
X129991574Y-99968926D01*
X129984112Y-99959834D01*
X129978567Y-99949461D01*
X129975153Y-99938205D01*
X129974000Y-99926500D01*
X129974000Y-98193500D01*
X129975153Y-98181795D01*
X129978567Y-98170539D01*
X129984112Y-98160166D01*
X129991574Y-98151074D01*
X130000666Y-98143612D01*
X130011039Y-98138067D01*
X130022295Y-98134653D01*
X130034000Y-98133500D01*
X133159000Y-98133500D01*
X133170705Y-98134653D01*
X133181961Y-98138067D01*
X133192334Y-98143612D01*
X133201426Y-98151074D01*
X133208888Y-98160166D01*
X133214433Y-98170539D01*
X133217847Y-98181795D01*
X133219000Y-98193500D01*
X133219000Y-98550000D01*
X134634000Y-98550000D01*
X134645705Y-98551153D01*
X134656961Y-98554567D01*
X134667334Y-98560112D01*
X134676426Y-98567574D01*
X134683888Y-98576666D01*
X134689433Y-98587039D01*
X134692847Y-98598295D01*
X134694000Y-98610000D01*
X134694000Y-99510000D01*
X134692847Y-99521705D01*
X134689433Y-99532961D01*
X134683888Y-99543334D01*
X134676426Y-99552426D01*
X134667334Y-99559888D01*
X134656961Y-99565433D01*
X134645705Y-99568847D01*
X134634000Y-99570000D01*
X133219000Y-99570000D01*
X133219000Y-99926500D01*
X133217847Y-99938205D01*
X133214433Y-99949461D01*
X133208888Y-99959834D01*
X133201426Y-99968926D01*
X133192334Y-99976388D01*
X133181961Y-99981933D01*
X133170705Y-99985347D01*
X133159000Y-99986500D01*
X130034000Y-99986500D01*
X130022295Y-99985347D01*
G37*
G36*
G01*
X134694000Y-97110000D02*
X134694000Y-98010000D01*
G75*
G02*
X134634000Y-98070000I-60000J0D01*
G01*
X133334000Y-98070000D01*
G75*
G02*
X133274000Y-98010000I0J60000D01*
G01*
X133274000Y-97110000D01*
G75*
G02*
X133334000Y-97050000I60000J0D01*
G01*
X134634000Y-97050000D01*
G75*
G02*
X134694000Y-97110000I0J-60000D01*
G01*
G37*
G36*
G01*
X134694000Y-100110000D02*
X134694000Y-101010000D01*
G75*
G02*
X134634000Y-101070000I-60000J0D01*
G01*
X133334000Y-101070000D01*
G75*
G02*
X133274000Y-101010000I0J60000D01*
G01*
X133274000Y-100110000D01*
G75*
G02*
X133334000Y-100050000I60000J0D01*
G01*
X134634000Y-100050000D01*
G75*
G02*
X134694000Y-100110000I0J-60000D01*
G01*
G37*
G36*
G01*
X131429000Y-95555000D02*
X131429000Y-94945000D01*
G75*
G02*
X131659000Y-94715000I230000J0D01*
G01*
X132119000Y-94715000D01*
G75*
G02*
X132349000Y-94945000I0J-230000D01*
G01*
X132349000Y-95555000D01*
G75*
G02*
X132119000Y-95785000I-230000J0D01*
G01*
X131659000Y-95785000D01*
G75*
G02*
X131429000Y-95555000I0J230000D01*
G01*
G37*
G36*
G01*
X129779000Y-95555000D02*
X129779000Y-94945000D01*
G75*
G02*
X130009000Y-94715000I230000J0D01*
G01*
X130469000Y-94715000D01*
G75*
G02*
X130699000Y-94945000I0J-230000D01*
G01*
X130699000Y-95555000D01*
G75*
G02*
X130469000Y-95785000I-230000J0D01*
G01*
X130009000Y-95785000D01*
G75*
G02*
X129779000Y-95555000I0J230000D01*
G01*
G37*
G36*
G01*
X147142000Y-95361000D02*
X147752000Y-95361000D01*
G75*
G02*
X147982000Y-95591000I0J-230000D01*
G01*
X147982000Y-96051000D01*
G75*
G02*
X147752000Y-96281000I-230000J0D01*
G01*
X147142000Y-96281000D01*
G75*
G02*
X146912000Y-96051000I0J230000D01*
G01*
X146912000Y-95591000D01*
G75*
G02*
X147142000Y-95361000I230000J0D01*
G01*
G37*
G36*
G01*
X147142000Y-93711000D02*
X147752000Y-93711000D01*
G75*
G02*
X147982000Y-93941000I0J-230000D01*
G01*
X147982000Y-94401000D01*
G75*
G02*
X147752000Y-94631000I-230000J0D01*
G01*
X147142000Y-94631000D01*
G75*
G02*
X146912000Y-94401000I0J230000D01*
G01*
X146912000Y-93941000D01*
G75*
G02*
X147142000Y-93711000I230000J0D01*
G01*
G37*
G36*
G01*
X142418000Y-85106000D02*
X141808000Y-85106000D01*
G75*
G02*
X141578000Y-84876000I0J230000D01*
G01*
X141578000Y-84416000D01*
G75*
G02*
X141808000Y-84186000I230000J0D01*
G01*
X142418000Y-84186000D01*
G75*
G02*
X142648000Y-84416000I0J-230000D01*
G01*
X142648000Y-84876000D01*
G75*
G02*
X142418000Y-85106000I-230000J0D01*
G01*
G37*
G36*
G01*
X142418000Y-86756000D02*
X141808000Y-86756000D01*
G75*
G02*
X141578000Y-86526000I0J230000D01*
G01*
X141578000Y-86066000D01*
G75*
G02*
X141808000Y-85836000I230000J0D01*
G01*
X142418000Y-85836000D01*
G75*
G02*
X142648000Y-86066000I0J-230000D01*
G01*
X142648000Y-86526000D01*
G75*
G02*
X142418000Y-86756000I-230000J0D01*
G01*
G37*
G36*
G01*
X135941000Y-85106000D02*
X135331000Y-85106000D01*
G75*
G02*
X135101000Y-84876000I0J230000D01*
G01*
X135101000Y-84416000D01*
G75*
G02*
X135331000Y-84186000I230000J0D01*
G01*
X135941000Y-84186000D01*
G75*
G02*
X136171000Y-84416000I0J-230000D01*
G01*
X136171000Y-84876000D01*
G75*
G02*
X135941000Y-85106000I-230000J0D01*
G01*
G37*
G36*
G01*
X135941000Y-86756000D02*
X135331000Y-86756000D01*
G75*
G02*
X135101000Y-86526000I0J230000D01*
G01*
X135101000Y-86066000D01*
G75*
G02*
X135331000Y-85836000I230000J0D01*
G01*
X135941000Y-85836000D01*
G75*
G02*
X136171000Y-86066000I0J-230000D01*
G01*
X136171000Y-86526000D01*
G75*
G02*
X135941000Y-86756000I-230000J0D01*
G01*
G37*
G36*
G01*
X140668000Y-96723000D02*
X140668000Y-97333000D01*
G75*
G02*
X140438000Y-97563000I-230000J0D01*
G01*
X139978000Y-97563000D01*
G75*
G02*
X139748000Y-97333000I0J230000D01*
G01*
X139748000Y-96723000D01*
G75*
G02*
X139978000Y-96493000I230000J0D01*
G01*
X140438000Y-96493000D01*
G75*
G02*
X140668000Y-96723000I0J-230000D01*
G01*
G37*
G36*
G01*
X142318000Y-96723000D02*
X142318000Y-97333000D01*
G75*
G02*
X142088000Y-97563000I-230000J0D01*
G01*
X141628000Y-97563000D01*
G75*
G02*
X141398000Y-97333000I0J230000D01*
G01*
X141398000Y-96723000D01*
G75*
G02*
X141628000Y-96493000I230000J0D01*
G01*
X142088000Y-96493000D01*
G75*
G02*
X142318000Y-96723000I0J-230000D01*
G01*
G37*
G36*
G01*
X144475000Y-95298000D02*
X145085000Y-95298000D01*
G75*
G02*
X145315000Y-95528000I0J-230000D01*
G01*
X145315000Y-95988000D01*
G75*
G02*
X145085000Y-96218000I-230000J0D01*
G01*
X144475000Y-96218000D01*
G75*
G02*
X144245000Y-95988000I0J230000D01*
G01*
X144245000Y-95528000D01*
G75*
G02*
X144475000Y-95298000I230000J0D01*
G01*
G37*
G36*
G01*
X144475000Y-93648000D02*
X145085000Y-93648000D01*
G75*
G02*
X145315000Y-93878000I0J-230000D01*
G01*
X145315000Y-94338000D01*
G75*
G02*
X145085000Y-94568000I-230000J0D01*
G01*
X144475000Y-94568000D01*
G75*
G02*
X144245000Y-94338000I0J230000D01*
G01*
X144245000Y-93878000D01*
G75*
G02*
X144475000Y-93648000I230000J0D01*
G01*
G37*
G36*
G01*
X134315000Y-94408000D02*
X134925000Y-94408000D01*
G75*
G02*
X135155000Y-94638000I0J-230000D01*
G01*
X135155000Y-95098000D01*
G75*
G02*
X134925000Y-95328000I-230000J0D01*
G01*
X134315000Y-95328000D01*
G75*
G02*
X134085000Y-95098000I0J230000D01*
G01*
X134085000Y-94638000D01*
G75*
G02*
X134315000Y-94408000I230000J0D01*
G01*
G37*
G36*
G01*
X134315000Y-92758000D02*
X134925000Y-92758000D01*
G75*
G02*
X135155000Y-92988000I0J-230000D01*
G01*
X135155000Y-93448000D01*
G75*
G02*
X134925000Y-93678000I-230000J0D01*
G01*
X134315000Y-93678000D01*
G75*
G02*
X134085000Y-93448000I0J230000D01*
G01*
X134085000Y-92988000D01*
G75*
G02*
X134315000Y-92758000I230000J0D01*
G01*
G37*
G36*
G01*
X145685000Y-100787000D02*
X145685000Y-101397000D01*
G75*
G02*
X145455000Y-101627000I-230000J0D01*
G01*
X144995000Y-101627000D01*
G75*
G02*
X144765000Y-101397000I0J230000D01*
G01*
X144765000Y-100787000D01*
G75*
G02*
X144995000Y-100557000I230000J0D01*
G01*
X145455000Y-100557000D01*
G75*
G02*
X145685000Y-100787000I0J-230000D01*
G01*
G37*
G36*
G01*
X147335000Y-100787000D02*
X147335000Y-101397000D01*
G75*
G02*
X147105000Y-101627000I-230000J0D01*
G01*
X146645000Y-101627000D01*
G75*
G02*
X146415000Y-101397000I0J230000D01*
G01*
X146415000Y-100787000D01*
G75*
G02*
X146645000Y-100557000I230000J0D01*
G01*
X147105000Y-100557000D01*
G75*
G02*
X147335000Y-100787000I0J-230000D01*
G01*
G37*
G36*
G01*
X146415000Y-99365000D02*
X146415000Y-98755000D01*
G75*
G02*
X146645000Y-98525000I230000J0D01*
G01*
X147105000Y-98525000D01*
G75*
G02*
X147335000Y-98755000I0J-230000D01*
G01*
X147335000Y-99365000D01*
G75*
G02*
X147105000Y-99595000I-230000J0D01*
G01*
X146645000Y-99595000D01*
G75*
G02*
X146415000Y-99365000I0J230000D01*
G01*
G37*
G36*
G01*
X144765000Y-99365000D02*
X144765000Y-98755000D01*
G75*
G02*
X144995000Y-98525000I230000J0D01*
G01*
X145455000Y-98525000D01*
G75*
G02*
X145685000Y-98755000I0J-230000D01*
G01*
X145685000Y-99365000D01*
G75*
G02*
X145455000Y-99595000I-230000J0D01*
G01*
X144995000Y-99595000D01*
G75*
G02*
X144765000Y-99365000I0J230000D01*
G01*
G37*
G36*
G01*
X142859000Y-101397000D02*
X142859000Y-100787000D01*
G75*
G02*
X143089000Y-100557000I230000J0D01*
G01*
X143549000Y-100557000D01*
G75*
G02*
X143779000Y-100787000I0J-230000D01*
G01*
X143779000Y-101397000D01*
G75*
G02*
X143549000Y-101627000I-230000J0D01*
G01*
X143089000Y-101627000D01*
G75*
G02*
X142859000Y-101397000I0J230000D01*
G01*
G37*
G36*
G01*
X141209000Y-101397000D02*
X141209000Y-100787000D01*
G75*
G02*
X141439000Y-100557000I230000J0D01*
G01*
X141899000Y-100557000D01*
G75*
G02*
X142129000Y-100787000I0J-230000D01*
G01*
X142129000Y-101397000D01*
G75*
G02*
X141899000Y-101627000I-230000J0D01*
G01*
X141439000Y-101627000D01*
G75*
G02*
X141209000Y-101397000I0J230000D01*
G01*
G37*
G36*
G01*
X124608750Y-115706000D02*
X125581250Y-115706000D01*
G75*
G02*
X125855000Y-115979750I0J-273750D01*
G01*
X125855000Y-116527250D01*
G75*
G02*
X125581250Y-116801000I-273750J0D01*
G01*
X124608750Y-116801000D01*
G75*
G02*
X124335000Y-116527250I0J273750D01*
G01*
X124335000Y-115979750D01*
G75*
G02*
X124608750Y-115706000I273750J0D01*
G01*
G37*
G36*
G01*
X124608750Y-113831000D02*
X125581250Y-113831000D01*
G75*
G02*
X125855000Y-114104750I0J-273750D01*
G01*
X125855000Y-114652250D01*
G75*
G02*
X125581250Y-114926000I-273750J0D01*
G01*
X124608750Y-114926000D01*
G75*
G02*
X124335000Y-114652250I0J273750D01*
G01*
X124335000Y-114104750D01*
G75*
G02*
X124608750Y-113831000I273750J0D01*
G01*
G37*
G36*
G01*
X151151750Y-115706000D02*
X152124250Y-115706000D01*
G75*
G02*
X152398000Y-115979750I0J-273750D01*
G01*
X152398000Y-116527250D01*
G75*
G02*
X152124250Y-116801000I-273750J0D01*
G01*
X151151750Y-116801000D01*
G75*
G02*
X150878000Y-116527250I0J273750D01*
G01*
X150878000Y-115979750D01*
G75*
G02*
X151151750Y-115706000I273750J0D01*
G01*
G37*
G36*
G01*
X151151750Y-113831000D02*
X152124250Y-113831000D01*
G75*
G02*
X152398000Y-114104750I0J-273750D01*
G01*
X152398000Y-114652250D01*
G75*
G02*
X152124250Y-114926000I-273750J0D01*
G01*
X151151750Y-114926000D01*
G75*
G02*
X150878000Y-114652250I0J273750D01*
G01*
X150878000Y-114104750D01*
G75*
G02*
X151151750Y-113831000I273750J0D01*
G01*
G37*
G36*
G01*
X137642000Y-100341000D02*
X138202000Y-100341000D01*
G75*
G02*
X138457000Y-100596000I0J-255000D01*
G01*
X138457000Y-101106000D01*
G75*
G02*
X138202000Y-101361000I-255000J0D01*
G01*
X137642000Y-101361000D01*
G75*
G02*
X137387000Y-101106000I0J255000D01*
G01*
X137387000Y-100596000D01*
G75*
G02*
X137642000Y-100341000I255000J0D01*
G01*
G37*
G36*
G01*
X137642000Y-98791000D02*
X138202000Y-98791000D01*
G75*
G02*
X138457000Y-99046000I0J-255000D01*
G01*
X138457000Y-99556000D01*
G75*
G02*
X138202000Y-99811000I-255000J0D01*
G01*
X137642000Y-99811000D01*
G75*
G02*
X137387000Y-99556000I0J255000D01*
G01*
X137387000Y-99046000D01*
G75*
G02*
X137642000Y-98791000I255000J0D01*
G01*
G37*
G36*
G01*
X135610000Y-100341000D02*
X136170000Y-100341000D01*
G75*
G02*
X136425000Y-100596000I0J-255000D01*
G01*
X136425000Y-101106000D01*
G75*
G02*
X136170000Y-101361000I-255000J0D01*
G01*
X135610000Y-101361000D01*
G75*
G02*
X135355000Y-101106000I0J255000D01*
G01*
X135355000Y-100596000D01*
G75*
G02*
X135610000Y-100341000I255000J0D01*
G01*
G37*
G36*
G01*
X135610000Y-98791000D02*
X136170000Y-98791000D01*
G75*
G02*
X136425000Y-99046000I0J-255000D01*
G01*
X136425000Y-99556000D01*
G75*
G02*
X136170000Y-99811000I-255000J0D01*
G01*
X135610000Y-99811000D01*
G75*
G02*
X135355000Y-99556000I0J255000D01*
G01*
X135355000Y-99046000D01*
G75*
G02*
X135610000Y-98791000I255000J0D01*
G01*
G37*
G36*
G01*
X151310000Y-102669000D02*
X151310000Y-104469000D01*
G75*
G02*
X151250000Y-104529000I-60000J0D01*
G01*
X149450000Y-104529000D01*
G75*
G02*
X149390000Y-104469000I0J60000D01*
G01*
X149390000Y-102669000D01*
G75*
G02*
X149450000Y-102609000I60000J0D01*
G01*
X151250000Y-102609000D01*
G75*
G02*
X151310000Y-102669000I0J-60000D01*
G01*
G37*
D14*
X150350000Y-101029000D03*
X150350000Y-98489000D03*
X150350000Y-95949000D03*
X150350000Y-93409000D03*
X150350000Y-90869000D03*
X150350000Y-88329000D03*
X150350000Y-85789000D03*
M02*
