G04 #@! TF.GenerationSoftware,KiCad,Pcbnew,(5.1.9)-1*
G04 #@! TF.CreationDate,2021-07-08T21:32:50+02:00*
G04 #@! TF.ProjectId,OpenThermMonitorTwomes,4f70656e-5468-4657-926d-4d6f6e69746f,rev?*
G04 #@! TF.SameCoordinates,Original*
G04 #@! TF.FileFunction,Soldermask,Top*
G04 #@! TF.FilePolarity,Negative*
%FSLAX46Y46*%
G04 Gerber Fmt 4.6, Leading zero omitted, Abs format (unit mm)*
G04 Created by KiCad (PCBNEW (5.1.9)-1) date 2021-07-08 21:32:50*
%MOMM*%
%LPD*%
G01*
G04 APERTURE LIST*
%ADD10C,0.920000*%
%ADD11C,2.720000*%
%ADD12O,1.920000X1.920000*%
%ADD13C,0.100000*%
G04 APERTURE END LIST*
G36*
G01*
X151697000Y-108688000D02*
X150647000Y-108688000D01*
G75*
G02*
X150587000Y-108628000I0J60000D01*
G01*
X150587000Y-107228000D01*
G75*
G02*
X150647000Y-107168000I60000J0D01*
G01*
X151697000Y-107168000D01*
G75*
G02*
X151757000Y-107228000I0J-60000D01*
G01*
X151757000Y-108628000D01*
G75*
G02*
X151697000Y-108688000I-60000J0D01*
G01*
G37*
G36*
G01*
X151697000Y-112288000D02*
X150647000Y-112288000D01*
G75*
G02*
X150587000Y-112228000I0J60000D01*
G01*
X150587000Y-110828000D01*
G75*
G02*
X150647000Y-110768000I60000J0D01*
G01*
X151697000Y-110768000D01*
G75*
G02*
X151757000Y-110828000I0J-60000D01*
G01*
X151757000Y-112228000D01*
G75*
G02*
X151697000Y-112288000I-60000J0D01*
G01*
G37*
G36*
G01*
X153137000Y-108688000D02*
X152087000Y-108688000D01*
G75*
G02*
X152027000Y-108628000I0J60000D01*
G01*
X152027000Y-107228000D01*
G75*
G02*
X152087000Y-107168000I60000J0D01*
G01*
X153137000Y-107168000D01*
G75*
G02*
X153197000Y-107228000I0J-60000D01*
G01*
X153197000Y-108628000D01*
G75*
G02*
X153137000Y-108688000I-60000J0D01*
G01*
G37*
G36*
G01*
X153137000Y-112288000D02*
X152087000Y-112288000D01*
G75*
G02*
X152027000Y-112228000I0J60000D01*
G01*
X152027000Y-110828000D01*
G75*
G02*
X152087000Y-110768000I60000J0D01*
G01*
X153137000Y-110768000D01*
G75*
G02*
X153197000Y-110828000I0J-60000D01*
G01*
X153197000Y-112228000D01*
G75*
G02*
X153137000Y-112288000I-60000J0D01*
G01*
G37*
D10*
X150992000Y-109728000D03*
X152792000Y-109728000D03*
G36*
G01*
X140372000Y-114076000D02*
X140372000Y-111476000D01*
G75*
G02*
X140432000Y-111416000I60000J0D01*
G01*
X143032000Y-111416000D01*
G75*
G02*
X143092000Y-111476000I0J-60000D01*
G01*
X143092000Y-114076000D01*
G75*
G02*
X143032000Y-114136000I-60000J0D01*
G01*
X140432000Y-114136000D01*
G75*
G02*
X140372000Y-114076000I0J60000D01*
G01*
G37*
D11*
X146732000Y-112776000D03*
X134540000Y-112776000D03*
G36*
G01*
X128180000Y-114076000D02*
X128180000Y-111476000D01*
G75*
G02*
X128240000Y-111416000I60000J0D01*
G01*
X130840000Y-111416000D01*
G75*
G02*
X130900000Y-111476000I0J-60000D01*
G01*
X130900000Y-114076000D01*
G75*
G02*
X130840000Y-114136000I-60000J0D01*
G01*
X128240000Y-114136000D01*
G75*
G02*
X128180000Y-114076000I0J60000D01*
G01*
G37*
G36*
G01*
X138300000Y-103724000D02*
X138300000Y-102524000D01*
G75*
G02*
X138360000Y-102464000I60000J0D01*
G01*
X139260000Y-102464000D01*
G75*
G02*
X139320000Y-102524000I0J-60000D01*
G01*
X139320000Y-103724000D01*
G75*
G02*
X139260000Y-103784000I-60000J0D01*
G01*
X138360000Y-103784000D01*
G75*
G02*
X138300000Y-103724000I0J60000D01*
G01*
G37*
G36*
G01*
X135000000Y-103724000D02*
X135000000Y-102524000D01*
G75*
G02*
X135060000Y-102464000I60000J0D01*
G01*
X135960000Y-102464000D01*
G75*
G02*
X136020000Y-102524000I0J-60000D01*
G01*
X136020000Y-103724000D01*
G75*
G02*
X135960000Y-103784000I-60000J0D01*
G01*
X135060000Y-103784000D01*
G75*
G02*
X135000000Y-103724000I0J60000D01*
G01*
G37*
G36*
G01*
X132966000Y-103724000D02*
X132966000Y-102524000D01*
G75*
G02*
X133026000Y-102464000I60000J0D01*
G01*
X133926000Y-102464000D01*
G75*
G02*
X133986000Y-102524000I0J-60000D01*
G01*
X133986000Y-103724000D01*
G75*
G02*
X133926000Y-103784000I-60000J0D01*
G01*
X133026000Y-103784000D01*
G75*
G02*
X132966000Y-103724000I0J60000D01*
G01*
G37*
G36*
G01*
X129666000Y-103724000D02*
X129666000Y-102524000D01*
G75*
G02*
X129726000Y-102464000I60000J0D01*
G01*
X130626000Y-102464000D01*
G75*
G02*
X130686000Y-102524000I0J-60000D01*
G01*
X130686000Y-103724000D01*
G75*
G02*
X130626000Y-103784000I-60000J0D01*
G01*
X129726000Y-103784000D01*
G75*
G02*
X129666000Y-103724000I0J60000D01*
G01*
G37*
G36*
G01*
X146682000Y-106264000D02*
X146682000Y-105064000D01*
G75*
G02*
X146742000Y-105004000I60000J0D01*
G01*
X147642000Y-105004000D01*
G75*
G02*
X147702000Y-105064000I0J-60000D01*
G01*
X147702000Y-106264000D01*
G75*
G02*
X147642000Y-106324000I-60000J0D01*
G01*
X146742000Y-106324000D01*
G75*
G02*
X146682000Y-106264000I0J60000D01*
G01*
G37*
G36*
G01*
X143382000Y-106264000D02*
X143382000Y-105064000D01*
G75*
G02*
X143442000Y-105004000I60000J0D01*
G01*
X144342000Y-105004000D01*
G75*
G02*
X144402000Y-105064000I0J-60000D01*
G01*
X144402000Y-106264000D01*
G75*
G02*
X144342000Y-106324000I-60000J0D01*
G01*
X143442000Y-106324000D01*
G75*
G02*
X143382000Y-106264000I0J60000D01*
G01*
G37*
G36*
G01*
X138300000Y-106264000D02*
X138300000Y-105064000D01*
G75*
G02*
X138360000Y-105004000I60000J0D01*
G01*
X139260000Y-105004000D01*
G75*
G02*
X139320000Y-105064000I0J-60000D01*
G01*
X139320000Y-106264000D01*
G75*
G02*
X139260000Y-106324000I-60000J0D01*
G01*
X138360000Y-106324000D01*
G75*
G02*
X138300000Y-106264000I0J60000D01*
G01*
G37*
G36*
G01*
X135000000Y-106264000D02*
X135000000Y-105064000D01*
G75*
G02*
X135060000Y-105004000I60000J0D01*
G01*
X135960000Y-105004000D01*
G75*
G02*
X136020000Y-105064000I0J-60000D01*
G01*
X136020000Y-106264000D01*
G75*
G02*
X135960000Y-106324000I-60000J0D01*
G01*
X135060000Y-106324000D01*
G75*
G02*
X135000000Y-106264000I0J60000D01*
G01*
G37*
G36*
G01*
X132966000Y-106264000D02*
X132966000Y-105064000D01*
G75*
G02*
X133026000Y-105004000I60000J0D01*
G01*
X133926000Y-105004000D01*
G75*
G02*
X133986000Y-105064000I0J-60000D01*
G01*
X133986000Y-106264000D01*
G75*
G02*
X133926000Y-106324000I-60000J0D01*
G01*
X133026000Y-106324000D01*
G75*
G02*
X132966000Y-106264000I0J60000D01*
G01*
G37*
G36*
G01*
X129666000Y-106264000D02*
X129666000Y-105064000D01*
G75*
G02*
X129726000Y-105004000I60000J0D01*
G01*
X130626000Y-105004000D01*
G75*
G02*
X130686000Y-105064000I0J-60000D01*
G01*
X130686000Y-106264000D01*
G75*
G02*
X130626000Y-106324000I-60000J0D01*
G01*
X129726000Y-106324000D01*
G75*
G02*
X129666000Y-106264000I0J60000D01*
G01*
G37*
G36*
G01*
X128450000Y-102669000D02*
X128450000Y-104469000D01*
G75*
G02*
X128390000Y-104529000I-60000J0D01*
G01*
X126590000Y-104529000D01*
G75*
G02*
X126530000Y-104469000I0J60000D01*
G01*
X126530000Y-102669000D01*
G75*
G02*
X126590000Y-102609000I60000J0D01*
G01*
X128390000Y-102609000D01*
G75*
G02*
X128450000Y-102669000I0J-60000D01*
G01*
G37*
D12*
X127490000Y-101029000D03*
X127490000Y-98489000D03*
X127490000Y-95949000D03*
X127490000Y-93409000D03*
X127490000Y-90869000D03*
X127490000Y-88329000D03*
X127490000Y-85789000D03*
G36*
G01*
X147254000Y-84182000D02*
X147894000Y-84182000D01*
G75*
G02*
X147954000Y-84242000I0J-60000D01*
G01*
X147954000Y-86242000D01*
G75*
G02*
X147894000Y-86302000I-60000J0D01*
G01*
X147254000Y-86302000D01*
G75*
G02*
X147194000Y-86242000I0J60000D01*
G01*
X147194000Y-84242000D01*
G75*
G02*
X147254000Y-84182000I60000J0D01*
G01*
G37*
G36*
G01*
X144714000Y-84182000D02*
X145354000Y-84182000D01*
G75*
G02*
X145414000Y-84242000I0J-60000D01*
G01*
X145414000Y-86242000D01*
G75*
G02*
X145354000Y-86302000I-60000J0D01*
G01*
X144714000Y-86302000D01*
G75*
G02*
X144654000Y-86242000I0J60000D01*
G01*
X144654000Y-84242000D01*
G75*
G02*
X144714000Y-84182000I60000J0D01*
G01*
G37*
G36*
G01*
X144714000Y-90482000D02*
X145354000Y-90482000D01*
G75*
G02*
X145414000Y-90542000I0J-60000D01*
G01*
X145414000Y-92542000D01*
G75*
G02*
X145354000Y-92602000I-60000J0D01*
G01*
X144714000Y-92602000D01*
G75*
G02*
X144654000Y-92542000I0J60000D01*
G01*
X144654000Y-90542000D01*
G75*
G02*
X144714000Y-90482000I60000J0D01*
G01*
G37*
G36*
G01*
X147254000Y-90482000D02*
X147894000Y-90482000D01*
G75*
G02*
X147954000Y-90542000I0J-60000D01*
G01*
X147954000Y-92542000D01*
G75*
G02*
X147894000Y-92602000I-60000J0D01*
G01*
X147254000Y-92602000D01*
G75*
G02*
X147194000Y-92542000I0J60000D01*
G01*
X147194000Y-90542000D01*
G75*
G02*
X147254000Y-90482000I60000J0D01*
G01*
G37*
G36*
G01*
X132522000Y-90482000D02*
X133162000Y-90482000D01*
G75*
G02*
X133222000Y-90542000I0J-60000D01*
G01*
X133222000Y-92542000D01*
G75*
G02*
X133162000Y-92602000I-60000J0D01*
G01*
X132522000Y-92602000D01*
G75*
G02*
X132462000Y-92542000I0J60000D01*
G01*
X132462000Y-90542000D01*
G75*
G02*
X132522000Y-90482000I60000J0D01*
G01*
G37*
G36*
G01*
X129982000Y-90482000D02*
X130622000Y-90482000D01*
G75*
G02*
X130682000Y-90542000I0J-60000D01*
G01*
X130682000Y-92542000D01*
G75*
G02*
X130622000Y-92602000I-60000J0D01*
G01*
X129982000Y-92602000D01*
G75*
G02*
X129922000Y-92542000I0J60000D01*
G01*
X129922000Y-90542000D01*
G75*
G02*
X129982000Y-90482000I60000J0D01*
G01*
G37*
G36*
G01*
X129982000Y-84182000D02*
X130622000Y-84182000D01*
G75*
G02*
X130682000Y-84242000I0J-60000D01*
G01*
X130682000Y-86242000D01*
G75*
G02*
X130622000Y-86302000I-60000J0D01*
G01*
X129982000Y-86302000D01*
G75*
G02*
X129922000Y-86242000I0J60000D01*
G01*
X129922000Y-84242000D01*
G75*
G02*
X129982000Y-84182000I60000J0D01*
G01*
G37*
G36*
G01*
X132522000Y-84182000D02*
X133162000Y-84182000D01*
G75*
G02*
X133222000Y-84242000I0J-60000D01*
G01*
X133222000Y-86242000D01*
G75*
G02*
X133162000Y-86302000I-60000J0D01*
G01*
X132522000Y-86302000D01*
G75*
G02*
X132462000Y-86242000I0J60000D01*
G01*
X132462000Y-84242000D01*
G75*
G02*
X132522000Y-84182000I60000J0D01*
G01*
G37*
G36*
G01*
X140821000Y-91112000D02*
X140821000Y-90752000D01*
G75*
G02*
X141001000Y-90572000I180000J0D01*
G01*
X142711000Y-90572000D01*
G75*
G02*
X142891000Y-90752000I0J-180000D01*
G01*
X142891000Y-91112000D01*
G75*
G02*
X142711000Y-91292000I-180000J0D01*
G01*
X141001000Y-91292000D01*
G75*
G02*
X140821000Y-91112000I0J180000D01*
G01*
G37*
G36*
G01*
X140821000Y-92382000D02*
X140821000Y-92022000D01*
G75*
G02*
X141001000Y-91842000I180000J0D01*
G01*
X142711000Y-91842000D01*
G75*
G02*
X142891000Y-92022000I0J-180000D01*
G01*
X142891000Y-92382000D01*
G75*
G02*
X142711000Y-92562000I-180000J0D01*
G01*
X141001000Y-92562000D01*
G75*
G02*
X140821000Y-92382000I0J180000D01*
G01*
G37*
G36*
G01*
X140821000Y-93652000D02*
X140821000Y-93292000D01*
G75*
G02*
X141001000Y-93112000I180000J0D01*
G01*
X142711000Y-93112000D01*
G75*
G02*
X142891000Y-93292000I0J-180000D01*
G01*
X142891000Y-93652000D01*
G75*
G02*
X142711000Y-93832000I-180000J0D01*
G01*
X141001000Y-93832000D01*
G75*
G02*
X140821000Y-93652000I0J180000D01*
G01*
G37*
G36*
G01*
X140821000Y-94922000D02*
X140821000Y-94562000D01*
G75*
G02*
X141001000Y-94382000I180000J0D01*
G01*
X142711000Y-94382000D01*
G75*
G02*
X142891000Y-94562000I0J-180000D01*
G01*
X142891000Y-94922000D01*
G75*
G02*
X142711000Y-95102000I-180000J0D01*
G01*
X141001000Y-95102000D01*
G75*
G02*
X140821000Y-94922000I0J180000D01*
G01*
G37*
G36*
G01*
X135871000Y-94922000D02*
X135871000Y-94562000D01*
G75*
G02*
X136051000Y-94382000I180000J0D01*
G01*
X137761000Y-94382000D01*
G75*
G02*
X137941000Y-94562000I0J-180000D01*
G01*
X137941000Y-94922000D01*
G75*
G02*
X137761000Y-95102000I-180000J0D01*
G01*
X136051000Y-95102000D01*
G75*
G02*
X135871000Y-94922000I0J180000D01*
G01*
G37*
G36*
G01*
X135871000Y-93652000D02*
X135871000Y-93292000D01*
G75*
G02*
X136051000Y-93112000I180000J0D01*
G01*
X137761000Y-93112000D01*
G75*
G02*
X137941000Y-93292000I0J-180000D01*
G01*
X137941000Y-93652000D01*
G75*
G02*
X137761000Y-93832000I-180000J0D01*
G01*
X136051000Y-93832000D01*
G75*
G02*
X135871000Y-93652000I0J180000D01*
G01*
G37*
G36*
G01*
X135871000Y-92382000D02*
X135871000Y-92022000D01*
G75*
G02*
X136051000Y-91842000I180000J0D01*
G01*
X137761000Y-91842000D01*
G75*
G02*
X137941000Y-92022000I0J-180000D01*
G01*
X137941000Y-92382000D01*
G75*
G02*
X137761000Y-92562000I-180000J0D01*
G01*
X136051000Y-92562000D01*
G75*
G02*
X135871000Y-92382000I0J180000D01*
G01*
G37*
G36*
G01*
X135871000Y-91112000D02*
X135871000Y-90752000D01*
G75*
G02*
X136051000Y-90572000I180000J0D01*
G01*
X137761000Y-90572000D01*
G75*
G02*
X137941000Y-90752000I0J-180000D01*
G01*
X137941000Y-91112000D01*
G75*
G02*
X137761000Y-91292000I-180000J0D01*
G01*
X136051000Y-91292000D01*
G75*
G02*
X135871000Y-91112000I0J180000D01*
G01*
G37*
D13*
G36*
X130022295Y-99985347D02*
G01*
X130011039Y-99981933D01*
X130000666Y-99976388D01*
X129991574Y-99968926D01*
X129984112Y-99959834D01*
X129978567Y-99949461D01*
X129975153Y-99938205D01*
X129974000Y-99926500D01*
X129974000Y-98193500D01*
X129975153Y-98181795D01*
X129978567Y-98170539D01*
X129984112Y-98160166D01*
X129991574Y-98151074D01*
X130000666Y-98143612D01*
X130011039Y-98138067D01*
X130022295Y-98134653D01*
X130034000Y-98133500D01*
X133159000Y-98133500D01*
X133170705Y-98134653D01*
X133181961Y-98138067D01*
X133192334Y-98143612D01*
X133201426Y-98151074D01*
X133208888Y-98160166D01*
X133214433Y-98170539D01*
X133217847Y-98181795D01*
X133219000Y-98193500D01*
X133219000Y-98550000D01*
X134634000Y-98550000D01*
X134645705Y-98551153D01*
X134656961Y-98554567D01*
X134667334Y-98560112D01*
X134676426Y-98567574D01*
X134683888Y-98576666D01*
X134689433Y-98587039D01*
X134692847Y-98598295D01*
X134694000Y-98610000D01*
X134694000Y-99510000D01*
X134692847Y-99521705D01*
X134689433Y-99532961D01*
X134683888Y-99543334D01*
X134676426Y-99552426D01*
X134667334Y-99559888D01*
X134656961Y-99565433D01*
X134645705Y-99568847D01*
X134634000Y-99570000D01*
X133219000Y-99570000D01*
X133219000Y-99926500D01*
X133217847Y-99938205D01*
X133214433Y-99949461D01*
X133208888Y-99959834D01*
X133201426Y-99968926D01*
X133192334Y-99976388D01*
X133181961Y-99981933D01*
X133170705Y-99985347D01*
X133159000Y-99986500D01*
X130034000Y-99986500D01*
X130022295Y-99985347D01*
G37*
G36*
G01*
X134694000Y-97110000D02*
X134694000Y-98010000D01*
G75*
G02*
X134634000Y-98070000I-60000J0D01*
G01*
X133334000Y-98070000D01*
G75*
G02*
X133274000Y-98010000I0J60000D01*
G01*
X133274000Y-97110000D01*
G75*
G02*
X133334000Y-97050000I60000J0D01*
G01*
X134634000Y-97050000D01*
G75*
G02*
X134694000Y-97110000I0J-60000D01*
G01*
G37*
G36*
G01*
X134694000Y-100110000D02*
X134694000Y-101010000D01*
G75*
G02*
X134634000Y-101070000I-60000J0D01*
G01*
X133334000Y-101070000D01*
G75*
G02*
X133274000Y-101010000I0J60000D01*
G01*
X133274000Y-100110000D01*
G75*
G02*
X133334000Y-100050000I60000J0D01*
G01*
X134634000Y-100050000D01*
G75*
G02*
X134694000Y-100110000I0J-60000D01*
G01*
G37*
G36*
G01*
X131429000Y-95555000D02*
X131429000Y-94945000D01*
G75*
G02*
X131659000Y-94715000I230000J0D01*
G01*
X132119000Y-94715000D01*
G75*
G02*
X132349000Y-94945000I0J-230000D01*
G01*
X132349000Y-95555000D01*
G75*
G02*
X132119000Y-95785000I-230000J0D01*
G01*
X131659000Y-95785000D01*
G75*
G02*
X131429000Y-95555000I0J230000D01*
G01*
G37*
G36*
G01*
X129779000Y-95555000D02*
X129779000Y-94945000D01*
G75*
G02*
X130009000Y-94715000I230000J0D01*
G01*
X130469000Y-94715000D01*
G75*
G02*
X130699000Y-94945000I0J-230000D01*
G01*
X130699000Y-95555000D01*
G75*
G02*
X130469000Y-95785000I-230000J0D01*
G01*
X130009000Y-95785000D01*
G75*
G02*
X129779000Y-95555000I0J230000D01*
G01*
G37*
G36*
G01*
X147142000Y-95361000D02*
X147752000Y-95361000D01*
G75*
G02*
X147982000Y-95591000I0J-230000D01*
G01*
X147982000Y-96051000D01*
G75*
G02*
X147752000Y-96281000I-230000J0D01*
G01*
X147142000Y-96281000D01*
G75*
G02*
X146912000Y-96051000I0J230000D01*
G01*
X146912000Y-95591000D01*
G75*
G02*
X147142000Y-95361000I230000J0D01*
G01*
G37*
G36*
G01*
X147142000Y-93711000D02*
X147752000Y-93711000D01*
G75*
G02*
X147982000Y-93941000I0J-230000D01*
G01*
X147982000Y-94401000D01*
G75*
G02*
X147752000Y-94631000I-230000J0D01*
G01*
X147142000Y-94631000D01*
G75*
G02*
X146912000Y-94401000I0J230000D01*
G01*
X146912000Y-93941000D01*
G75*
G02*
X147142000Y-93711000I230000J0D01*
G01*
G37*
G36*
G01*
X142418000Y-85106000D02*
X141808000Y-85106000D01*
G75*
G02*
X141578000Y-84876000I0J230000D01*
G01*
X141578000Y-84416000D01*
G75*
G02*
X141808000Y-84186000I230000J0D01*
G01*
X142418000Y-84186000D01*
G75*
G02*
X142648000Y-84416000I0J-230000D01*
G01*
X142648000Y-84876000D01*
G75*
G02*
X142418000Y-85106000I-230000J0D01*
G01*
G37*
G36*
G01*
X142418000Y-86756000D02*
X141808000Y-86756000D01*
G75*
G02*
X141578000Y-86526000I0J230000D01*
G01*
X141578000Y-86066000D01*
G75*
G02*
X141808000Y-85836000I230000J0D01*
G01*
X142418000Y-85836000D01*
G75*
G02*
X142648000Y-86066000I0J-230000D01*
G01*
X142648000Y-86526000D01*
G75*
G02*
X142418000Y-86756000I-230000J0D01*
G01*
G37*
G36*
G01*
X135941000Y-85106000D02*
X135331000Y-85106000D01*
G75*
G02*
X135101000Y-84876000I0J230000D01*
G01*
X135101000Y-84416000D01*
G75*
G02*
X135331000Y-84186000I230000J0D01*
G01*
X135941000Y-84186000D01*
G75*
G02*
X136171000Y-84416000I0J-230000D01*
G01*
X136171000Y-84876000D01*
G75*
G02*
X135941000Y-85106000I-230000J0D01*
G01*
G37*
G36*
G01*
X135941000Y-86756000D02*
X135331000Y-86756000D01*
G75*
G02*
X135101000Y-86526000I0J230000D01*
G01*
X135101000Y-86066000D01*
G75*
G02*
X135331000Y-85836000I230000J0D01*
G01*
X135941000Y-85836000D01*
G75*
G02*
X136171000Y-86066000I0J-230000D01*
G01*
X136171000Y-86526000D01*
G75*
G02*
X135941000Y-86756000I-230000J0D01*
G01*
G37*
G36*
G01*
X140668000Y-96723000D02*
X140668000Y-97333000D01*
G75*
G02*
X140438000Y-97563000I-230000J0D01*
G01*
X139978000Y-97563000D01*
G75*
G02*
X139748000Y-97333000I0J230000D01*
G01*
X139748000Y-96723000D01*
G75*
G02*
X139978000Y-96493000I230000J0D01*
G01*
X140438000Y-96493000D01*
G75*
G02*
X140668000Y-96723000I0J-230000D01*
G01*
G37*
G36*
G01*
X142318000Y-96723000D02*
X142318000Y-97333000D01*
G75*
G02*
X142088000Y-97563000I-230000J0D01*
G01*
X141628000Y-97563000D01*
G75*
G02*
X141398000Y-97333000I0J230000D01*
G01*
X141398000Y-96723000D01*
G75*
G02*
X141628000Y-96493000I230000J0D01*
G01*
X142088000Y-96493000D01*
G75*
G02*
X142318000Y-96723000I0J-230000D01*
G01*
G37*
G36*
G01*
X144475000Y-95298000D02*
X145085000Y-95298000D01*
G75*
G02*
X145315000Y-95528000I0J-230000D01*
G01*
X145315000Y-95988000D01*
G75*
G02*
X145085000Y-96218000I-230000J0D01*
G01*
X144475000Y-96218000D01*
G75*
G02*
X144245000Y-95988000I0J230000D01*
G01*
X144245000Y-95528000D01*
G75*
G02*
X144475000Y-95298000I230000J0D01*
G01*
G37*
G36*
G01*
X144475000Y-93648000D02*
X145085000Y-93648000D01*
G75*
G02*
X145315000Y-93878000I0J-230000D01*
G01*
X145315000Y-94338000D01*
G75*
G02*
X145085000Y-94568000I-230000J0D01*
G01*
X144475000Y-94568000D01*
G75*
G02*
X144245000Y-94338000I0J230000D01*
G01*
X144245000Y-93878000D01*
G75*
G02*
X144475000Y-93648000I230000J0D01*
G01*
G37*
G36*
G01*
X134315000Y-94408000D02*
X134925000Y-94408000D01*
G75*
G02*
X135155000Y-94638000I0J-230000D01*
G01*
X135155000Y-95098000D01*
G75*
G02*
X134925000Y-95328000I-230000J0D01*
G01*
X134315000Y-95328000D01*
G75*
G02*
X134085000Y-95098000I0J230000D01*
G01*
X134085000Y-94638000D01*
G75*
G02*
X134315000Y-94408000I230000J0D01*
G01*
G37*
G36*
G01*
X134315000Y-92758000D02*
X134925000Y-92758000D01*
G75*
G02*
X135155000Y-92988000I0J-230000D01*
G01*
X135155000Y-93448000D01*
G75*
G02*
X134925000Y-93678000I-230000J0D01*
G01*
X134315000Y-93678000D01*
G75*
G02*
X134085000Y-93448000I0J230000D01*
G01*
X134085000Y-92988000D01*
G75*
G02*
X134315000Y-92758000I230000J0D01*
G01*
G37*
G36*
G01*
X145685000Y-100787000D02*
X145685000Y-101397000D01*
G75*
G02*
X145455000Y-101627000I-230000J0D01*
G01*
X144995000Y-101627000D01*
G75*
G02*
X144765000Y-101397000I0J230000D01*
G01*
X144765000Y-100787000D01*
G75*
G02*
X144995000Y-100557000I230000J0D01*
G01*
X145455000Y-100557000D01*
G75*
G02*
X145685000Y-100787000I0J-230000D01*
G01*
G37*
G36*
G01*
X147335000Y-100787000D02*
X147335000Y-101397000D01*
G75*
G02*
X147105000Y-101627000I-230000J0D01*
G01*
X146645000Y-101627000D01*
G75*
G02*
X146415000Y-101397000I0J230000D01*
G01*
X146415000Y-100787000D01*
G75*
G02*
X146645000Y-100557000I230000J0D01*
G01*
X147105000Y-100557000D01*
G75*
G02*
X147335000Y-100787000I0J-230000D01*
G01*
G37*
G36*
G01*
X146415000Y-99365000D02*
X146415000Y-98755000D01*
G75*
G02*
X146645000Y-98525000I230000J0D01*
G01*
X147105000Y-98525000D01*
G75*
G02*
X147335000Y-98755000I0J-230000D01*
G01*
X147335000Y-99365000D01*
G75*
G02*
X147105000Y-99595000I-230000J0D01*
G01*
X146645000Y-99595000D01*
G75*
G02*
X146415000Y-99365000I0J230000D01*
G01*
G37*
G36*
G01*
X144765000Y-99365000D02*
X144765000Y-98755000D01*
G75*
G02*
X144995000Y-98525000I230000J0D01*
G01*
X145455000Y-98525000D01*
G75*
G02*
X145685000Y-98755000I0J-230000D01*
G01*
X145685000Y-99365000D01*
G75*
G02*
X145455000Y-99595000I-230000J0D01*
G01*
X144995000Y-99595000D01*
G75*
G02*
X144765000Y-99365000I0J230000D01*
G01*
G37*
G36*
G01*
X142859000Y-101397000D02*
X142859000Y-100787000D01*
G75*
G02*
X143089000Y-100557000I230000J0D01*
G01*
X143549000Y-100557000D01*
G75*
G02*
X143779000Y-100787000I0J-230000D01*
G01*
X143779000Y-101397000D01*
G75*
G02*
X143549000Y-101627000I-230000J0D01*
G01*
X143089000Y-101627000D01*
G75*
G02*
X142859000Y-101397000I0J230000D01*
G01*
G37*
G36*
G01*
X141209000Y-101397000D02*
X141209000Y-100787000D01*
G75*
G02*
X141439000Y-100557000I230000J0D01*
G01*
X141899000Y-100557000D01*
G75*
G02*
X142129000Y-100787000I0J-230000D01*
G01*
X142129000Y-101397000D01*
G75*
G02*
X141899000Y-101627000I-230000J0D01*
G01*
X141439000Y-101627000D01*
G75*
G02*
X141209000Y-101397000I0J230000D01*
G01*
G37*
G36*
G01*
X124608750Y-115706000D02*
X125581250Y-115706000D01*
G75*
G02*
X125855000Y-115979750I0J-273750D01*
G01*
X125855000Y-116527250D01*
G75*
G02*
X125581250Y-116801000I-273750J0D01*
G01*
X124608750Y-116801000D01*
G75*
G02*
X124335000Y-116527250I0J273750D01*
G01*
X124335000Y-115979750D01*
G75*
G02*
X124608750Y-115706000I273750J0D01*
G01*
G37*
G36*
G01*
X124608750Y-113831000D02*
X125581250Y-113831000D01*
G75*
G02*
X125855000Y-114104750I0J-273750D01*
G01*
X125855000Y-114652250D01*
G75*
G02*
X125581250Y-114926000I-273750J0D01*
G01*
X124608750Y-114926000D01*
G75*
G02*
X124335000Y-114652250I0J273750D01*
G01*
X124335000Y-114104750D01*
G75*
G02*
X124608750Y-113831000I273750J0D01*
G01*
G37*
G36*
G01*
X151151750Y-115706000D02*
X152124250Y-115706000D01*
G75*
G02*
X152398000Y-115979750I0J-273750D01*
G01*
X152398000Y-116527250D01*
G75*
G02*
X152124250Y-116801000I-273750J0D01*
G01*
X151151750Y-116801000D01*
G75*
G02*
X150878000Y-116527250I0J273750D01*
G01*
X150878000Y-115979750D01*
G75*
G02*
X151151750Y-115706000I273750J0D01*
G01*
G37*
G36*
G01*
X151151750Y-113831000D02*
X152124250Y-113831000D01*
G75*
G02*
X152398000Y-114104750I0J-273750D01*
G01*
X152398000Y-114652250D01*
G75*
G02*
X152124250Y-114926000I-273750J0D01*
G01*
X151151750Y-114926000D01*
G75*
G02*
X150878000Y-114652250I0J273750D01*
G01*
X150878000Y-114104750D01*
G75*
G02*
X151151750Y-113831000I273750J0D01*
G01*
G37*
G36*
G01*
X137642000Y-100341000D02*
X138202000Y-100341000D01*
G75*
G02*
X138457000Y-100596000I0J-255000D01*
G01*
X138457000Y-101106000D01*
G75*
G02*
X138202000Y-101361000I-255000J0D01*
G01*
X137642000Y-101361000D01*
G75*
G02*
X137387000Y-101106000I0J255000D01*
G01*
X137387000Y-100596000D01*
G75*
G02*
X137642000Y-100341000I255000J0D01*
G01*
G37*
G36*
G01*
X137642000Y-98791000D02*
X138202000Y-98791000D01*
G75*
G02*
X138457000Y-99046000I0J-255000D01*
G01*
X138457000Y-99556000D01*
G75*
G02*
X138202000Y-99811000I-255000J0D01*
G01*
X137642000Y-99811000D01*
G75*
G02*
X137387000Y-99556000I0J255000D01*
G01*
X137387000Y-99046000D01*
G75*
G02*
X137642000Y-98791000I255000J0D01*
G01*
G37*
G36*
G01*
X135610000Y-100341000D02*
X136170000Y-100341000D01*
G75*
G02*
X136425000Y-100596000I0J-255000D01*
G01*
X136425000Y-101106000D01*
G75*
G02*
X136170000Y-101361000I-255000J0D01*
G01*
X135610000Y-101361000D01*
G75*
G02*
X135355000Y-101106000I0J255000D01*
G01*
X135355000Y-100596000D01*
G75*
G02*
X135610000Y-100341000I255000J0D01*
G01*
G37*
G36*
G01*
X135610000Y-98791000D02*
X136170000Y-98791000D01*
G75*
G02*
X136425000Y-99046000I0J-255000D01*
G01*
X136425000Y-99556000D01*
G75*
G02*
X136170000Y-99811000I-255000J0D01*
G01*
X135610000Y-99811000D01*
G75*
G02*
X135355000Y-99556000I0J255000D01*
G01*
X135355000Y-99046000D01*
G75*
G02*
X135610000Y-98791000I255000J0D01*
G01*
G37*
G36*
G01*
X151310000Y-102669000D02*
X151310000Y-104469000D01*
G75*
G02*
X151250000Y-104529000I-60000J0D01*
G01*
X149450000Y-104529000D01*
G75*
G02*
X149390000Y-104469000I0J60000D01*
G01*
X149390000Y-102669000D01*
G75*
G02*
X149450000Y-102609000I60000J0D01*
G01*
X151250000Y-102609000D01*
G75*
G02*
X151310000Y-102669000I0J-60000D01*
G01*
G37*
D12*
X150350000Y-101029000D03*
X150350000Y-98489000D03*
X150350000Y-95949000D03*
X150350000Y-93409000D03*
X150350000Y-90869000D03*
X150350000Y-88329000D03*
X150350000Y-85789000D03*
M02*
