G04 #@! TF.GenerationSoftware,KiCad,Pcbnew,(5.1.9)-1*
G04 #@! TF.CreationDate,2021-07-08T21:32:50+02:00*
G04 #@! TF.ProjectId,OpenThermMonitorTwomes,4f70656e-5468-4657-926d-4d6f6e69746f,rev?*
G04 #@! TF.SameCoordinates,Original*
G04 #@! TF.FileFunction,Soldermask,Bot*
G04 #@! TF.FilePolarity,Negative*
%FSLAX46Y46*%
G04 Gerber Fmt 4.6, Leading zero omitted, Abs format (unit mm)*
G04 Created by KiCad (PCBNEW (5.1.9)-1) date 2021-07-08 21:32:50*
%MOMM*%
%LPD*%
G01*
G04 APERTURE LIST*
%ADD10C,0.920000*%
%ADD11C,2.720000*%
%ADD12O,1.920000X1.920000*%
G04 APERTURE END LIST*
D10*
X150992000Y-109728000D03*
X152792000Y-109728000D03*
G36*
G01*
X140372000Y-114076000D02*
X140372000Y-111476000D01*
G75*
G02*
X140432000Y-111416000I60000J0D01*
G01*
X143032000Y-111416000D01*
G75*
G02*
X143092000Y-111476000I0J-60000D01*
G01*
X143092000Y-114076000D01*
G75*
G02*
X143032000Y-114136000I-60000J0D01*
G01*
X140432000Y-114136000D01*
G75*
G02*
X140372000Y-114076000I0J60000D01*
G01*
G37*
D11*
X146732000Y-112776000D03*
X134540000Y-112776000D03*
G36*
G01*
X128180000Y-114076000D02*
X128180000Y-111476000D01*
G75*
G02*
X128240000Y-111416000I60000J0D01*
G01*
X130840000Y-111416000D01*
G75*
G02*
X130900000Y-111476000I0J-60000D01*
G01*
X130900000Y-114076000D01*
G75*
G02*
X130840000Y-114136000I-60000J0D01*
G01*
X128240000Y-114136000D01*
G75*
G02*
X128180000Y-114076000I0J60000D01*
G01*
G37*
G36*
G01*
X128450000Y-102669000D02*
X128450000Y-104469000D01*
G75*
G02*
X128390000Y-104529000I-60000J0D01*
G01*
X126590000Y-104529000D01*
G75*
G02*
X126530000Y-104469000I0J60000D01*
G01*
X126530000Y-102669000D01*
G75*
G02*
X126590000Y-102609000I60000J0D01*
G01*
X128390000Y-102609000D01*
G75*
G02*
X128450000Y-102669000I0J-60000D01*
G01*
G37*
D12*
X127490000Y-101029000D03*
X127490000Y-98489000D03*
X127490000Y-95949000D03*
X127490000Y-93409000D03*
X127490000Y-90869000D03*
X127490000Y-88329000D03*
X127490000Y-85789000D03*
G36*
G01*
X151310000Y-102669000D02*
X151310000Y-104469000D01*
G75*
G02*
X151250000Y-104529000I-60000J0D01*
G01*
X149450000Y-104529000D01*
G75*
G02*
X149390000Y-104469000I0J60000D01*
G01*
X149390000Y-102669000D01*
G75*
G02*
X149450000Y-102609000I60000J0D01*
G01*
X151250000Y-102609000D01*
G75*
G02*
X151310000Y-102669000I0J-60000D01*
G01*
G37*
X150350000Y-101029000D03*
X150350000Y-98489000D03*
X150350000Y-95949000D03*
X150350000Y-93409000D03*
X150350000Y-90869000D03*
X150350000Y-88329000D03*
X150350000Y-85789000D03*
M02*
