%TF.GenerationSoftware,KiCad,Pcbnew,(5.1.9)-1*%
%TF.CreationDate,2021-04-28T15:15:37+02:00*%
%TF.ProjectId,OpenThermMonitorTwomes,4f70656e-5468-4657-926d-4d6f6e69746f,rev?*%
%TF.SameCoordinates,Original*%
%TF.FileFunction,Legend,Top*%
%TF.FilePolarity,Positive*%
%FSLAX46Y46*%
G04 Gerber Fmt 4.6, Leading zero omitted, Abs format (unit mm)*
G04 Created by KiCad (PCBNEW (5.1.9)-1) date 2021-04-28 15:15:37*
%MOMM*%
%LPD*%
G01*
G04 APERTURE LIST*
%ADD10C,0.120000*%
%ADD11C,0.150000*%
G04 APERTURE END LIST*
D10*
X153224666Y-95550333D02*
X152891333Y-95783666D01*
X153224666Y-95950333D02*
X152524666Y-95950333D01*
X152524666Y-95683666D01*
X152558000Y-95617000D01*
X152591333Y-95583666D01*
X152658000Y-95550333D01*
X152758000Y-95550333D01*
X152824666Y-95583666D01*
X152858000Y-95617000D01*
X152891333Y-95683666D01*
X152891333Y-95950333D01*
X153191333Y-94983666D02*
X153224666Y-95050333D01*
X153224666Y-95183666D01*
X153191333Y-95250333D01*
X153124666Y-95283666D01*
X152858000Y-95283666D01*
X152791333Y-95250333D01*
X152758000Y-95183666D01*
X152758000Y-95050333D01*
X152791333Y-94983666D01*
X152858000Y-94950333D01*
X152924666Y-94950333D01*
X152991333Y-95283666D01*
X152758000Y-94717000D02*
X153224666Y-94550333D01*
X152758000Y-94383666D01*
X152524666Y-93450333D02*
X152524666Y-93383666D01*
X152558000Y-93317000D01*
X152591333Y-93283666D01*
X152658000Y-93250333D01*
X152791333Y-93217000D01*
X152958000Y-93217000D01*
X153091333Y-93250333D01*
X153158000Y-93283666D01*
X153191333Y-93317000D01*
X153224666Y-93383666D01*
X153224666Y-93450333D01*
X153191333Y-93517000D01*
X153158000Y-93550333D01*
X153091333Y-93583666D01*
X152958000Y-93617000D01*
X152791333Y-93617000D01*
X152658000Y-93583666D01*
X152591333Y-93550333D01*
X152558000Y-93517000D01*
X152524666Y-93450333D01*
X153158000Y-92917000D02*
X153191333Y-92883666D01*
X153224666Y-92917000D01*
X153191333Y-92950333D01*
X153158000Y-92917000D01*
X153224666Y-92917000D01*
X152591333Y-92617000D02*
X152558000Y-92583666D01*
X152524666Y-92517000D01*
X152524666Y-92350333D01*
X152558000Y-92283666D01*
X152591333Y-92250333D01*
X152658000Y-92217000D01*
X152724666Y-92217000D01*
X152824666Y-92250333D01*
X153224666Y-92650333D01*
X153224666Y-92217000D01*
X152591333Y-90883666D02*
X152558000Y-90850333D01*
X152524666Y-90783666D01*
X152524666Y-90617000D01*
X152558000Y-90550333D01*
X152591333Y-90517000D01*
X152658000Y-90483666D01*
X152724666Y-90483666D01*
X152824666Y-90517000D01*
X153224666Y-90917000D01*
X153224666Y-90483666D01*
X152824666Y-90083666D02*
X152791333Y-90150333D01*
X152758000Y-90183666D01*
X152691333Y-90217000D01*
X152658000Y-90217000D01*
X152591333Y-90183666D01*
X152558000Y-90150333D01*
X152524666Y-90083666D01*
X152524666Y-89950333D01*
X152558000Y-89883666D01*
X152591333Y-89850333D01*
X152658000Y-89817000D01*
X152691333Y-89817000D01*
X152758000Y-89850333D01*
X152791333Y-89883666D01*
X152824666Y-89950333D01*
X152824666Y-90083666D01*
X152858000Y-90150333D01*
X152891333Y-90183666D01*
X152958000Y-90217000D01*
X153091333Y-90217000D01*
X153158000Y-90183666D01*
X153191333Y-90150333D01*
X153224666Y-90083666D01*
X153224666Y-89950333D01*
X153191333Y-89883666D01*
X153158000Y-89850333D01*
X153091333Y-89817000D01*
X152958000Y-89817000D01*
X152891333Y-89850333D01*
X152858000Y-89883666D01*
X152824666Y-89950333D01*
X152524666Y-89383666D02*
X152524666Y-89317000D01*
X152558000Y-89250333D01*
X152591333Y-89217000D01*
X152658000Y-89183666D01*
X152791333Y-89150333D01*
X152958000Y-89150333D01*
X153091333Y-89183666D01*
X153158000Y-89217000D01*
X153191333Y-89250333D01*
X153224666Y-89317000D01*
X153224666Y-89383666D01*
X153191333Y-89450333D01*
X153158000Y-89483666D01*
X153091333Y-89517000D01*
X152958000Y-89550333D01*
X152791333Y-89550333D01*
X152658000Y-89517000D01*
X152591333Y-89483666D01*
X152558000Y-89450333D01*
X152524666Y-89383666D01*
X152758000Y-88550333D02*
X153224666Y-88550333D01*
X152491333Y-88717000D02*
X152991333Y-88883666D01*
X152991333Y-88450333D01*
X152591333Y-88217000D02*
X152558000Y-88183666D01*
X152524666Y-88117000D01*
X152524666Y-87950333D01*
X152558000Y-87883666D01*
X152591333Y-87850333D01*
X152658000Y-87817000D01*
X152724666Y-87817000D01*
X152824666Y-87850333D01*
X153224666Y-88250333D01*
X153224666Y-87817000D01*
X153224666Y-87150333D02*
X153224666Y-87550333D01*
X153224666Y-87350333D02*
X152524666Y-87350333D01*
X152624666Y-87417000D01*
X152691333Y-87483666D01*
X152724666Y-87550333D01*
D11*
X124975952Y-117832142D02*
X124928333Y-117879761D01*
X124785476Y-117927380D01*
X124690238Y-117927380D01*
X124547380Y-117879761D01*
X124452142Y-117784523D01*
X124404523Y-117689285D01*
X124356904Y-117498809D01*
X124356904Y-117355952D01*
X124404523Y-117165476D01*
X124452142Y-117070238D01*
X124547380Y-116975000D01*
X124690238Y-116927380D01*
X124785476Y-116927380D01*
X124928333Y-116975000D01*
X124975952Y-117022619D01*
X125261666Y-116927380D02*
X125595000Y-117927380D01*
X125928333Y-116927380D01*
D10*
X141744333Y-89718333D02*
X141577666Y-89018333D01*
X141444333Y-89518333D01*
X141311000Y-89018333D01*
X141144333Y-89718333D01*
X140877666Y-89018333D02*
X140877666Y-89485000D01*
X140877666Y-89718333D02*
X140911000Y-89685000D01*
X140877666Y-89651666D01*
X140844333Y-89685000D01*
X140877666Y-89718333D01*
X140877666Y-89651666D01*
X140544333Y-89485000D02*
X140544333Y-89018333D01*
X140544333Y-89418333D02*
X140511000Y-89451666D01*
X140444333Y-89485000D01*
X140344333Y-89485000D01*
X140277666Y-89451666D01*
X140244333Y-89385000D01*
X140244333Y-89018333D01*
X139611000Y-89018333D02*
X139611000Y-89718333D01*
X139611000Y-89051666D02*
X139677666Y-89018333D01*
X139811000Y-89018333D01*
X139877666Y-89051666D01*
X139911000Y-89085000D01*
X139944333Y-89151666D01*
X139944333Y-89351666D01*
X139911000Y-89418333D01*
X139877666Y-89451666D01*
X139811000Y-89485000D01*
X139677666Y-89485000D01*
X139611000Y-89451666D01*
X139011000Y-89051666D02*
X139077666Y-89018333D01*
X139211000Y-89018333D01*
X139277666Y-89051666D01*
X139311000Y-89118333D01*
X139311000Y-89385000D01*
X139277666Y-89451666D01*
X139211000Y-89485000D01*
X139077666Y-89485000D01*
X139011000Y-89451666D01*
X138977666Y-89385000D01*
X138977666Y-89318333D01*
X139311000Y-89251666D01*
X138711000Y-89051666D02*
X138644333Y-89018333D01*
X138511000Y-89018333D01*
X138444333Y-89051666D01*
X138411000Y-89118333D01*
X138411000Y-89151666D01*
X138444333Y-89218333D01*
X138511000Y-89251666D01*
X138611000Y-89251666D01*
X138677666Y-89285000D01*
X138711000Y-89351666D01*
X138711000Y-89385000D01*
X138677666Y-89451666D01*
X138611000Y-89485000D01*
X138511000Y-89485000D01*
X138444333Y-89451666D01*
X138111000Y-89018333D02*
X138111000Y-89718333D01*
X137811000Y-89018333D02*
X137811000Y-89385000D01*
X137844333Y-89451666D01*
X137911000Y-89485000D01*
X138011000Y-89485000D01*
X138077666Y-89451666D01*
X138111000Y-89418333D01*
X137211000Y-89051666D02*
X137277666Y-89018333D01*
X137411000Y-89018333D01*
X137477666Y-89051666D01*
X137511000Y-89118333D01*
X137511000Y-89385000D01*
X137477666Y-89451666D01*
X137411000Y-89485000D01*
X137277666Y-89485000D01*
X137211000Y-89451666D01*
X137177666Y-89385000D01*
X137177666Y-89318333D01*
X137511000Y-89251666D01*
X136877666Y-89018333D02*
X136877666Y-89485000D01*
X136877666Y-89718333D02*
X136911000Y-89685000D01*
X136877666Y-89651666D01*
X136844333Y-89685000D01*
X136877666Y-89718333D01*
X136877666Y-89651666D01*
X136544333Y-89018333D02*
X136544333Y-89485000D01*
X136544333Y-89418333D02*
X136511000Y-89451666D01*
X136444333Y-89485000D01*
X136344333Y-89485000D01*
X136277666Y-89451666D01*
X136244333Y-89385000D01*
X136244333Y-89018333D01*
X136244333Y-89385000D02*
X136211000Y-89451666D01*
X136144333Y-89485000D01*
X136044333Y-89485000D01*
X135977666Y-89451666D01*
X135944333Y-89385000D01*
X135944333Y-89018333D01*
X141377666Y-88548333D02*
X141244333Y-88548333D01*
X141177666Y-88515000D01*
X141111000Y-88448333D01*
X141077666Y-88315000D01*
X141077666Y-88081666D01*
X141111000Y-87948333D01*
X141177666Y-87881666D01*
X141244333Y-87848333D01*
X141377666Y-87848333D01*
X141444333Y-87881666D01*
X141511000Y-87948333D01*
X141544333Y-88081666D01*
X141544333Y-88315000D01*
X141511000Y-88448333D01*
X141444333Y-88515000D01*
X141377666Y-88548333D01*
X140777666Y-88315000D02*
X140777666Y-87615000D01*
X140777666Y-88281666D02*
X140711000Y-88315000D01*
X140577666Y-88315000D01*
X140511000Y-88281666D01*
X140477666Y-88248333D01*
X140444333Y-88181666D01*
X140444333Y-87981666D01*
X140477666Y-87915000D01*
X140511000Y-87881666D01*
X140577666Y-87848333D01*
X140711000Y-87848333D01*
X140777666Y-87881666D01*
X139877666Y-87881666D02*
X139944333Y-87848333D01*
X140077666Y-87848333D01*
X140144333Y-87881666D01*
X140177666Y-87948333D01*
X140177666Y-88215000D01*
X140144333Y-88281666D01*
X140077666Y-88315000D01*
X139944333Y-88315000D01*
X139877666Y-88281666D01*
X139844333Y-88215000D01*
X139844333Y-88148333D01*
X140177666Y-88081666D01*
X139544333Y-88315000D02*
X139544333Y-87848333D01*
X139544333Y-88248333D02*
X139511000Y-88281666D01*
X139444333Y-88315000D01*
X139344333Y-88315000D01*
X139277666Y-88281666D01*
X139244333Y-88215000D01*
X139244333Y-87848333D01*
X139011000Y-88548333D02*
X138611000Y-88548333D01*
X138811000Y-87848333D02*
X138811000Y-88548333D01*
X138377666Y-87848333D02*
X138377666Y-88548333D01*
X138077666Y-87848333D02*
X138077666Y-88215000D01*
X138111000Y-88281666D01*
X138177666Y-88315000D01*
X138277666Y-88315000D01*
X138344333Y-88281666D01*
X138377666Y-88248333D01*
X137477666Y-87881666D02*
X137544333Y-87848333D01*
X137677666Y-87848333D01*
X137744333Y-87881666D01*
X137777666Y-87948333D01*
X137777666Y-88215000D01*
X137744333Y-88281666D01*
X137677666Y-88315000D01*
X137544333Y-88315000D01*
X137477666Y-88281666D01*
X137444333Y-88215000D01*
X137444333Y-88148333D01*
X137777666Y-88081666D01*
X137144333Y-87848333D02*
X137144333Y-88315000D01*
X137144333Y-88181666D02*
X137111000Y-88248333D01*
X137077666Y-88281666D01*
X137011000Y-88315000D01*
X136944333Y-88315000D01*
X136711000Y-87848333D02*
X136711000Y-88315000D01*
X136711000Y-88248333D02*
X136677666Y-88281666D01*
X136611000Y-88315000D01*
X136511000Y-88315000D01*
X136444333Y-88281666D01*
X136411000Y-88215000D01*
X136411000Y-87848333D01*
X136411000Y-88215000D02*
X136377666Y-88281666D01*
X136311000Y-88315000D01*
X136211000Y-88315000D01*
X136144333Y-88281666D01*
X136111000Y-88215000D01*
X136111000Y-87848333D01*
X140577666Y-86678333D02*
X140577666Y-87378333D01*
X140344333Y-86878333D01*
X140111000Y-87378333D01*
X140111000Y-86678333D01*
X139677666Y-86678333D02*
X139744333Y-86711666D01*
X139777666Y-86745000D01*
X139811000Y-86811666D01*
X139811000Y-87011666D01*
X139777666Y-87078333D01*
X139744333Y-87111666D01*
X139677666Y-87145000D01*
X139577666Y-87145000D01*
X139511000Y-87111666D01*
X139477666Y-87078333D01*
X139444333Y-87011666D01*
X139444333Y-86811666D01*
X139477666Y-86745000D01*
X139511000Y-86711666D01*
X139577666Y-86678333D01*
X139677666Y-86678333D01*
X139144333Y-87145000D02*
X139144333Y-86678333D01*
X139144333Y-87078333D02*
X139111000Y-87111666D01*
X139044333Y-87145000D01*
X138944333Y-87145000D01*
X138877666Y-87111666D01*
X138844333Y-87045000D01*
X138844333Y-86678333D01*
X138511000Y-86678333D02*
X138511000Y-87145000D01*
X138511000Y-87378333D02*
X138544333Y-87345000D01*
X138511000Y-87311666D01*
X138477666Y-87345000D01*
X138511000Y-87378333D01*
X138511000Y-87311666D01*
X138277666Y-87145000D02*
X138011000Y-87145000D01*
X138177666Y-87378333D02*
X138177666Y-86778333D01*
X138144333Y-86711666D01*
X138077666Y-86678333D01*
X138011000Y-86678333D01*
X137677666Y-86678333D02*
X137744333Y-86711666D01*
X137777666Y-86745000D01*
X137811000Y-86811666D01*
X137811000Y-87011666D01*
X137777666Y-87078333D01*
X137744333Y-87111666D01*
X137677666Y-87145000D01*
X137577666Y-87145000D01*
X137511000Y-87111666D01*
X137477666Y-87078333D01*
X137444333Y-87011666D01*
X137444333Y-86811666D01*
X137477666Y-86745000D01*
X137511000Y-86711666D01*
X137577666Y-86678333D01*
X137677666Y-86678333D01*
X137144333Y-86678333D02*
X137144333Y-87145000D01*
X137144333Y-87011666D02*
X137111000Y-87078333D01*
X137077666Y-87111666D01*
X137011000Y-87145000D01*
X136944333Y-87145000D01*
X140744333Y-86208333D02*
X140344333Y-86208333D01*
X140544333Y-85508333D02*
X140544333Y-86208333D01*
X140177666Y-85975000D02*
X140044333Y-85508333D01*
X139911000Y-85841666D01*
X139777666Y-85508333D01*
X139644333Y-85975000D01*
X139277666Y-85508333D02*
X139344333Y-85541666D01*
X139377666Y-85575000D01*
X139411000Y-85641666D01*
X139411000Y-85841666D01*
X139377666Y-85908333D01*
X139344333Y-85941666D01*
X139277666Y-85975000D01*
X139177666Y-85975000D01*
X139111000Y-85941666D01*
X139077666Y-85908333D01*
X139044333Y-85841666D01*
X139044333Y-85641666D01*
X139077666Y-85575000D01*
X139111000Y-85541666D01*
X139177666Y-85508333D01*
X139277666Y-85508333D01*
X138744333Y-85508333D02*
X138744333Y-85975000D01*
X138744333Y-85908333D02*
X138711000Y-85941666D01*
X138644333Y-85975000D01*
X138544333Y-85975000D01*
X138477666Y-85941666D01*
X138444333Y-85875000D01*
X138444333Y-85508333D01*
X138444333Y-85875000D02*
X138411000Y-85941666D01*
X138344333Y-85975000D01*
X138244333Y-85975000D01*
X138177666Y-85941666D01*
X138144333Y-85875000D01*
X138144333Y-85508333D01*
X137544333Y-85541666D02*
X137611000Y-85508333D01*
X137744333Y-85508333D01*
X137811000Y-85541666D01*
X137844333Y-85608333D01*
X137844333Y-85875000D01*
X137811000Y-85941666D01*
X137744333Y-85975000D01*
X137611000Y-85975000D01*
X137544333Y-85941666D01*
X137511000Y-85875000D01*
X137511000Y-85808333D01*
X137844333Y-85741666D01*
X137244333Y-85541666D02*
X137177666Y-85508333D01*
X137044333Y-85508333D01*
X136977666Y-85541666D01*
X136944333Y-85608333D01*
X136944333Y-85641666D01*
X136977666Y-85708333D01*
X137044333Y-85741666D01*
X137144333Y-85741666D01*
X137211000Y-85775000D01*
X137244333Y-85841666D01*
X137244333Y-85875000D01*
X137211000Y-85941666D01*
X137144333Y-85975000D01*
X137044333Y-85975000D01*
X136977666Y-85941666D01*
D11*
X132181571Y-84816904D02*
X131724428Y-84816904D01*
X131953000Y-84816904D02*
X131953000Y-84016904D01*
X131876809Y-84131190D01*
X131800619Y-84207380D01*
X131724428Y-84245476D01*
X146913571Y-84816904D02*
X146456428Y-84816904D01*
X146685000Y-84816904D02*
X146685000Y-84016904D01*
X146608809Y-84131190D01*
X146532619Y-84207380D01*
X146456428Y-84245476D01*
X134213571Y-102215904D02*
X133756428Y-102215904D01*
X133985000Y-102215904D02*
X133985000Y-101415904D01*
X133908809Y-101530190D01*
X133832619Y-101606380D01*
X133756428Y-101644476D01*
X135483571Y-91166904D02*
X135026428Y-91166904D01*
X135255000Y-91166904D02*
X135255000Y-90366904D01*
X135178809Y-90481190D01*
X135102619Y-90557380D01*
X135026428Y-90595476D01*
X149876142Y-116800380D02*
X150447571Y-116800380D01*
X150161857Y-117800380D02*
X150161857Y-116800380D01*
X150780904Y-117800380D02*
X150780904Y-116800380D01*
X151209476Y-117800380D02*
X151209476Y-117276571D01*
X151161857Y-117181333D01*
X151066619Y-117133714D01*
X150923761Y-117133714D01*
X150828523Y-117181333D01*
X150780904Y-117228952D01*
X152066619Y-117752761D02*
X151971380Y-117800380D01*
X151780904Y-117800380D01*
X151685666Y-117752761D01*
X151638047Y-117657523D01*
X151638047Y-117276571D01*
X151685666Y-117181333D01*
X151780904Y-117133714D01*
X151971380Y-117133714D01*
X152066619Y-117181333D01*
X152114238Y-117276571D01*
X152114238Y-117371809D01*
X151638047Y-117467047D01*
X152542809Y-117800380D02*
X152542809Y-117133714D01*
X152542809Y-117324190D02*
X152590428Y-117228952D01*
X152638047Y-117181333D01*
X152733285Y-117133714D01*
X152828523Y-117133714D01*
X153161857Y-117800380D02*
X153161857Y-117133714D01*
X153161857Y-117228952D02*
X153209476Y-117181333D01*
X153304714Y-117133714D01*
X153447571Y-117133714D01*
X153542809Y-117181333D01*
X153590428Y-117276571D01*
X153590428Y-117800380D01*
X153590428Y-117276571D02*
X153638047Y-117181333D01*
X153733285Y-117133714D01*
X153876142Y-117133714D01*
X153971380Y-117181333D01*
X154019000Y-117276571D01*
X154019000Y-117800380D01*
X123975857Y-107212142D02*
X123928238Y-107164523D01*
X123880619Y-107021666D01*
X123880619Y-106926428D01*
X123928238Y-106783571D01*
X124023476Y-106688333D01*
X124118714Y-106640714D01*
X124309190Y-106593095D01*
X124452047Y-106593095D01*
X124642523Y-106640714D01*
X124737761Y-106688333D01*
X124833000Y-106783571D01*
X124880619Y-106926428D01*
X124880619Y-107021666D01*
X124833000Y-107164523D01*
X124785380Y-107212142D01*
X124880619Y-107497857D02*
X123880619Y-107831190D01*
X124880619Y-108164523D01*
X124261571Y-108497857D02*
X124261571Y-109259761D01*
X123880619Y-109735952D02*
X124880619Y-109735952D01*
X123880619Y-110307380D02*
X124452047Y-109878809D01*
X124880619Y-110307380D02*
X124309190Y-109735952D01*
X123928238Y-111116904D02*
X123880619Y-111021666D01*
X123880619Y-110831190D01*
X123928238Y-110735952D01*
X124023476Y-110688333D01*
X124404428Y-110688333D01*
X124499666Y-110735952D01*
X124547285Y-110831190D01*
X124547285Y-111021666D01*
X124499666Y-111116904D01*
X124404428Y-111164523D01*
X124309190Y-111164523D01*
X124213952Y-110688333D01*
X124547285Y-111450238D02*
X124547285Y-111831190D01*
X124880619Y-111593095D02*
X124023476Y-111593095D01*
X123928238Y-111640714D01*
X123880619Y-111735952D01*
X123880619Y-111831190D01*
X123928238Y-112545476D02*
X123880619Y-112450238D01*
X123880619Y-112259761D01*
X123928238Y-112164523D01*
X124023476Y-112116904D01*
X124404428Y-112116904D01*
X124499666Y-112164523D01*
X124547285Y-112259761D01*
X124547285Y-112450238D01*
X124499666Y-112545476D01*
X124404428Y-112593095D01*
X124309190Y-112593095D01*
X124213952Y-112116904D01*
X123880619Y-113164523D02*
X123928238Y-113069285D01*
X124023476Y-113021666D01*
X124880619Y-113021666D01*
D10*
%TO.C,SW1*%
X153416600Y-108778000D02*
X154066600Y-108778000D01*
X154066600Y-108778000D02*
X154066600Y-110678000D01*
X154066600Y-110678000D02*
X153416600Y-110678000D01*
X150316600Y-111478000D02*
X150316600Y-107978000D01*
X153416600Y-107978000D02*
X153416600Y-111478000D01*
%TO.C,J2*%
X138932000Y-117676000D02*
X139432000Y-117676000D01*
X138932000Y-116936000D02*
X138932000Y-117676000D01*
X145505000Y-113799000D02*
X145458000Y-113845000D01*
X147802000Y-111501000D02*
X147767000Y-111537000D01*
X145698000Y-114015000D02*
X145663000Y-114050000D01*
X148007000Y-111707000D02*
X147960000Y-111753000D01*
X149292000Y-107515000D02*
X149292000Y-117436000D01*
X139172000Y-107515000D02*
X139172000Y-117436000D01*
X139172000Y-117436000D02*
X149292000Y-117436000D01*
X139172000Y-107515000D02*
X149292000Y-107515000D01*
X139172000Y-110475000D02*
X149292000Y-110475000D01*
X139172000Y-115376000D02*
X149292000Y-115376000D01*
X139172000Y-116876000D02*
X149292000Y-116876000D01*
X148412000Y-112776000D02*
G75*
G03*
X148412000Y-112776000I-1680000J0D01*
G01*
X142415318Y-114310756D02*
G75*
G02*
X141732000Y-114456000I-683318J1534756D01*
G01*
X143267426Y-112092958D02*
G75*
G02*
X143267000Y-113460000I-1535426J-683042D01*
G01*
X141048958Y-111240574D02*
G75*
G02*
X142416000Y-111241000I683042J-1535426D01*
G01*
X140196574Y-113459042D02*
G75*
G02*
X140197000Y-112092000I1535426J683042D01*
G01*
X141760805Y-114456253D02*
G75*
G02*
X141048000Y-114311000I-28805J1680253D01*
G01*
%TO.C,J1*%
X136220000Y-112776000D02*
G75*
G03*
X136220000Y-112776000I-1680000J0D01*
G01*
X126980000Y-116876000D02*
X137100000Y-116876000D01*
X126980000Y-115376000D02*
X137100000Y-115376000D01*
X126980000Y-110475000D02*
X137100000Y-110475000D01*
X126980000Y-107515000D02*
X137100000Y-107515000D01*
X126980000Y-117436000D02*
X137100000Y-117436000D01*
X126980000Y-107515000D02*
X126980000Y-117436000D01*
X137100000Y-107515000D02*
X137100000Y-117436000D01*
X135815000Y-111707000D02*
X135768000Y-111753000D01*
X133506000Y-114015000D02*
X133471000Y-114050000D01*
X135610000Y-111501000D02*
X135575000Y-111537000D01*
X133313000Y-113799000D02*
X133266000Y-113845000D01*
X126740000Y-116936000D02*
X126740000Y-117676000D01*
X126740000Y-117676000D02*
X127240000Y-117676000D01*
X129568805Y-114456253D02*
G75*
G02*
X128856000Y-114311000I-28805J1680253D01*
G01*
X128004574Y-113459042D02*
G75*
G02*
X128005000Y-112092000I1535426J683042D01*
G01*
X128856958Y-111240574D02*
G75*
G02*
X130224000Y-111241000I683042J-1535426D01*
G01*
X131075426Y-112092958D02*
G75*
G02*
X131075000Y-113460000I-1535426J-683042D01*
G01*
X130223318Y-114310756D02*
G75*
G02*
X129540000Y-114456000I-683318J1534756D01*
G01*
%TO.C,D5*%
X134910000Y-102124000D02*
X138810000Y-102124000D01*
X134910000Y-104124000D02*
X138810000Y-104124000D01*
X134910000Y-102124000D02*
X134910000Y-104124000D01*
%TO.C,D4*%
X129576000Y-102124000D02*
X133476000Y-102124000D01*
X129576000Y-104124000D02*
X133476000Y-104124000D01*
X129576000Y-102124000D02*
X129576000Y-104124000D01*
%TO.C,D3*%
X143292000Y-104664000D02*
X147192000Y-104664000D01*
X143292000Y-106664000D02*
X147192000Y-106664000D01*
X143292000Y-104664000D02*
X143292000Y-106664000D01*
%TO.C,D2*%
X134910000Y-104664000D02*
X138810000Y-104664000D01*
X134910000Y-106664000D02*
X138810000Y-106664000D01*
X134910000Y-104664000D02*
X134910000Y-106664000D01*
%TO.C,D1*%
X129576000Y-104664000D02*
X133476000Y-104664000D01*
X129576000Y-106664000D02*
X133476000Y-106664000D01*
X129576000Y-104664000D02*
X129576000Y-106664000D01*
%TO.C,U4*%
X148154000Y-85992000D02*
X148154000Y-84292000D01*
X144454000Y-90792000D02*
X144304000Y-90792000D01*
X144304000Y-90792000D02*
X144304000Y-85992000D01*
X144304000Y-85992000D02*
X144454000Y-85992000D01*
X148154000Y-85992000D02*
X148304000Y-85992000D01*
X148304000Y-85992000D02*
X148304000Y-90792000D01*
X148304000Y-90792000D02*
X148154000Y-90792000D01*
%TO.C,U3*%
X133572000Y-90792000D02*
X133422000Y-90792000D01*
X133572000Y-85992000D02*
X133572000Y-90792000D01*
X133422000Y-85992000D02*
X133572000Y-85992000D01*
X129572000Y-85992000D02*
X129722000Y-85992000D01*
X129572000Y-90792000D02*
X129572000Y-85992000D01*
X129722000Y-90792000D02*
X129572000Y-90792000D01*
X133422000Y-85992000D02*
X133422000Y-84292000D01*
%TO.C,U2*%
X139381000Y-90277000D02*
X135931000Y-90277000D01*
X139381000Y-90277000D02*
X141331000Y-90277000D01*
X139381000Y-95397000D02*
X137431000Y-95397000D01*
X139381000Y-95397000D02*
X141331000Y-95397000D01*
%TO.C,U1*%
X133394000Y-96700000D02*
X133394000Y-96930000D01*
X133394000Y-101420000D02*
X133394000Y-101190000D01*
X133394000Y-101420000D02*
X130674000Y-101420000D01*
X130674000Y-101420000D02*
X130674000Y-100110000D01*
X134534000Y-101190000D02*
X133394000Y-101190000D01*
X130674000Y-96700000D02*
X133394000Y-96700000D01*
X130674000Y-98010000D02*
X130674000Y-96700000D01*
%TO.C,R10*%
X130826742Y-95772500D02*
X131301258Y-95772500D01*
X130826742Y-94727500D02*
X131301258Y-94727500D01*
%TO.C,R9*%
X146924500Y-94758742D02*
X146924500Y-95233258D01*
X147969500Y-94758742D02*
X147969500Y-95233258D01*
%TO.C,R8*%
X142635500Y-85708258D02*
X142635500Y-85233742D01*
X141590500Y-85708258D02*
X141590500Y-85233742D01*
%TO.C,R7*%
X136158500Y-85708258D02*
X136158500Y-85233742D01*
X135113500Y-85708258D02*
X135113500Y-85233742D01*
%TO.C,R6*%
X141270258Y-96505500D02*
X140795742Y-96505500D01*
X141270258Y-97550500D02*
X140795742Y-97550500D01*
%TO.C,R5*%
X144257500Y-94695742D02*
X144257500Y-95170258D01*
X145302500Y-94695742D02*
X145302500Y-95170258D01*
%TO.C,R4*%
X134097500Y-93805742D02*
X134097500Y-94280258D01*
X135142500Y-93805742D02*
X135142500Y-94280258D01*
%TO.C,R3*%
X146287258Y-100569500D02*
X145812742Y-100569500D01*
X146287258Y-101614500D02*
X145812742Y-101614500D01*
%TO.C,R2*%
X145812742Y-99582500D02*
X146287258Y-99582500D01*
X145812742Y-98537500D02*
X146287258Y-98537500D01*
%TO.C,R1*%
X142256742Y-101614500D02*
X142731258Y-101614500D01*
X142256742Y-100569500D02*
X142731258Y-100569500D01*
%TO.C,D7*%
X124135000Y-113631000D02*
X124135000Y-116316000D01*
X126055000Y-113631000D02*
X124135000Y-113631000D01*
X126055000Y-116316000D02*
X126055000Y-113631000D01*
%TO.C,D6*%
X150678000Y-113631000D02*
X150678000Y-116316000D01*
X152598000Y-113631000D02*
X150678000Y-113631000D01*
X152598000Y-116316000D02*
X152598000Y-113631000D01*
%TO.C,C2*%
X137412000Y-99935420D02*
X137412000Y-100216580D01*
X138432000Y-99935420D02*
X138432000Y-100216580D01*
%TO.C,C1*%
X135380000Y-99935420D02*
X135380000Y-100216580D01*
X136400000Y-99935420D02*
X136400000Y-100216580D01*
%TO.C,SW1*%
D11*
X152398361Y-106870333D02*
X152445980Y-106727476D01*
X152445980Y-106489380D01*
X152398361Y-106394142D01*
X152350742Y-106346523D01*
X152255504Y-106298904D01*
X152160266Y-106298904D01*
X152065028Y-106346523D01*
X152017409Y-106394142D01*
X151969790Y-106489380D01*
X151922171Y-106679857D01*
X151874552Y-106775095D01*
X151826933Y-106822714D01*
X151731695Y-106870333D01*
X151636457Y-106870333D01*
X151541219Y-106822714D01*
X151493600Y-106775095D01*
X151445980Y-106679857D01*
X151445980Y-106441761D01*
X151493600Y-106298904D01*
X151445980Y-105965571D02*
X152445980Y-105727476D01*
X151731695Y-105537000D01*
X152445980Y-105346523D01*
X151445980Y-105108428D01*
X152445980Y-104203666D02*
X152445980Y-104775095D01*
X152445980Y-104489380D02*
X151445980Y-104489380D01*
X151588838Y-104584619D01*
X151684076Y-104679857D01*
X151731695Y-104775095D01*
%TO.C,J2*%
X143898666Y-105968380D02*
X143898666Y-106682666D01*
X143851047Y-106825523D01*
X143755809Y-106920761D01*
X143612952Y-106968380D01*
X143517714Y-106968380D01*
X144327238Y-106063619D02*
X144374857Y-106016000D01*
X144470095Y-105968380D01*
X144708190Y-105968380D01*
X144803428Y-106016000D01*
X144851047Y-106063619D01*
X144898666Y-106158857D01*
X144898666Y-106254095D01*
X144851047Y-106396952D01*
X144279619Y-106968380D01*
X144898666Y-106968380D01*
%TO.C,J1*%
X131706666Y-105968380D02*
X131706666Y-106682666D01*
X131659047Y-106825523D01*
X131563809Y-106920761D01*
X131420952Y-106968380D01*
X131325714Y-106968380D01*
X132706666Y-106968380D02*
X132135238Y-106968380D01*
X132420952Y-106968380D02*
X132420952Y-105968380D01*
X132325714Y-106111238D01*
X132230476Y-106206476D01*
X132135238Y-106254095D01*
%TO.C,D5*%
X139723904Y-103576380D02*
X139723904Y-102576380D01*
X139962000Y-102576380D01*
X140104857Y-102624000D01*
X140200095Y-102719238D01*
X140247714Y-102814476D01*
X140295333Y-103004952D01*
X140295333Y-103147809D01*
X140247714Y-103338285D01*
X140200095Y-103433523D01*
X140104857Y-103528761D01*
X139962000Y-103576380D01*
X139723904Y-103576380D01*
X141200095Y-102576380D02*
X140723904Y-102576380D01*
X140676285Y-103052571D01*
X140723904Y-103004952D01*
X140819142Y-102957333D01*
X141057238Y-102957333D01*
X141152476Y-103004952D01*
X141200095Y-103052571D01*
X141247714Y-103147809D01*
X141247714Y-103385904D01*
X141200095Y-103481142D01*
X141152476Y-103528761D01*
X141057238Y-103576380D01*
X140819142Y-103576380D01*
X140723904Y-103528761D01*
X140676285Y-103481142D01*
%TO.C,D4*%
X128801904Y-101798380D02*
X128801904Y-100798380D01*
X129040000Y-100798380D01*
X129182857Y-100846000D01*
X129278095Y-100941238D01*
X129325714Y-101036476D01*
X129373333Y-101226952D01*
X129373333Y-101369809D01*
X129325714Y-101560285D01*
X129278095Y-101655523D01*
X129182857Y-101750761D01*
X129040000Y-101798380D01*
X128801904Y-101798380D01*
X130230476Y-101131714D02*
X130230476Y-101798380D01*
X129992380Y-100750761D02*
X129754285Y-101465047D01*
X130373333Y-101465047D01*
%TO.C,D3*%
X144803904Y-104338380D02*
X144803904Y-103338380D01*
X145042000Y-103338380D01*
X145184857Y-103386000D01*
X145280095Y-103481238D01*
X145327714Y-103576476D01*
X145375333Y-103766952D01*
X145375333Y-103909809D01*
X145327714Y-104100285D01*
X145280095Y-104195523D01*
X145184857Y-104290761D01*
X145042000Y-104338380D01*
X144803904Y-104338380D01*
X145708666Y-103338380D02*
X146327714Y-103338380D01*
X145994380Y-103719333D01*
X146137238Y-103719333D01*
X146232476Y-103766952D01*
X146280095Y-103814571D01*
X146327714Y-103909809D01*
X146327714Y-104147904D01*
X146280095Y-104243142D01*
X146232476Y-104290761D01*
X146137238Y-104338380D01*
X145851523Y-104338380D01*
X145756285Y-104290761D01*
X145708666Y-104243142D01*
%TO.C,D2*%
X139723904Y-106116380D02*
X139723904Y-105116380D01*
X139962000Y-105116380D01*
X140104857Y-105164000D01*
X140200095Y-105259238D01*
X140247714Y-105354476D01*
X140295333Y-105544952D01*
X140295333Y-105687809D01*
X140247714Y-105878285D01*
X140200095Y-105973523D01*
X140104857Y-106068761D01*
X139962000Y-106116380D01*
X139723904Y-106116380D01*
X140676285Y-105211619D02*
X140723904Y-105164000D01*
X140819142Y-105116380D01*
X141057238Y-105116380D01*
X141152476Y-105164000D01*
X141200095Y-105211619D01*
X141247714Y-105306857D01*
X141247714Y-105402095D01*
X141200095Y-105544952D01*
X140628666Y-106116380D01*
X141247714Y-106116380D01*
%TO.C,D1*%
X127785904Y-106116380D02*
X127785904Y-105116380D01*
X128024000Y-105116380D01*
X128166857Y-105164000D01*
X128262095Y-105259238D01*
X128309714Y-105354476D01*
X128357333Y-105544952D01*
X128357333Y-105687809D01*
X128309714Y-105878285D01*
X128262095Y-105973523D01*
X128166857Y-106068761D01*
X128024000Y-106116380D01*
X127785904Y-106116380D01*
X129309714Y-106116380D02*
X128738285Y-106116380D01*
X129024000Y-106116380D02*
X129024000Y-105116380D01*
X128928761Y-105259238D01*
X128833523Y-105354476D01*
X128738285Y-105402095D01*
%TO.C,U4*%
X145756380Y-92582904D02*
X146565904Y-92582904D01*
X146661142Y-92535285D01*
X146708761Y-92487666D01*
X146756380Y-92392428D01*
X146756380Y-92201952D01*
X146708761Y-92106714D01*
X146661142Y-92059095D01*
X146565904Y-92011476D01*
X145756380Y-92011476D01*
X146089714Y-91106714D02*
X146756380Y-91106714D01*
X145708761Y-91344809D02*
X146423047Y-91582904D01*
X146423047Y-90963857D01*
%TO.C,U3*%
X131024380Y-92582904D02*
X131833904Y-92582904D01*
X131929142Y-92535285D01*
X131976761Y-92487666D01*
X132024380Y-92392428D01*
X132024380Y-92201952D01*
X131976761Y-92106714D01*
X131929142Y-92059095D01*
X131833904Y-92011476D01*
X131024380Y-92011476D01*
X131024380Y-91630523D02*
X131024380Y-91011476D01*
X131405333Y-91344809D01*
X131405333Y-91201952D01*
X131452952Y-91106714D01*
X131500571Y-91059095D01*
X131595809Y-91011476D01*
X131833904Y-91011476D01*
X131929142Y-91059095D01*
X131976761Y-91106714D01*
X132024380Y-91201952D01*
X132024380Y-91487666D01*
X131976761Y-91582904D01*
X131929142Y-91630523D01*
%TO.C,U2*%
X133858095Y-91400380D02*
X133858095Y-92209904D01*
X133905714Y-92305142D01*
X133953333Y-92352761D01*
X134048571Y-92400380D01*
X134239047Y-92400380D01*
X134334285Y-92352761D01*
X134381904Y-92305142D01*
X134429523Y-92209904D01*
X134429523Y-91400380D01*
X134858095Y-91495619D02*
X134905714Y-91448000D01*
X135000952Y-91400380D01*
X135239047Y-91400380D01*
X135334285Y-91448000D01*
X135381904Y-91495619D01*
X135429523Y-91590857D01*
X135429523Y-91686095D01*
X135381904Y-91828952D01*
X134810476Y-92400380D01*
X135429523Y-92400380D01*
%TO.C,U1*%
X128778095Y-96734380D02*
X128778095Y-97543904D01*
X128825714Y-97639142D01*
X128873333Y-97686761D01*
X128968571Y-97734380D01*
X129159047Y-97734380D01*
X129254285Y-97686761D01*
X129301904Y-97639142D01*
X129349523Y-97543904D01*
X129349523Y-96734380D01*
X130349523Y-97734380D02*
X129778095Y-97734380D01*
X130063809Y-97734380D02*
X130063809Y-96734380D01*
X129968571Y-96877238D01*
X129873333Y-96972476D01*
X129778095Y-97020095D01*
%TO.C,R10*%
X130421142Y-94272380D02*
X130087809Y-93796190D01*
X129849714Y-94272380D02*
X129849714Y-93272380D01*
X130230666Y-93272380D01*
X130325904Y-93320000D01*
X130373523Y-93367619D01*
X130421142Y-93462857D01*
X130421142Y-93605714D01*
X130373523Y-93700952D01*
X130325904Y-93748571D01*
X130230666Y-93796190D01*
X129849714Y-93796190D01*
X131373523Y-94272380D02*
X130802095Y-94272380D01*
X131087809Y-94272380D02*
X131087809Y-93272380D01*
X130992571Y-93415238D01*
X130897333Y-93510476D01*
X130802095Y-93558095D01*
X131992571Y-93272380D02*
X132087809Y-93272380D01*
X132183047Y-93320000D01*
X132230666Y-93367619D01*
X132278285Y-93462857D01*
X132325904Y-93653333D01*
X132325904Y-93891428D01*
X132278285Y-94081904D01*
X132230666Y-94177142D01*
X132183047Y-94224761D01*
X132087809Y-94272380D01*
X131992571Y-94272380D01*
X131897333Y-94224761D01*
X131849714Y-94177142D01*
X131802095Y-94081904D01*
X131754476Y-93891428D01*
X131754476Y-93653333D01*
X131802095Y-93462857D01*
X131849714Y-93367619D01*
X131897333Y-93320000D01*
X131992571Y-93272380D01*
%TO.C,R9*%
X147899380Y-97575666D02*
X147423190Y-97909000D01*
X147899380Y-98147095D02*
X146899380Y-98147095D01*
X146899380Y-97766142D01*
X146947000Y-97670904D01*
X146994619Y-97623285D01*
X147089857Y-97575666D01*
X147232714Y-97575666D01*
X147327952Y-97623285D01*
X147375571Y-97670904D01*
X147423190Y-97766142D01*
X147423190Y-98147095D01*
X147899380Y-97099476D02*
X147899380Y-96909000D01*
X147851761Y-96813761D01*
X147804142Y-96766142D01*
X147661285Y-96670904D01*
X147470809Y-96623285D01*
X147089857Y-96623285D01*
X146994619Y-96670904D01*
X146947000Y-96718523D01*
X146899380Y-96813761D01*
X146899380Y-97004238D01*
X146947000Y-97099476D01*
X146994619Y-97147095D01*
X147089857Y-97194714D01*
X147327952Y-97194714D01*
X147423190Y-97147095D01*
X147470809Y-97099476D01*
X147518428Y-97004238D01*
X147518428Y-96813761D01*
X147470809Y-96718523D01*
X147423190Y-96670904D01*
X147327952Y-96623285D01*
%TO.C,R8*%
X144089380Y-85637666D02*
X143613190Y-85971000D01*
X144089380Y-86209095D02*
X143089380Y-86209095D01*
X143089380Y-85828142D01*
X143137000Y-85732904D01*
X143184619Y-85685285D01*
X143279857Y-85637666D01*
X143422714Y-85637666D01*
X143517952Y-85685285D01*
X143565571Y-85732904D01*
X143613190Y-85828142D01*
X143613190Y-86209095D01*
X143517952Y-85066238D02*
X143470333Y-85161476D01*
X143422714Y-85209095D01*
X143327476Y-85256714D01*
X143279857Y-85256714D01*
X143184619Y-85209095D01*
X143137000Y-85161476D01*
X143089380Y-85066238D01*
X143089380Y-84875761D01*
X143137000Y-84780523D01*
X143184619Y-84732904D01*
X143279857Y-84685285D01*
X143327476Y-84685285D01*
X143422714Y-84732904D01*
X143470333Y-84780523D01*
X143517952Y-84875761D01*
X143517952Y-85066238D01*
X143565571Y-85161476D01*
X143613190Y-85209095D01*
X143708428Y-85256714D01*
X143898904Y-85256714D01*
X143994142Y-85209095D01*
X144041761Y-85161476D01*
X144089380Y-85066238D01*
X144089380Y-84875761D01*
X144041761Y-84780523D01*
X143994142Y-84732904D01*
X143898904Y-84685285D01*
X143708428Y-84685285D01*
X143613190Y-84732904D01*
X143565571Y-84780523D01*
X143517952Y-84875761D01*
%TO.C,R7*%
X134818380Y-86272666D02*
X134342190Y-86606000D01*
X134818380Y-86844095D02*
X133818380Y-86844095D01*
X133818380Y-86463142D01*
X133866000Y-86367904D01*
X133913619Y-86320285D01*
X134008857Y-86272666D01*
X134151714Y-86272666D01*
X134246952Y-86320285D01*
X134294571Y-86367904D01*
X134342190Y-86463142D01*
X134342190Y-86844095D01*
X133818380Y-85939333D02*
X133818380Y-85272666D01*
X134818380Y-85701238D01*
%TO.C,R6*%
X140803333Y-99004380D02*
X140470000Y-98528190D01*
X140231904Y-99004380D02*
X140231904Y-98004380D01*
X140612857Y-98004380D01*
X140708095Y-98052000D01*
X140755714Y-98099619D01*
X140803333Y-98194857D01*
X140803333Y-98337714D01*
X140755714Y-98432952D01*
X140708095Y-98480571D01*
X140612857Y-98528190D01*
X140231904Y-98528190D01*
X141660476Y-98004380D02*
X141470000Y-98004380D01*
X141374761Y-98052000D01*
X141327142Y-98099619D01*
X141231904Y-98242476D01*
X141184285Y-98432952D01*
X141184285Y-98813904D01*
X141231904Y-98909142D01*
X141279523Y-98956761D01*
X141374761Y-99004380D01*
X141565238Y-99004380D01*
X141660476Y-98956761D01*
X141708095Y-98909142D01*
X141755714Y-98813904D01*
X141755714Y-98575809D01*
X141708095Y-98480571D01*
X141660476Y-98432952D01*
X141565238Y-98385333D01*
X141374761Y-98385333D01*
X141279523Y-98432952D01*
X141231904Y-98480571D01*
X141184285Y-98575809D01*
%TO.C,R5*%
X145232380Y-97575666D02*
X144756190Y-97909000D01*
X145232380Y-98147095D02*
X144232380Y-98147095D01*
X144232380Y-97766142D01*
X144280000Y-97670904D01*
X144327619Y-97623285D01*
X144422857Y-97575666D01*
X144565714Y-97575666D01*
X144660952Y-97623285D01*
X144708571Y-97670904D01*
X144756190Y-97766142D01*
X144756190Y-98147095D01*
X144232380Y-96670904D02*
X144232380Y-97147095D01*
X144708571Y-97194714D01*
X144660952Y-97147095D01*
X144613333Y-97051857D01*
X144613333Y-96813761D01*
X144660952Y-96718523D01*
X144708571Y-96670904D01*
X144803809Y-96623285D01*
X145041904Y-96623285D01*
X145137142Y-96670904D01*
X145184761Y-96718523D01*
X145232380Y-96813761D01*
X145232380Y-97051857D01*
X145184761Y-97147095D01*
X145137142Y-97194714D01*
%TO.C,R4*%
X133802380Y-94146666D02*
X133326190Y-94480000D01*
X133802380Y-94718095D02*
X132802380Y-94718095D01*
X132802380Y-94337142D01*
X132850000Y-94241904D01*
X132897619Y-94194285D01*
X132992857Y-94146666D01*
X133135714Y-94146666D01*
X133230952Y-94194285D01*
X133278571Y-94241904D01*
X133326190Y-94337142D01*
X133326190Y-94718095D01*
X133135714Y-93289523D02*
X133802380Y-93289523D01*
X132754761Y-93527619D02*
X133469047Y-93765714D01*
X133469047Y-93146666D01*
%TO.C,R3*%
X145883333Y-102974380D02*
X145550000Y-102498190D01*
X145311904Y-102974380D02*
X145311904Y-101974380D01*
X145692857Y-101974380D01*
X145788095Y-102022000D01*
X145835714Y-102069619D01*
X145883333Y-102164857D01*
X145883333Y-102307714D01*
X145835714Y-102402952D01*
X145788095Y-102450571D01*
X145692857Y-102498190D01*
X145311904Y-102498190D01*
X146216666Y-101974380D02*
X146835714Y-101974380D01*
X146502380Y-102355333D01*
X146645238Y-102355333D01*
X146740476Y-102402952D01*
X146788095Y-102450571D01*
X146835714Y-102545809D01*
X146835714Y-102783904D01*
X146788095Y-102879142D01*
X146740476Y-102926761D01*
X146645238Y-102974380D01*
X146359523Y-102974380D01*
X146264285Y-102926761D01*
X146216666Y-102879142D01*
%TO.C,R2*%
X143343333Y-99512380D02*
X143010000Y-99036190D01*
X142771904Y-99512380D02*
X142771904Y-98512380D01*
X143152857Y-98512380D01*
X143248095Y-98560000D01*
X143295714Y-98607619D01*
X143343333Y-98702857D01*
X143343333Y-98845714D01*
X143295714Y-98940952D01*
X143248095Y-98988571D01*
X143152857Y-99036190D01*
X142771904Y-99036190D01*
X143724285Y-98607619D02*
X143771904Y-98560000D01*
X143867142Y-98512380D01*
X144105238Y-98512380D01*
X144200476Y-98560000D01*
X144248095Y-98607619D01*
X144295714Y-98702857D01*
X144295714Y-98798095D01*
X144248095Y-98940952D01*
X143676666Y-99512380D01*
X144295714Y-99512380D01*
%TO.C,R1*%
X142518333Y-103068380D02*
X142185000Y-102592190D01*
X141946904Y-103068380D02*
X141946904Y-102068380D01*
X142327857Y-102068380D01*
X142423095Y-102116000D01*
X142470714Y-102163619D01*
X142518333Y-102258857D01*
X142518333Y-102401714D01*
X142470714Y-102496952D01*
X142423095Y-102544571D01*
X142327857Y-102592190D01*
X141946904Y-102592190D01*
X143470714Y-103068380D02*
X142899285Y-103068380D01*
X143185000Y-103068380D02*
X143185000Y-102068380D01*
X143089761Y-102211238D01*
X142994523Y-102306476D01*
X142899285Y-102354095D01*
%TO.C,D7*%
X127198380Y-116562095D02*
X126198380Y-116562095D01*
X126198380Y-116324000D01*
X126246000Y-116181142D01*
X126341238Y-116085904D01*
X126436476Y-116038285D01*
X126626952Y-115990666D01*
X126769809Y-115990666D01*
X126960285Y-116038285D01*
X127055523Y-116085904D01*
X127150761Y-116181142D01*
X127198380Y-116324000D01*
X127198380Y-116562095D01*
X126198380Y-115657333D02*
X126198380Y-114990666D01*
X127198380Y-115419238D01*
%TO.C,D6*%
X150312380Y-116308095D02*
X149312380Y-116308095D01*
X149312380Y-116070000D01*
X149360000Y-115927142D01*
X149455238Y-115831904D01*
X149550476Y-115784285D01*
X149740952Y-115736666D01*
X149883809Y-115736666D01*
X150074285Y-115784285D01*
X150169523Y-115831904D01*
X150264761Y-115927142D01*
X150312380Y-116070000D01*
X150312380Y-116308095D01*
X149312380Y-114879523D02*
X149312380Y-115070000D01*
X149360000Y-115165238D01*
X149407619Y-115212857D01*
X149550476Y-115308095D01*
X149740952Y-115355714D01*
X150121904Y-115355714D01*
X150217142Y-115308095D01*
X150264761Y-115260476D01*
X150312380Y-115165238D01*
X150312380Y-114974761D01*
X150264761Y-114879523D01*
X150217142Y-114831904D01*
X150121904Y-114784285D01*
X149883809Y-114784285D01*
X149788571Y-114831904D01*
X149740952Y-114879523D01*
X149693333Y-114974761D01*
X149693333Y-115165238D01*
X149740952Y-115260476D01*
X149788571Y-115308095D01*
X149883809Y-115355714D01*
%TO.C,C2*%
X139549142Y-100242666D02*
X139596761Y-100290285D01*
X139644380Y-100433142D01*
X139644380Y-100528380D01*
X139596761Y-100671238D01*
X139501523Y-100766476D01*
X139406285Y-100814095D01*
X139215809Y-100861714D01*
X139072952Y-100861714D01*
X138882476Y-100814095D01*
X138787238Y-100766476D01*
X138692000Y-100671238D01*
X138644380Y-100528380D01*
X138644380Y-100433142D01*
X138692000Y-100290285D01*
X138739619Y-100242666D01*
X138739619Y-99861714D02*
X138692000Y-99814095D01*
X138644380Y-99718857D01*
X138644380Y-99480761D01*
X138692000Y-99385523D01*
X138739619Y-99337904D01*
X138834857Y-99290285D01*
X138930095Y-99290285D01*
X139072952Y-99337904D01*
X139644380Y-99909333D01*
X139644380Y-99290285D01*
%TO.C,C1*%
X136247142Y-97689666D02*
X136294761Y-97737285D01*
X136342380Y-97880142D01*
X136342380Y-97975380D01*
X136294761Y-98118238D01*
X136199523Y-98213476D01*
X136104285Y-98261095D01*
X135913809Y-98308714D01*
X135770952Y-98308714D01*
X135580476Y-98261095D01*
X135485238Y-98213476D01*
X135390000Y-98118238D01*
X135342380Y-97975380D01*
X135342380Y-97880142D01*
X135390000Y-97737285D01*
X135437619Y-97689666D01*
X136342380Y-96737285D02*
X136342380Y-97308714D01*
X136342380Y-97023000D02*
X135342380Y-97023000D01*
X135485238Y-97118238D01*
X135580476Y-97213476D01*
X135628095Y-97308714D01*
%TD*%
M02*
