G04 #@! TF.GenerationSoftware,KiCad,Pcbnew,(5.1.9)-1*
G04 #@! TF.CreationDate,2021-07-08T21:32:49+02:00*
G04 #@! TF.ProjectId,OpenThermMonitorTwomes,4f70656e-5468-4657-926d-4d6f6e69746f,rev?*
G04 #@! TF.SameCoordinates,Original*
G04 #@! TF.FileFunction,Copper,L1,Top*
G04 #@! TF.FilePolarity,Positive*
%FSLAX46Y46*%
G04 Gerber Fmt 4.6, Leading zero omitted, Abs format (unit mm)*
G04 Created by KiCad (PCBNEW (5.1.9)-1) date 2021-07-08 21:32:49*
%MOMM*%
%LPD*%
G01*
G04 APERTURE LIST*
G04 #@! TA.AperFunction,SMDPad,CuDef*
%ADD10R,1.050000X1.400000*%
G04 #@! TD*
G04 #@! TA.AperFunction,ComponentPad*
%ADD11R,2.600000X2.600000*%
G04 #@! TD*
G04 #@! TA.AperFunction,ComponentPad*
%ADD12C,2.600000*%
G04 #@! TD*
G04 #@! TA.AperFunction,SMDPad,CuDef*
%ADD13R,0.900000X1.200000*%
G04 #@! TD*
G04 #@! TA.AperFunction,ComponentPad*
%ADD14R,1.800000X1.800000*%
G04 #@! TD*
G04 #@! TA.AperFunction,ComponentPad*
%ADD15O,1.800000X1.800000*%
G04 #@! TD*
G04 #@! TA.AperFunction,SMDPad,CuDef*
%ADD16R,0.640000X2.000000*%
G04 #@! TD*
G04 #@! TA.AperFunction,SMDPad,CuDef*
%ADD17C,0.100000*%
G04 #@! TD*
G04 #@! TA.AperFunction,SMDPad,CuDef*
%ADD18R,1.300000X0.900000*%
G04 #@! TD*
G04 #@! TA.AperFunction,ViaPad*
%ADD19C,0.800000*%
G04 #@! TD*
G04 #@! TA.AperFunction,Conductor*
%ADD20C,0.250000*%
G04 #@! TD*
G04 #@! TA.AperFunction,Conductor*
%ADD21C,0.450000*%
G04 #@! TD*
G04 #@! TA.AperFunction,Conductor*
%ADD22C,0.100000*%
G04 #@! TD*
G04 APERTURE END LIST*
D10*
X151172000Y-107928000D03*
X151172000Y-111528000D03*
X152612000Y-107928000D03*
X152612000Y-111528000D03*
D11*
X141732000Y-112776000D03*
D12*
X146732000Y-112776000D03*
X134540000Y-112776000D03*
D11*
X129540000Y-112776000D03*
D13*
X138810000Y-103124000D03*
X135510000Y-103124000D03*
X133476000Y-103124000D03*
X130176000Y-103124000D03*
X147192000Y-105664000D03*
X143892000Y-105664000D03*
X138810000Y-105664000D03*
X135510000Y-105664000D03*
X133476000Y-105664000D03*
X130176000Y-105664000D03*
D14*
X127490000Y-103569000D03*
D15*
X127490000Y-101029000D03*
X127490000Y-98489000D03*
X127490000Y-95949000D03*
X127490000Y-93409000D03*
X127490000Y-90869000D03*
X127490000Y-88329000D03*
X127490000Y-85789000D03*
D16*
X147574000Y-85242000D03*
X145034000Y-85242000D03*
X145034000Y-91542000D03*
X147574000Y-91542000D03*
X132842000Y-91542000D03*
X130302000Y-91542000D03*
X130302000Y-85242000D03*
X132842000Y-85242000D03*
G04 #@! TA.AperFunction,SMDPad,CuDef*
G36*
G01*
X140881000Y-91082000D02*
X140881000Y-90782000D01*
G75*
G02*
X141031000Y-90632000I150000J0D01*
G01*
X142681000Y-90632000D01*
G75*
G02*
X142831000Y-90782000I0J-150000D01*
G01*
X142831000Y-91082000D01*
G75*
G02*
X142681000Y-91232000I-150000J0D01*
G01*
X141031000Y-91232000D01*
G75*
G02*
X140881000Y-91082000I0J150000D01*
G01*
G37*
G04 #@! TD.AperFunction*
G04 #@! TA.AperFunction,SMDPad,CuDef*
G36*
G01*
X140881000Y-92352000D02*
X140881000Y-92052000D01*
G75*
G02*
X141031000Y-91902000I150000J0D01*
G01*
X142681000Y-91902000D01*
G75*
G02*
X142831000Y-92052000I0J-150000D01*
G01*
X142831000Y-92352000D01*
G75*
G02*
X142681000Y-92502000I-150000J0D01*
G01*
X141031000Y-92502000D01*
G75*
G02*
X140881000Y-92352000I0J150000D01*
G01*
G37*
G04 #@! TD.AperFunction*
G04 #@! TA.AperFunction,SMDPad,CuDef*
G36*
G01*
X140881000Y-93622000D02*
X140881000Y-93322000D01*
G75*
G02*
X141031000Y-93172000I150000J0D01*
G01*
X142681000Y-93172000D01*
G75*
G02*
X142831000Y-93322000I0J-150000D01*
G01*
X142831000Y-93622000D01*
G75*
G02*
X142681000Y-93772000I-150000J0D01*
G01*
X141031000Y-93772000D01*
G75*
G02*
X140881000Y-93622000I0J150000D01*
G01*
G37*
G04 #@! TD.AperFunction*
G04 #@! TA.AperFunction,SMDPad,CuDef*
G36*
G01*
X140881000Y-94892000D02*
X140881000Y-94592000D01*
G75*
G02*
X141031000Y-94442000I150000J0D01*
G01*
X142681000Y-94442000D01*
G75*
G02*
X142831000Y-94592000I0J-150000D01*
G01*
X142831000Y-94892000D01*
G75*
G02*
X142681000Y-95042000I-150000J0D01*
G01*
X141031000Y-95042000D01*
G75*
G02*
X140881000Y-94892000I0J150000D01*
G01*
G37*
G04 #@! TD.AperFunction*
G04 #@! TA.AperFunction,SMDPad,CuDef*
G36*
G01*
X135931000Y-94892000D02*
X135931000Y-94592000D01*
G75*
G02*
X136081000Y-94442000I150000J0D01*
G01*
X137731000Y-94442000D01*
G75*
G02*
X137881000Y-94592000I0J-150000D01*
G01*
X137881000Y-94892000D01*
G75*
G02*
X137731000Y-95042000I-150000J0D01*
G01*
X136081000Y-95042000D01*
G75*
G02*
X135931000Y-94892000I0J150000D01*
G01*
G37*
G04 #@! TD.AperFunction*
G04 #@! TA.AperFunction,SMDPad,CuDef*
G36*
G01*
X135931000Y-93622000D02*
X135931000Y-93322000D01*
G75*
G02*
X136081000Y-93172000I150000J0D01*
G01*
X137731000Y-93172000D01*
G75*
G02*
X137881000Y-93322000I0J-150000D01*
G01*
X137881000Y-93622000D01*
G75*
G02*
X137731000Y-93772000I-150000J0D01*
G01*
X136081000Y-93772000D01*
G75*
G02*
X135931000Y-93622000I0J150000D01*
G01*
G37*
G04 #@! TD.AperFunction*
G04 #@! TA.AperFunction,SMDPad,CuDef*
G36*
G01*
X135931000Y-92352000D02*
X135931000Y-92052000D01*
G75*
G02*
X136081000Y-91902000I150000J0D01*
G01*
X137731000Y-91902000D01*
G75*
G02*
X137881000Y-92052000I0J-150000D01*
G01*
X137881000Y-92352000D01*
G75*
G02*
X137731000Y-92502000I-150000J0D01*
G01*
X136081000Y-92502000D01*
G75*
G02*
X135931000Y-92352000I0J150000D01*
G01*
G37*
G04 #@! TD.AperFunction*
G04 #@! TA.AperFunction,SMDPad,CuDef*
G36*
G01*
X135931000Y-91082000D02*
X135931000Y-90782000D01*
G75*
G02*
X136081000Y-90632000I150000J0D01*
G01*
X137731000Y-90632000D01*
G75*
G02*
X137881000Y-90782000I0J-150000D01*
G01*
X137881000Y-91082000D01*
G75*
G02*
X137731000Y-91232000I-150000J0D01*
G01*
X136081000Y-91232000D01*
G75*
G02*
X135931000Y-91082000I0J150000D01*
G01*
G37*
G04 #@! TD.AperFunction*
G04 #@! TA.AperFunction,SMDPad,CuDef*
D17*
G36*
X130034000Y-98193500D02*
G01*
X133159000Y-98193500D01*
X133159000Y-98610000D01*
X134634000Y-98610000D01*
X134634000Y-99510000D01*
X133159000Y-99510000D01*
X133159000Y-99926500D01*
X130034000Y-99926500D01*
X130034000Y-98193500D01*
G37*
G04 #@! TD.AperFunction*
D18*
X133984000Y-97560000D03*
X133984000Y-100560000D03*
G04 #@! TA.AperFunction,SMDPad,CuDef*
G36*
G01*
X131489000Y-95525000D02*
X131489000Y-94975000D01*
G75*
G02*
X131689000Y-94775000I200000J0D01*
G01*
X132089000Y-94775000D01*
G75*
G02*
X132289000Y-94975000I0J-200000D01*
G01*
X132289000Y-95525000D01*
G75*
G02*
X132089000Y-95725000I-200000J0D01*
G01*
X131689000Y-95725000D01*
G75*
G02*
X131489000Y-95525000I0J200000D01*
G01*
G37*
G04 #@! TD.AperFunction*
G04 #@! TA.AperFunction,SMDPad,CuDef*
G36*
G01*
X129839000Y-95525000D02*
X129839000Y-94975000D01*
G75*
G02*
X130039000Y-94775000I200000J0D01*
G01*
X130439000Y-94775000D01*
G75*
G02*
X130639000Y-94975000I0J-200000D01*
G01*
X130639000Y-95525000D01*
G75*
G02*
X130439000Y-95725000I-200000J0D01*
G01*
X130039000Y-95725000D01*
G75*
G02*
X129839000Y-95525000I0J200000D01*
G01*
G37*
G04 #@! TD.AperFunction*
G04 #@! TA.AperFunction,SMDPad,CuDef*
G36*
G01*
X147172000Y-95421000D02*
X147722000Y-95421000D01*
G75*
G02*
X147922000Y-95621000I0J-200000D01*
G01*
X147922000Y-96021000D01*
G75*
G02*
X147722000Y-96221000I-200000J0D01*
G01*
X147172000Y-96221000D01*
G75*
G02*
X146972000Y-96021000I0J200000D01*
G01*
X146972000Y-95621000D01*
G75*
G02*
X147172000Y-95421000I200000J0D01*
G01*
G37*
G04 #@! TD.AperFunction*
G04 #@! TA.AperFunction,SMDPad,CuDef*
G36*
G01*
X147172000Y-93771000D02*
X147722000Y-93771000D01*
G75*
G02*
X147922000Y-93971000I0J-200000D01*
G01*
X147922000Y-94371000D01*
G75*
G02*
X147722000Y-94571000I-200000J0D01*
G01*
X147172000Y-94571000D01*
G75*
G02*
X146972000Y-94371000I0J200000D01*
G01*
X146972000Y-93971000D01*
G75*
G02*
X147172000Y-93771000I200000J0D01*
G01*
G37*
G04 #@! TD.AperFunction*
G04 #@! TA.AperFunction,SMDPad,CuDef*
G36*
G01*
X142388000Y-85046000D02*
X141838000Y-85046000D01*
G75*
G02*
X141638000Y-84846000I0J200000D01*
G01*
X141638000Y-84446000D01*
G75*
G02*
X141838000Y-84246000I200000J0D01*
G01*
X142388000Y-84246000D01*
G75*
G02*
X142588000Y-84446000I0J-200000D01*
G01*
X142588000Y-84846000D01*
G75*
G02*
X142388000Y-85046000I-200000J0D01*
G01*
G37*
G04 #@! TD.AperFunction*
G04 #@! TA.AperFunction,SMDPad,CuDef*
G36*
G01*
X142388000Y-86696000D02*
X141838000Y-86696000D01*
G75*
G02*
X141638000Y-86496000I0J200000D01*
G01*
X141638000Y-86096000D01*
G75*
G02*
X141838000Y-85896000I200000J0D01*
G01*
X142388000Y-85896000D01*
G75*
G02*
X142588000Y-86096000I0J-200000D01*
G01*
X142588000Y-86496000D01*
G75*
G02*
X142388000Y-86696000I-200000J0D01*
G01*
G37*
G04 #@! TD.AperFunction*
G04 #@! TA.AperFunction,SMDPad,CuDef*
G36*
G01*
X135911000Y-85046000D02*
X135361000Y-85046000D01*
G75*
G02*
X135161000Y-84846000I0J200000D01*
G01*
X135161000Y-84446000D01*
G75*
G02*
X135361000Y-84246000I200000J0D01*
G01*
X135911000Y-84246000D01*
G75*
G02*
X136111000Y-84446000I0J-200000D01*
G01*
X136111000Y-84846000D01*
G75*
G02*
X135911000Y-85046000I-200000J0D01*
G01*
G37*
G04 #@! TD.AperFunction*
G04 #@! TA.AperFunction,SMDPad,CuDef*
G36*
G01*
X135911000Y-86696000D02*
X135361000Y-86696000D01*
G75*
G02*
X135161000Y-86496000I0J200000D01*
G01*
X135161000Y-86096000D01*
G75*
G02*
X135361000Y-85896000I200000J0D01*
G01*
X135911000Y-85896000D01*
G75*
G02*
X136111000Y-86096000I0J-200000D01*
G01*
X136111000Y-86496000D01*
G75*
G02*
X135911000Y-86696000I-200000J0D01*
G01*
G37*
G04 #@! TD.AperFunction*
G04 #@! TA.AperFunction,SMDPad,CuDef*
G36*
G01*
X140608000Y-96753000D02*
X140608000Y-97303000D01*
G75*
G02*
X140408000Y-97503000I-200000J0D01*
G01*
X140008000Y-97503000D01*
G75*
G02*
X139808000Y-97303000I0J200000D01*
G01*
X139808000Y-96753000D01*
G75*
G02*
X140008000Y-96553000I200000J0D01*
G01*
X140408000Y-96553000D01*
G75*
G02*
X140608000Y-96753000I0J-200000D01*
G01*
G37*
G04 #@! TD.AperFunction*
G04 #@! TA.AperFunction,SMDPad,CuDef*
G36*
G01*
X142258000Y-96753000D02*
X142258000Y-97303000D01*
G75*
G02*
X142058000Y-97503000I-200000J0D01*
G01*
X141658000Y-97503000D01*
G75*
G02*
X141458000Y-97303000I0J200000D01*
G01*
X141458000Y-96753000D01*
G75*
G02*
X141658000Y-96553000I200000J0D01*
G01*
X142058000Y-96553000D01*
G75*
G02*
X142258000Y-96753000I0J-200000D01*
G01*
G37*
G04 #@! TD.AperFunction*
G04 #@! TA.AperFunction,SMDPad,CuDef*
G36*
G01*
X144505000Y-95358000D02*
X145055000Y-95358000D01*
G75*
G02*
X145255000Y-95558000I0J-200000D01*
G01*
X145255000Y-95958000D01*
G75*
G02*
X145055000Y-96158000I-200000J0D01*
G01*
X144505000Y-96158000D01*
G75*
G02*
X144305000Y-95958000I0J200000D01*
G01*
X144305000Y-95558000D01*
G75*
G02*
X144505000Y-95358000I200000J0D01*
G01*
G37*
G04 #@! TD.AperFunction*
G04 #@! TA.AperFunction,SMDPad,CuDef*
G36*
G01*
X144505000Y-93708000D02*
X145055000Y-93708000D01*
G75*
G02*
X145255000Y-93908000I0J-200000D01*
G01*
X145255000Y-94308000D01*
G75*
G02*
X145055000Y-94508000I-200000J0D01*
G01*
X144505000Y-94508000D01*
G75*
G02*
X144305000Y-94308000I0J200000D01*
G01*
X144305000Y-93908000D01*
G75*
G02*
X144505000Y-93708000I200000J0D01*
G01*
G37*
G04 #@! TD.AperFunction*
G04 #@! TA.AperFunction,SMDPad,CuDef*
G36*
G01*
X134345000Y-94468000D02*
X134895000Y-94468000D01*
G75*
G02*
X135095000Y-94668000I0J-200000D01*
G01*
X135095000Y-95068000D01*
G75*
G02*
X134895000Y-95268000I-200000J0D01*
G01*
X134345000Y-95268000D01*
G75*
G02*
X134145000Y-95068000I0J200000D01*
G01*
X134145000Y-94668000D01*
G75*
G02*
X134345000Y-94468000I200000J0D01*
G01*
G37*
G04 #@! TD.AperFunction*
G04 #@! TA.AperFunction,SMDPad,CuDef*
G36*
G01*
X134345000Y-92818000D02*
X134895000Y-92818000D01*
G75*
G02*
X135095000Y-93018000I0J-200000D01*
G01*
X135095000Y-93418000D01*
G75*
G02*
X134895000Y-93618000I-200000J0D01*
G01*
X134345000Y-93618000D01*
G75*
G02*
X134145000Y-93418000I0J200000D01*
G01*
X134145000Y-93018000D01*
G75*
G02*
X134345000Y-92818000I200000J0D01*
G01*
G37*
G04 #@! TD.AperFunction*
G04 #@! TA.AperFunction,SMDPad,CuDef*
G36*
G01*
X145625000Y-100817000D02*
X145625000Y-101367000D01*
G75*
G02*
X145425000Y-101567000I-200000J0D01*
G01*
X145025000Y-101567000D01*
G75*
G02*
X144825000Y-101367000I0J200000D01*
G01*
X144825000Y-100817000D01*
G75*
G02*
X145025000Y-100617000I200000J0D01*
G01*
X145425000Y-100617000D01*
G75*
G02*
X145625000Y-100817000I0J-200000D01*
G01*
G37*
G04 #@! TD.AperFunction*
G04 #@! TA.AperFunction,SMDPad,CuDef*
G36*
G01*
X147275000Y-100817000D02*
X147275000Y-101367000D01*
G75*
G02*
X147075000Y-101567000I-200000J0D01*
G01*
X146675000Y-101567000D01*
G75*
G02*
X146475000Y-101367000I0J200000D01*
G01*
X146475000Y-100817000D01*
G75*
G02*
X146675000Y-100617000I200000J0D01*
G01*
X147075000Y-100617000D01*
G75*
G02*
X147275000Y-100817000I0J-200000D01*
G01*
G37*
G04 #@! TD.AperFunction*
G04 #@! TA.AperFunction,SMDPad,CuDef*
G36*
G01*
X146475000Y-99335000D02*
X146475000Y-98785000D01*
G75*
G02*
X146675000Y-98585000I200000J0D01*
G01*
X147075000Y-98585000D01*
G75*
G02*
X147275000Y-98785000I0J-200000D01*
G01*
X147275000Y-99335000D01*
G75*
G02*
X147075000Y-99535000I-200000J0D01*
G01*
X146675000Y-99535000D01*
G75*
G02*
X146475000Y-99335000I0J200000D01*
G01*
G37*
G04 #@! TD.AperFunction*
G04 #@! TA.AperFunction,SMDPad,CuDef*
G36*
G01*
X144825000Y-99335000D02*
X144825000Y-98785000D01*
G75*
G02*
X145025000Y-98585000I200000J0D01*
G01*
X145425000Y-98585000D01*
G75*
G02*
X145625000Y-98785000I0J-200000D01*
G01*
X145625000Y-99335000D01*
G75*
G02*
X145425000Y-99535000I-200000J0D01*
G01*
X145025000Y-99535000D01*
G75*
G02*
X144825000Y-99335000I0J200000D01*
G01*
G37*
G04 #@! TD.AperFunction*
G04 #@! TA.AperFunction,SMDPad,CuDef*
G36*
G01*
X142919000Y-101367000D02*
X142919000Y-100817000D01*
G75*
G02*
X143119000Y-100617000I200000J0D01*
G01*
X143519000Y-100617000D01*
G75*
G02*
X143719000Y-100817000I0J-200000D01*
G01*
X143719000Y-101367000D01*
G75*
G02*
X143519000Y-101567000I-200000J0D01*
G01*
X143119000Y-101567000D01*
G75*
G02*
X142919000Y-101367000I0J200000D01*
G01*
G37*
G04 #@! TD.AperFunction*
G04 #@! TA.AperFunction,SMDPad,CuDef*
G36*
G01*
X141269000Y-101367000D02*
X141269000Y-100817000D01*
G75*
G02*
X141469000Y-100617000I200000J0D01*
G01*
X141869000Y-100617000D01*
G75*
G02*
X142069000Y-100817000I0J-200000D01*
G01*
X142069000Y-101367000D01*
G75*
G02*
X141869000Y-101567000I-200000J0D01*
G01*
X141469000Y-101567000D01*
G75*
G02*
X141269000Y-101367000I0J200000D01*
G01*
G37*
G04 #@! TD.AperFunction*
G04 #@! TA.AperFunction,SMDPad,CuDef*
G36*
G01*
X124638750Y-115766000D02*
X125551250Y-115766000D01*
G75*
G02*
X125795000Y-116009750I0J-243750D01*
G01*
X125795000Y-116497250D01*
G75*
G02*
X125551250Y-116741000I-243750J0D01*
G01*
X124638750Y-116741000D01*
G75*
G02*
X124395000Y-116497250I0J243750D01*
G01*
X124395000Y-116009750D01*
G75*
G02*
X124638750Y-115766000I243750J0D01*
G01*
G37*
G04 #@! TD.AperFunction*
G04 #@! TA.AperFunction,SMDPad,CuDef*
G36*
G01*
X124638750Y-113891000D02*
X125551250Y-113891000D01*
G75*
G02*
X125795000Y-114134750I0J-243750D01*
G01*
X125795000Y-114622250D01*
G75*
G02*
X125551250Y-114866000I-243750J0D01*
G01*
X124638750Y-114866000D01*
G75*
G02*
X124395000Y-114622250I0J243750D01*
G01*
X124395000Y-114134750D01*
G75*
G02*
X124638750Y-113891000I243750J0D01*
G01*
G37*
G04 #@! TD.AperFunction*
G04 #@! TA.AperFunction,SMDPad,CuDef*
G36*
G01*
X151181750Y-115766000D02*
X152094250Y-115766000D01*
G75*
G02*
X152338000Y-116009750I0J-243750D01*
G01*
X152338000Y-116497250D01*
G75*
G02*
X152094250Y-116741000I-243750J0D01*
G01*
X151181750Y-116741000D01*
G75*
G02*
X150938000Y-116497250I0J243750D01*
G01*
X150938000Y-116009750D01*
G75*
G02*
X151181750Y-115766000I243750J0D01*
G01*
G37*
G04 #@! TD.AperFunction*
G04 #@! TA.AperFunction,SMDPad,CuDef*
G36*
G01*
X151181750Y-113891000D02*
X152094250Y-113891000D01*
G75*
G02*
X152338000Y-114134750I0J-243750D01*
G01*
X152338000Y-114622250D01*
G75*
G02*
X152094250Y-114866000I-243750J0D01*
G01*
X151181750Y-114866000D01*
G75*
G02*
X150938000Y-114622250I0J243750D01*
G01*
X150938000Y-114134750D01*
G75*
G02*
X151181750Y-113891000I243750J0D01*
G01*
G37*
G04 #@! TD.AperFunction*
G04 #@! TA.AperFunction,SMDPad,CuDef*
G36*
G01*
X137672000Y-100401000D02*
X138172000Y-100401000D01*
G75*
G02*
X138397000Y-100626000I0J-225000D01*
G01*
X138397000Y-101076000D01*
G75*
G02*
X138172000Y-101301000I-225000J0D01*
G01*
X137672000Y-101301000D01*
G75*
G02*
X137447000Y-101076000I0J225000D01*
G01*
X137447000Y-100626000D01*
G75*
G02*
X137672000Y-100401000I225000J0D01*
G01*
G37*
G04 #@! TD.AperFunction*
G04 #@! TA.AperFunction,SMDPad,CuDef*
G36*
G01*
X137672000Y-98851000D02*
X138172000Y-98851000D01*
G75*
G02*
X138397000Y-99076000I0J-225000D01*
G01*
X138397000Y-99526000D01*
G75*
G02*
X138172000Y-99751000I-225000J0D01*
G01*
X137672000Y-99751000D01*
G75*
G02*
X137447000Y-99526000I0J225000D01*
G01*
X137447000Y-99076000D01*
G75*
G02*
X137672000Y-98851000I225000J0D01*
G01*
G37*
G04 #@! TD.AperFunction*
G04 #@! TA.AperFunction,SMDPad,CuDef*
G36*
G01*
X135640000Y-100401000D02*
X136140000Y-100401000D01*
G75*
G02*
X136365000Y-100626000I0J-225000D01*
G01*
X136365000Y-101076000D01*
G75*
G02*
X136140000Y-101301000I-225000J0D01*
G01*
X135640000Y-101301000D01*
G75*
G02*
X135415000Y-101076000I0J225000D01*
G01*
X135415000Y-100626000D01*
G75*
G02*
X135640000Y-100401000I225000J0D01*
G01*
G37*
G04 #@! TD.AperFunction*
G04 #@! TA.AperFunction,SMDPad,CuDef*
G36*
G01*
X135640000Y-98851000D02*
X136140000Y-98851000D01*
G75*
G02*
X136365000Y-99076000I0J-225000D01*
G01*
X136365000Y-99526000D01*
G75*
G02*
X136140000Y-99751000I-225000J0D01*
G01*
X135640000Y-99751000D01*
G75*
G02*
X135415000Y-99526000I0J225000D01*
G01*
X135415000Y-99076000D01*
G75*
G02*
X135640000Y-98851000I225000J0D01*
G01*
G37*
G04 #@! TD.AperFunction*
D14*
X150350000Y-103569000D03*
D15*
X150350000Y-101029000D03*
X150350000Y-98489000D03*
X150350000Y-95949000D03*
X150350000Y-93409000D03*
X150350000Y-90869000D03*
X150350000Y-88329000D03*
X150350000Y-85789000D03*
D19*
X136652000Y-95758000D03*
X136906000Y-101727000D03*
X148463000Y-109347000D03*
X147574000Y-87884000D03*
X125603000Y-108966000D03*
X134239000Y-84963000D03*
X143637000Y-90170000D03*
X131445000Y-90297000D03*
X132842000Y-88265000D03*
X144907000Y-88265006D03*
X139192001Y-91199010D03*
X131826000Y-97536000D03*
X126111000Y-111760000D03*
X138239503Y-96964497D03*
D20*
X152996000Y-107417000D02*
X152485000Y-107928000D01*
X152996000Y-101135000D02*
X152996000Y-107417000D01*
X150350000Y-98489000D02*
X152996000Y-101135000D01*
X152739000Y-110999998D02*
X152739000Y-111528000D01*
X151892000Y-109220000D02*
X151892000Y-110229002D01*
X152739000Y-110949002D02*
X152739000Y-111528000D01*
X151892000Y-110236000D02*
X152612000Y-110956000D01*
X151892000Y-109220000D02*
X152400000Y-108712000D01*
X152400000Y-107928000D02*
X152400000Y-108712000D01*
X147828000Y-93409000D02*
X147320000Y-93917000D01*
X150350000Y-93409000D02*
X147828000Y-93409000D01*
X147320000Y-93828000D02*
X145034000Y-91542000D01*
X147320000Y-93917000D02*
X147320000Y-93828000D01*
X128968000Y-95949000D02*
X127490000Y-95949000D01*
X129667000Y-95250000D02*
X128968000Y-95949000D01*
X130493000Y-95250000D02*
X129667000Y-95250000D01*
X130302000Y-95187000D02*
X130239000Y-95250000D01*
X130302000Y-91542000D02*
X130302000Y-95187000D01*
D21*
X134620000Y-94868000D02*
X134620000Y-94996000D01*
X134620000Y-94868000D02*
X135510000Y-94868000D01*
X135510000Y-94868000D02*
X135636000Y-94742000D01*
X135636000Y-94742000D02*
X136906000Y-94742000D01*
X141428000Y-100851000D02*
X141669000Y-101092000D01*
D20*
X138810000Y-104395000D02*
X138924999Y-104395000D01*
D21*
X138810000Y-103124000D02*
X138810000Y-104395000D01*
X138810000Y-104395000D02*
X138810000Y-105664000D01*
D20*
X136906000Y-94742000D02*
X136906000Y-94982999D01*
X136906000Y-95504000D02*
X136652000Y-95758000D01*
X136906000Y-94742000D02*
X136906000Y-95504000D01*
X136766000Y-101727000D02*
X136906000Y-101727000D01*
X135890000Y-100851000D02*
X136766000Y-101727000D01*
D21*
X135599000Y-100560000D02*
X135890000Y-100851000D01*
X133984000Y-100560000D02*
X135599000Y-100560000D01*
X135649000Y-99060000D02*
X135890000Y-99301000D01*
X133896500Y-99060000D02*
X135649000Y-99060000D01*
X143892000Y-107060000D02*
X143892000Y-105664000D01*
X142494000Y-108458000D02*
X143892000Y-107060000D01*
D20*
X142543990Y-105015990D02*
X142543990Y-99899010D01*
X143192000Y-105664000D02*
X142543990Y-105015990D01*
X143892000Y-105664000D02*
X143192000Y-105664000D01*
X142543990Y-99899010D02*
X143383000Y-99060000D01*
X143383000Y-99060000D02*
X145225000Y-99060000D01*
D21*
X130176000Y-105664000D02*
X130176000Y-103124000D01*
X133190000Y-99060000D02*
X133896500Y-99060000D01*
X130176000Y-102074000D02*
X133190000Y-99060000D01*
X130176000Y-103124000D02*
X130176000Y-102074000D01*
X142494000Y-111760000D02*
X141478000Y-112776000D01*
X142494000Y-108458000D02*
X142494000Y-111760000D01*
X127764999Y-114456001D02*
X128243998Y-114935000D01*
X128243998Y-114935000D02*
X139319000Y-114935000D01*
X127764999Y-111095999D02*
X127764999Y-114456001D01*
X127762000Y-111093000D02*
X127764999Y-111095999D01*
X127762000Y-109347000D02*
X127762000Y-111093000D01*
X139319000Y-114935000D02*
X141478000Y-112776000D01*
X130176000Y-106933000D02*
X127762000Y-109347000D01*
X130176000Y-105664000D02*
X130176000Y-106933000D01*
X133476000Y-105664000D02*
X135510000Y-105664000D01*
X130810000Y-110490000D02*
X130302000Y-110998000D01*
X133476000Y-109983000D02*
X132969000Y-110490000D01*
X132969000Y-110490000D02*
X130810000Y-110490000D01*
X133476000Y-105664000D02*
X133476000Y-109983000D01*
X130302000Y-112014000D02*
X129540000Y-112776000D01*
X130302000Y-110998000D02*
X130302000Y-112014000D01*
X143319000Y-101092000D02*
X145225000Y-101092000D01*
X147192000Y-105664000D02*
X147192000Y-104012000D01*
X145225000Y-102045000D02*
X145225000Y-101092000D01*
X147192000Y-104012000D02*
X145225000Y-102045000D01*
D20*
X141419822Y-97878010D02*
X141082990Y-97541178D01*
X141082990Y-95686468D02*
X137598522Y-92202000D01*
X145225000Y-101092000D02*
X145625000Y-101092000D01*
X145625000Y-101092000D02*
X146000010Y-100716990D01*
X146000010Y-100716990D02*
X146000010Y-98546822D01*
X146000010Y-98546822D02*
X145331198Y-97878010D01*
X145331198Y-97878010D02*
X141419822Y-97878010D01*
X141082990Y-97541178D02*
X141082990Y-95686468D01*
X137598522Y-92202000D02*
X136906000Y-92202000D01*
D21*
X147192000Y-112062000D02*
X146478000Y-112776000D01*
X147192000Y-105664000D02*
X147192000Y-112062000D01*
X133476000Y-103124000D02*
X135510000Y-103124000D01*
X136435001Y-104751991D02*
X136435001Y-110880999D01*
X135510000Y-103826990D02*
X136435001Y-104751991D01*
X136435001Y-110880999D02*
X134540000Y-112776000D01*
X135510000Y-103124000D02*
X135510000Y-103826990D01*
D20*
X147574000Y-87884000D02*
X147574000Y-85242000D01*
X149098000Y-111252000D02*
X148463000Y-110617000D01*
X149098000Y-112014000D02*
X149098000Y-111252000D01*
X151462500Y-114378500D02*
X149098000Y-112014000D01*
X148463000Y-110617000D02*
X148463000Y-109347000D01*
X151638000Y-114378500D02*
X151462500Y-114378500D01*
X125095000Y-109474000D02*
X125095000Y-114378500D01*
X125603000Y-108966000D02*
X125095000Y-109474000D01*
X134556000Y-84646000D02*
X134239000Y-84963000D01*
X135636000Y-84646000D02*
X134556000Y-84646000D01*
X150350000Y-100376002D02*
X150350000Y-101029000D01*
D21*
X150350000Y-101029000D02*
X148907000Y-101029000D01*
X148907000Y-101029000D02*
X148336000Y-100458000D01*
X148336000Y-98298000D02*
X147320000Y-97282000D01*
D20*
X147320000Y-97282000D02*
X147320000Y-97346002D01*
D21*
X148336000Y-100458000D02*
X148336000Y-98298000D01*
X147320000Y-97282000D02*
X147320000Y-95567000D01*
D20*
X144460998Y-92964000D02*
X144036999Y-92540001D01*
X146469990Y-93851396D02*
X145582594Y-92964000D01*
X144036999Y-90569999D02*
X143637000Y-90170000D01*
X146469990Y-94843990D02*
X146469990Y-93851396D01*
X147447000Y-95821000D02*
X146469990Y-94843990D01*
X145582594Y-92964000D02*
X144460998Y-92964000D01*
X144036999Y-92540001D02*
X144036999Y-90569999D01*
X131445000Y-94552000D02*
X131445000Y-90297000D01*
X132143000Y-95250000D02*
X131445000Y-94552000D01*
X149910800Y-109042200D02*
X149910800Y-110393800D01*
X151025000Y-107928000D02*
X149910800Y-109042200D01*
X151045000Y-107928000D02*
X151025000Y-107928000D01*
X150546000Y-107429000D02*
X151045000Y-107928000D01*
X150546000Y-106722000D02*
X150546000Y-107429000D01*
X148844000Y-105020000D02*
X150546000Y-106722000D01*
X149910800Y-110393800D02*
X151045000Y-111528000D01*
X148844000Y-102535000D02*
X148844000Y-105020000D01*
X150350000Y-101029000D02*
X148844000Y-102535000D01*
D21*
X128714000Y-102546037D02*
X129286000Y-101974037D01*
X129286000Y-101974037D02*
X129286000Y-97790000D01*
X129286000Y-97790000D02*
X130556000Y-96520000D01*
X130556000Y-96520000D02*
X132969000Y-96520000D01*
X133335010Y-96153990D02*
X133335010Y-93584010D01*
X132969000Y-96520000D02*
X133335010Y-96153990D01*
X132842000Y-93091000D02*
X132842000Y-91542000D01*
X133335010Y-93584010D02*
X132842000Y-93091000D01*
D20*
X132842000Y-91542000D02*
X132842000Y-88265000D01*
X147574000Y-90292000D02*
X145547006Y-88265006D01*
X147574000Y-91542000D02*
X147574000Y-90292000D01*
X145547006Y-88265006D02*
X144907000Y-88265006D01*
D21*
X128512963Y-102546037D02*
X127490000Y-103569000D01*
X128714000Y-102546037D02*
X128512963Y-102546037D01*
D20*
X146875000Y-101092000D02*
X146875000Y-99060000D01*
X142303478Y-93472000D02*
X141856000Y-93472000D01*
X146875000Y-98585000D02*
X146875000Y-99060000D01*
X145338688Y-94837500D02*
X145630010Y-95128822D01*
X145630010Y-95128822D02*
X145630010Y-97340010D01*
X145293178Y-94883010D02*
X145338688Y-94837500D01*
X144175802Y-94791990D02*
X144266822Y-94883010D01*
X145630010Y-97340010D02*
X146875000Y-98585000D01*
X144266822Y-94883010D02*
X145293178Y-94883010D01*
X143813990Y-94791990D02*
X144175802Y-94791990D01*
X142494000Y-93472000D02*
X143813990Y-94791990D01*
X141856000Y-93472000D02*
X142494000Y-93472000D01*
D21*
X134620000Y-93218000D02*
X135382000Y-93218000D01*
X135636000Y-93472000D02*
X136906000Y-93472000D01*
X135382000Y-93218000D02*
X135636000Y-93472000D01*
D20*
X138161400Y-93472000D02*
X140208000Y-95518600D01*
X136906000Y-93472000D02*
X138161400Y-93472000D01*
X140208000Y-95518600D02*
X140208000Y-97028000D01*
D21*
X144780000Y-95567000D02*
X144780000Y-95504000D01*
D20*
X141856000Y-97026000D02*
X141858000Y-97028000D01*
X141856000Y-95120000D02*
X141856000Y-97026000D01*
X141856000Y-94742000D02*
X141856000Y-95120000D01*
X142494000Y-95758000D02*
X141856000Y-95120000D01*
X144589000Y-95758000D02*
X142494000Y-95758000D01*
X144780000Y-95567000D02*
X144589000Y-95758000D01*
X135572000Y-86360000D02*
X135636000Y-86296000D01*
X135001000Y-86360000D02*
X135572000Y-86360000D01*
X135001000Y-86360000D02*
X135075990Y-86434990D01*
X133896000Y-86296000D02*
X135636000Y-86296000D01*
X132842000Y-85242000D02*
X133896000Y-86296000D01*
X138417000Y-91681000D02*
X138417000Y-89802000D01*
X138417000Y-89802000D02*
X141923000Y-86296000D01*
X138938000Y-92202000D02*
X138417000Y-91681000D01*
X141856000Y-92202000D02*
X138938000Y-92202000D01*
D21*
X133984000Y-97560000D02*
X137438000Y-97560000D01*
X137922000Y-98044000D02*
X137922000Y-99301000D01*
X137438000Y-97560000D02*
X137922000Y-98044000D01*
D20*
X141733980Y-90809980D02*
X141856000Y-90932000D01*
X139003990Y-91010999D02*
X139192001Y-91199010D01*
X142831000Y-90932000D02*
X143263989Y-91364989D01*
X143263989Y-92971989D02*
X144209000Y-93917000D01*
X141856000Y-90932000D02*
X142831000Y-90932000D01*
X143263989Y-91364989D02*
X143263989Y-92971989D01*
X144209000Y-93917000D02*
X144780000Y-93917000D01*
X139459011Y-90932000D02*
X139192001Y-91199010D01*
X141856000Y-90932000D02*
X139459011Y-90932000D01*
X131850000Y-97560000D02*
X131826000Y-97536000D01*
X133984000Y-97560000D02*
X131850000Y-97560000D01*
X137438000Y-97560000D02*
X137644000Y-97560000D01*
D21*
X127175500Y-116253500D02*
X125095000Y-116253500D01*
X127175500Y-116253500D02*
X151638000Y-116253500D01*
X126270010Y-115078490D02*
X125095000Y-116253500D01*
X126270010Y-111919010D02*
X126270010Y-115078490D01*
X126111000Y-111760000D02*
X126270010Y-111919010D01*
X137922000Y-97282000D02*
X138239503Y-96964497D01*
X137922000Y-98044000D02*
X137922000Y-97282000D01*
D20*
X130962000Y-85242000D02*
X136352000Y-90632000D01*
X130302000Y-85242000D02*
X130962000Y-85242000D01*
X145136000Y-85344000D02*
X145034000Y-85242000D01*
X145034000Y-85242000D02*
X145034000Y-85922000D01*
X144438000Y-84646000D02*
X145034000Y-85242000D01*
X142113000Y-84646000D02*
X144208000Y-84646000D01*
X144208000Y-84646000D02*
X144438000Y-84646000D01*
X142875000Y-84646000D02*
X144208000Y-84646000D01*
X139658000Y-95746418D02*
X139658000Y-96232956D01*
X139564604Y-96309604D01*
X139486622Y-96404626D01*
X139428676Y-96513036D01*
X139392993Y-96630667D01*
X139380944Y-96753000D01*
X139380944Y-97303000D01*
X139392993Y-97425333D01*
X139428676Y-97542964D01*
X139486622Y-97651374D01*
X139564604Y-97746396D01*
X139659626Y-97824378D01*
X139768036Y-97882324D01*
X139885667Y-97918007D01*
X140008000Y-97930056D01*
X140408000Y-97930056D01*
X140530333Y-97918007D01*
X140647964Y-97882324D01*
X140650392Y-97881026D01*
X140670728Y-97905804D01*
X140692200Y-97931968D01*
X140713186Y-97949191D01*
X141011809Y-98247814D01*
X141029032Y-98268800D01*
X141112780Y-98337531D01*
X141208328Y-98388602D01*
X141312003Y-98420052D01*
X141392804Y-98428010D01*
X141392813Y-98428010D01*
X141419821Y-98430670D01*
X141446829Y-98428010D01*
X144510693Y-98428010D01*
X144503622Y-98436626D01*
X144464403Y-98510000D01*
X143410007Y-98510000D01*
X143382999Y-98507340D01*
X143355991Y-98510000D01*
X143355982Y-98510000D01*
X143275181Y-98517958D01*
X143171506Y-98549408D01*
X143075958Y-98600479D01*
X143075956Y-98600480D01*
X143075957Y-98600480D01*
X143013195Y-98651987D01*
X143013190Y-98651992D01*
X142992210Y-98669210D01*
X142974992Y-98690190D01*
X142174181Y-99491002D01*
X142153201Y-99508220D01*
X142135983Y-99529200D01*
X142135977Y-99529206D01*
X142084469Y-99591968D01*
X142046039Y-99663868D01*
X142033399Y-99687516D01*
X142005831Y-99778396D01*
X142001949Y-99791192D01*
X141991330Y-99899010D01*
X141993991Y-99926028D01*
X141993991Y-100190473D01*
X141777250Y-100192000D01*
X141671000Y-100298250D01*
X141671000Y-101090000D01*
X141691000Y-101090000D01*
X141691000Y-101094000D01*
X141671000Y-101094000D01*
X141671000Y-101885750D01*
X141777250Y-101992000D01*
X141993991Y-101993527D01*
X141993990Y-104988982D01*
X141991330Y-105015990D01*
X141993990Y-105042998D01*
X141993990Y-105043007D01*
X142001948Y-105123808D01*
X142033398Y-105227483D01*
X142084469Y-105323032D01*
X142153200Y-105406780D01*
X142174186Y-105424003D01*
X142783987Y-106033804D01*
X142801210Y-106054790D01*
X142884958Y-106123521D01*
X142980506Y-106174592D01*
X143014944Y-106185039D01*
X143014944Y-106264000D01*
X143023150Y-106347314D01*
X143047452Y-106427427D01*
X143086916Y-106501260D01*
X143140026Y-106565974D01*
X143204740Y-106619084D01*
X143242000Y-106639000D01*
X143242000Y-106790761D01*
X142056962Y-107975800D01*
X142032157Y-107996157D01*
X142011802Y-108020960D01*
X141950930Y-108095132D01*
X141909467Y-108172704D01*
X141890573Y-108208053D01*
X141853405Y-108330579D01*
X141844000Y-108426069D01*
X141844000Y-108426079D01*
X141840856Y-108458000D01*
X141844000Y-108489922D01*
X141844001Y-111048944D01*
X140432000Y-111048944D01*
X140348686Y-111057150D01*
X140268573Y-111081452D01*
X140194740Y-111120916D01*
X140130026Y-111174026D01*
X140076916Y-111238740D01*
X140037452Y-111312573D01*
X140013150Y-111392686D01*
X140004944Y-111476000D01*
X140004944Y-113329817D01*
X139049762Y-114285000D01*
X135386541Y-114285000D01*
X135639624Y-114115895D01*
X135879895Y-113875624D01*
X136068676Y-113593094D01*
X136198710Y-113279164D01*
X136265000Y-112945898D01*
X136265000Y-112606102D01*
X136198710Y-112272836D01*
X136129497Y-112105741D01*
X136872044Y-111363195D01*
X136896844Y-111342842D01*
X136918459Y-111316505D01*
X136971396Y-111252000D01*
X136978071Y-111243867D01*
X137038428Y-111130947D01*
X137075596Y-111008421D01*
X137085001Y-110912931D01*
X137085001Y-110912921D01*
X137088145Y-110881000D01*
X137085001Y-110849079D01*
X137085001Y-106264000D01*
X137932944Y-106264000D01*
X137941150Y-106347314D01*
X137965452Y-106427427D01*
X138004916Y-106501260D01*
X138058026Y-106565974D01*
X138122740Y-106619084D01*
X138196573Y-106658548D01*
X138276686Y-106682850D01*
X138360000Y-106691056D01*
X138701750Y-106689000D01*
X138808000Y-106582750D01*
X138808000Y-105666000D01*
X138812000Y-105666000D01*
X138812000Y-106582750D01*
X138918250Y-106689000D01*
X139260000Y-106691056D01*
X139343314Y-106682850D01*
X139423427Y-106658548D01*
X139497260Y-106619084D01*
X139561974Y-106565974D01*
X139615084Y-106501260D01*
X139654548Y-106427427D01*
X139678850Y-106347314D01*
X139687056Y-106264000D01*
X139685000Y-105772250D01*
X139578750Y-105666000D01*
X138812000Y-105666000D01*
X138808000Y-105666000D01*
X138041250Y-105666000D01*
X137935000Y-105772250D01*
X137932944Y-106264000D01*
X137085001Y-106264000D01*
X137085001Y-105064000D01*
X137932944Y-105064000D01*
X137935000Y-105555750D01*
X138041250Y-105662000D01*
X138808000Y-105662000D01*
X138808000Y-104745250D01*
X138812000Y-104745250D01*
X138812000Y-105662000D01*
X139578750Y-105662000D01*
X139685000Y-105555750D01*
X139687056Y-105064000D01*
X139678850Y-104980686D01*
X139654548Y-104900573D01*
X139615084Y-104826740D01*
X139561974Y-104762026D01*
X139497260Y-104708916D01*
X139423427Y-104669452D01*
X139343314Y-104645150D01*
X139260000Y-104636944D01*
X138918250Y-104639000D01*
X138812000Y-104745250D01*
X138808000Y-104745250D01*
X138701750Y-104639000D01*
X138360000Y-104636944D01*
X138276686Y-104645150D01*
X138196573Y-104669452D01*
X138122740Y-104708916D01*
X138058026Y-104762026D01*
X138004916Y-104826740D01*
X137965452Y-104900573D01*
X137941150Y-104980686D01*
X137932944Y-105064000D01*
X137085001Y-105064000D01*
X137085001Y-104783912D01*
X137088145Y-104751991D01*
X137085001Y-104720069D01*
X137085001Y-104720059D01*
X137075596Y-104624569D01*
X137038428Y-104502043D01*
X137025555Y-104477959D01*
X136978071Y-104389122D01*
X136917199Y-104314950D01*
X136917197Y-104314948D01*
X136896844Y-104290148D01*
X136872045Y-104269796D01*
X136381604Y-103779355D01*
X136387056Y-103724000D01*
X137932944Y-103724000D01*
X137941150Y-103807314D01*
X137965452Y-103887427D01*
X138004916Y-103961260D01*
X138058026Y-104025974D01*
X138122740Y-104079084D01*
X138196573Y-104118548D01*
X138276686Y-104142850D01*
X138360000Y-104151056D01*
X138701750Y-104149000D01*
X138808000Y-104042750D01*
X138808000Y-103126000D01*
X138812000Y-103126000D01*
X138812000Y-104042750D01*
X138918250Y-104149000D01*
X139260000Y-104151056D01*
X139343314Y-104142850D01*
X139423427Y-104118548D01*
X139497260Y-104079084D01*
X139561974Y-104025974D01*
X139615084Y-103961260D01*
X139654548Y-103887427D01*
X139678850Y-103807314D01*
X139687056Y-103724000D01*
X139685000Y-103232250D01*
X139578750Y-103126000D01*
X138812000Y-103126000D01*
X138808000Y-103126000D01*
X138041250Y-103126000D01*
X137935000Y-103232250D01*
X137932944Y-103724000D01*
X136387056Y-103724000D01*
X136387056Y-102524000D01*
X137932944Y-102524000D01*
X137935000Y-103015750D01*
X138041250Y-103122000D01*
X138808000Y-103122000D01*
X138808000Y-102205250D01*
X138812000Y-102205250D01*
X138812000Y-103122000D01*
X139578750Y-103122000D01*
X139685000Y-103015750D01*
X139687056Y-102524000D01*
X139678850Y-102440686D01*
X139654548Y-102360573D01*
X139615084Y-102286740D01*
X139561974Y-102222026D01*
X139497260Y-102168916D01*
X139423427Y-102129452D01*
X139343314Y-102105150D01*
X139260000Y-102096944D01*
X138918250Y-102099000D01*
X138812000Y-102205250D01*
X138808000Y-102205250D01*
X138701750Y-102099000D01*
X138360000Y-102096944D01*
X138276686Y-102105150D01*
X138196573Y-102129452D01*
X138122740Y-102168916D01*
X138058026Y-102222026D01*
X138004916Y-102286740D01*
X137965452Y-102360573D01*
X137941150Y-102440686D01*
X137932944Y-102524000D01*
X136387056Y-102524000D01*
X136378850Y-102440686D01*
X136354548Y-102360573D01*
X136315084Y-102286740D01*
X136261974Y-102222026D01*
X136197260Y-102168916D01*
X136123427Y-102129452D01*
X136043314Y-102105150D01*
X135960000Y-102096944D01*
X135060000Y-102096944D01*
X134976686Y-102105150D01*
X134896573Y-102129452D01*
X134822740Y-102168916D01*
X134758026Y-102222026D01*
X134704916Y-102286740D01*
X134665452Y-102360573D01*
X134641150Y-102440686D01*
X134637869Y-102474000D01*
X134348131Y-102474000D01*
X134344850Y-102440686D01*
X134320548Y-102360573D01*
X134281084Y-102286740D01*
X134227974Y-102222026D01*
X134163260Y-102168916D01*
X134089427Y-102129452D01*
X134009314Y-102105150D01*
X133926000Y-102096944D01*
X133026000Y-102096944D01*
X132942686Y-102105150D01*
X132862573Y-102129452D01*
X132788740Y-102168916D01*
X132724026Y-102222026D01*
X132670916Y-102286740D01*
X132631452Y-102360573D01*
X132607150Y-102440686D01*
X132598944Y-102524000D01*
X132598944Y-103724000D01*
X132607150Y-103807314D01*
X132631452Y-103887427D01*
X132670916Y-103961260D01*
X132724026Y-104025974D01*
X132788740Y-104079084D01*
X132862573Y-104118548D01*
X132942686Y-104142850D01*
X133026000Y-104151056D01*
X133926000Y-104151056D01*
X134009314Y-104142850D01*
X134089427Y-104118548D01*
X134163260Y-104079084D01*
X134227974Y-104025974D01*
X134281084Y-103961260D01*
X134320548Y-103887427D01*
X134344850Y-103807314D01*
X134348131Y-103774000D01*
X134637869Y-103774000D01*
X134641150Y-103807314D01*
X134665452Y-103887427D01*
X134704916Y-103961260D01*
X134758026Y-104025974D01*
X134822740Y-104079084D01*
X134896573Y-104118548D01*
X134935054Y-104130221D01*
X134966930Y-104189858D01*
X135027802Y-104264030D01*
X135027805Y-104264033D01*
X135048158Y-104288833D01*
X135072957Y-104309185D01*
X135400716Y-104636944D01*
X135060000Y-104636944D01*
X134976686Y-104645150D01*
X134896573Y-104669452D01*
X134822740Y-104708916D01*
X134758026Y-104762026D01*
X134704916Y-104826740D01*
X134665452Y-104900573D01*
X134641150Y-104980686D01*
X134637869Y-105014000D01*
X134348131Y-105014000D01*
X134344850Y-104980686D01*
X134320548Y-104900573D01*
X134281084Y-104826740D01*
X134227974Y-104762026D01*
X134163260Y-104708916D01*
X134089427Y-104669452D01*
X134009314Y-104645150D01*
X133926000Y-104636944D01*
X133026000Y-104636944D01*
X132942686Y-104645150D01*
X132862573Y-104669452D01*
X132788740Y-104708916D01*
X132724026Y-104762026D01*
X132670916Y-104826740D01*
X132631452Y-104900573D01*
X132607150Y-104980686D01*
X132598944Y-105064000D01*
X132598944Y-106264000D01*
X132607150Y-106347314D01*
X132631452Y-106427427D01*
X132670916Y-106501260D01*
X132724026Y-106565974D01*
X132788740Y-106619084D01*
X132826000Y-106639000D01*
X132826001Y-109713760D01*
X132699762Y-109840000D01*
X130841920Y-109840000D01*
X130809999Y-109836856D01*
X130778078Y-109840000D01*
X130778068Y-109840000D01*
X130682578Y-109849405D01*
X130560052Y-109886573D01*
X130447132Y-109946930D01*
X130447130Y-109946931D01*
X130447131Y-109946931D01*
X130372959Y-110007802D01*
X130372957Y-110007804D01*
X130348157Y-110028157D01*
X130327804Y-110052957D01*
X129864962Y-110515800D01*
X129840157Y-110536157D01*
X129819802Y-110560960D01*
X129758930Y-110635132D01*
X129743194Y-110664573D01*
X129698573Y-110748053D01*
X129661405Y-110870579D01*
X129652000Y-110966069D01*
X129652000Y-110966079D01*
X129648856Y-110998000D01*
X129652000Y-111029922D01*
X129652000Y-111048944D01*
X128413510Y-111048944D01*
X128412000Y-111033618D01*
X128412000Y-109616238D01*
X130613043Y-107415196D01*
X130637843Y-107394843D01*
X130658196Y-107370043D01*
X130658199Y-107370040D01*
X130719070Y-107295868D01*
X130779427Y-107182948D01*
X130816595Y-107060422D01*
X130819686Y-107029041D01*
X130826000Y-106964932D01*
X130826000Y-106964924D01*
X130829144Y-106933000D01*
X130826000Y-106901076D01*
X130826000Y-106639000D01*
X130863260Y-106619084D01*
X130927974Y-106565974D01*
X130981084Y-106501260D01*
X131020548Y-106427427D01*
X131044850Y-106347314D01*
X131053056Y-106264000D01*
X131053056Y-105064000D01*
X131044850Y-104980686D01*
X131020548Y-104900573D01*
X130981084Y-104826740D01*
X130927974Y-104762026D01*
X130863260Y-104708916D01*
X130826000Y-104689000D01*
X130826000Y-104099000D01*
X130863260Y-104079084D01*
X130927974Y-104025974D01*
X130981084Y-103961260D01*
X131020548Y-103887427D01*
X131044850Y-103807314D01*
X131053056Y-103724000D01*
X131053056Y-102524000D01*
X131044850Y-102440686D01*
X131020548Y-102360573D01*
X130981084Y-102286740D01*
X130936646Y-102232592D01*
X132159238Y-101010000D01*
X132906944Y-101010000D01*
X132915150Y-101093314D01*
X132939452Y-101173427D01*
X132978916Y-101247260D01*
X133032026Y-101311974D01*
X133096740Y-101365084D01*
X133170573Y-101404548D01*
X133250686Y-101428850D01*
X133334000Y-101437056D01*
X133875750Y-101435000D01*
X133982000Y-101328750D01*
X133982000Y-100562000D01*
X133015250Y-100562000D01*
X132909000Y-100668250D01*
X132906944Y-101010000D01*
X132159238Y-101010000D01*
X132815682Y-100353556D01*
X132908409Y-100353556D01*
X132909000Y-100451750D01*
X133015250Y-100558000D01*
X133982000Y-100558000D01*
X133982000Y-100538000D01*
X133986000Y-100538000D01*
X133986000Y-100558000D01*
X134006000Y-100558000D01*
X134006000Y-100562000D01*
X133986000Y-100562000D01*
X133986000Y-101328750D01*
X134092250Y-101435000D01*
X134634000Y-101437056D01*
X134717314Y-101428850D01*
X134797427Y-101404548D01*
X134871260Y-101365084D01*
X134935974Y-101311974D01*
X134988261Y-101248262D01*
X134987944Y-101301000D01*
X134996150Y-101384314D01*
X135020452Y-101464427D01*
X135059916Y-101538260D01*
X135113026Y-101602974D01*
X135177740Y-101656084D01*
X135251573Y-101695548D01*
X135331686Y-101719850D01*
X135415000Y-101728056D01*
X135781750Y-101726000D01*
X135888000Y-101619750D01*
X135888000Y-100853000D01*
X135892000Y-100853000D01*
X135892000Y-101619750D01*
X135998250Y-101726000D01*
X136365000Y-101728056D01*
X136448314Y-101719850D01*
X136528427Y-101695548D01*
X136602260Y-101656084D01*
X136666974Y-101602974D01*
X136720084Y-101538260D01*
X136759548Y-101464427D01*
X136783850Y-101384314D01*
X136792056Y-101301000D01*
X137019944Y-101301000D01*
X137028150Y-101384314D01*
X137052452Y-101464427D01*
X137091916Y-101538260D01*
X137145026Y-101602974D01*
X137209740Y-101656084D01*
X137283573Y-101695548D01*
X137363686Y-101719850D01*
X137447000Y-101728056D01*
X137813750Y-101726000D01*
X137920000Y-101619750D01*
X137920000Y-100853000D01*
X137924000Y-100853000D01*
X137924000Y-101619750D01*
X138030250Y-101726000D01*
X138397000Y-101728056D01*
X138480314Y-101719850D01*
X138560427Y-101695548D01*
X138634260Y-101656084D01*
X138698974Y-101602974D01*
X138728497Y-101567000D01*
X140841944Y-101567000D01*
X140850150Y-101650314D01*
X140874452Y-101730427D01*
X140913916Y-101804260D01*
X140967026Y-101868974D01*
X141031740Y-101922084D01*
X141105573Y-101961548D01*
X141185686Y-101985850D01*
X141269000Y-101994056D01*
X141560750Y-101992000D01*
X141667000Y-101885750D01*
X141667000Y-101094000D01*
X140950250Y-101094000D01*
X140844000Y-101200250D01*
X140841944Y-101567000D01*
X138728497Y-101567000D01*
X138752084Y-101538260D01*
X138791548Y-101464427D01*
X138815850Y-101384314D01*
X138824056Y-101301000D01*
X138822000Y-100959250D01*
X138715750Y-100853000D01*
X137924000Y-100853000D01*
X137920000Y-100853000D01*
X137128250Y-100853000D01*
X137022000Y-100959250D01*
X137019944Y-101301000D01*
X136792056Y-101301000D01*
X136790000Y-100959250D01*
X136683750Y-100853000D01*
X135892000Y-100853000D01*
X135888000Y-100853000D01*
X135868000Y-100853000D01*
X135868000Y-100849000D01*
X135888000Y-100849000D01*
X135888000Y-100829000D01*
X135892000Y-100829000D01*
X135892000Y-100849000D01*
X136683750Y-100849000D01*
X136790000Y-100742750D01*
X136792056Y-100401000D01*
X136783850Y-100317686D01*
X136759548Y-100237573D01*
X136720084Y-100163740D01*
X136666974Y-100099026D01*
X136602260Y-100045916D01*
X136558121Y-100022323D01*
X136601073Y-99987073D01*
X136682165Y-99888263D01*
X136742421Y-99775531D01*
X136779527Y-99653210D01*
X136792056Y-99526000D01*
X136792056Y-99076000D01*
X136779527Y-98948790D01*
X136742421Y-98826469D01*
X136682165Y-98713737D01*
X136601073Y-98614927D01*
X136502263Y-98533835D01*
X136389531Y-98473579D01*
X136267210Y-98436473D01*
X136140000Y-98423944D01*
X135791385Y-98423944D01*
X135776422Y-98419405D01*
X135680932Y-98410000D01*
X135680921Y-98410000D01*
X135649000Y-98406856D01*
X135617079Y-98410000D01*
X135009000Y-98410000D01*
X134989084Y-98372740D01*
X134937594Y-98310000D01*
X134989084Y-98247260D01*
X135009000Y-98210000D01*
X137168762Y-98210000D01*
X137272000Y-98313239D01*
X137272000Y-98564805D01*
X137210927Y-98614927D01*
X137129835Y-98713737D01*
X137069579Y-98826469D01*
X137032473Y-98948790D01*
X137019944Y-99076000D01*
X137019944Y-99526000D01*
X137032473Y-99653210D01*
X137069579Y-99775531D01*
X137129835Y-99888263D01*
X137210927Y-99987073D01*
X137253879Y-100022323D01*
X137209740Y-100045916D01*
X137145026Y-100099026D01*
X137091916Y-100163740D01*
X137052452Y-100237573D01*
X137028150Y-100317686D01*
X137019944Y-100401000D01*
X137022000Y-100742750D01*
X137128250Y-100849000D01*
X137920000Y-100849000D01*
X137920000Y-100829000D01*
X137924000Y-100829000D01*
X137924000Y-100849000D01*
X138715750Y-100849000D01*
X138822000Y-100742750D01*
X138822756Y-100617000D01*
X140841944Y-100617000D01*
X140844000Y-100983750D01*
X140950250Y-101090000D01*
X141667000Y-101090000D01*
X141667000Y-100298250D01*
X141560750Y-100192000D01*
X141269000Y-100189944D01*
X141185686Y-100198150D01*
X141105573Y-100222452D01*
X141031740Y-100261916D01*
X140967026Y-100315026D01*
X140913916Y-100379740D01*
X140874452Y-100453573D01*
X140850150Y-100533686D01*
X140841944Y-100617000D01*
X138822756Y-100617000D01*
X138824056Y-100401000D01*
X138815850Y-100317686D01*
X138791548Y-100237573D01*
X138752084Y-100163740D01*
X138698974Y-100099026D01*
X138634260Y-100045916D01*
X138590121Y-100022323D01*
X138633073Y-99987073D01*
X138714165Y-99888263D01*
X138774421Y-99775531D01*
X138811527Y-99653210D01*
X138824056Y-99526000D01*
X138824056Y-99076000D01*
X138811527Y-98948790D01*
X138774421Y-98826469D01*
X138714165Y-98713737D01*
X138633073Y-98614927D01*
X138572000Y-98564805D01*
X138572000Y-98075920D01*
X138575144Y-98043999D01*
X138572000Y-98012078D01*
X138572000Y-97719746D01*
X138630287Y-97695603D01*
X138765410Y-97605316D01*
X138880322Y-97490404D01*
X138970609Y-97355281D01*
X139032799Y-97205141D01*
X139064503Y-97045752D01*
X139064503Y-96883242D01*
X139032799Y-96723853D01*
X138970609Y-96573713D01*
X138880322Y-96438590D01*
X138765410Y-96323678D01*
X138630287Y-96233391D01*
X138480147Y-96171201D01*
X138320758Y-96139497D01*
X138158248Y-96139497D01*
X137998859Y-96171201D01*
X137848719Y-96233391D01*
X137713596Y-96323678D01*
X137598684Y-96438590D01*
X137508397Y-96573713D01*
X137446207Y-96723853D01*
X137416460Y-96873402D01*
X137386425Y-96910000D01*
X135009000Y-96910000D01*
X134989084Y-96872740D01*
X134935974Y-96808026D01*
X134871260Y-96754916D01*
X134797427Y-96715452D01*
X134717314Y-96691150D01*
X134634000Y-96682944D01*
X133725294Y-96682944D01*
X133772049Y-96636189D01*
X133796853Y-96615833D01*
X133878080Y-96516858D01*
X133938437Y-96403938D01*
X133975605Y-96281412D01*
X133985010Y-96185922D01*
X133985010Y-96185912D01*
X133988154Y-96153991D01*
X133985010Y-96122070D01*
X133985010Y-95663591D01*
X134061686Y-95686850D01*
X134145000Y-95695056D01*
X134511750Y-95693000D01*
X134618000Y-95586750D01*
X134618000Y-94870000D01*
X134598000Y-94870000D01*
X134598000Y-94866000D01*
X134618000Y-94866000D01*
X134618000Y-94846000D01*
X134622000Y-94846000D01*
X134622000Y-94866000D01*
X134642000Y-94866000D01*
X134642000Y-94870000D01*
X134622000Y-94870000D01*
X134622000Y-95586750D01*
X134728250Y-95693000D01*
X135095000Y-95695056D01*
X135178314Y-95686850D01*
X135258427Y-95662548D01*
X135332260Y-95623084D01*
X135396974Y-95569974D01*
X135450084Y-95505260D01*
X135489548Y-95431427D01*
X135513850Y-95351314D01*
X135522056Y-95268000D01*
X135521262Y-95155353D01*
X135536452Y-95205427D01*
X135575916Y-95279260D01*
X135629026Y-95343974D01*
X135693740Y-95397084D01*
X135767573Y-95436548D01*
X135847686Y-95460850D01*
X135931000Y-95469056D01*
X136797750Y-95467000D01*
X136904000Y-95360750D01*
X136904000Y-94744000D01*
X136908000Y-94744000D01*
X136908000Y-95360750D01*
X137014250Y-95467000D01*
X137881000Y-95469056D01*
X137964314Y-95460850D01*
X138044427Y-95436548D01*
X138118260Y-95397084D01*
X138182974Y-95343974D01*
X138236084Y-95279260D01*
X138275548Y-95205427D01*
X138299850Y-95125314D01*
X138308056Y-95042000D01*
X138306000Y-94850250D01*
X138199750Y-94744000D01*
X136908000Y-94744000D01*
X136904000Y-94744000D01*
X136884000Y-94744000D01*
X136884000Y-94740000D01*
X136904000Y-94740000D01*
X136904000Y-94720000D01*
X136908000Y-94720000D01*
X136908000Y-94740000D01*
X138199750Y-94740000D01*
X138306000Y-94633750D01*
X138306222Y-94613000D01*
X138524583Y-94613000D01*
X139658000Y-95746418D01*
G04 #@! TA.AperFunction,Conductor*
D22*
G36*
X139658000Y-95746418D02*
G01*
X139658000Y-96232956D01*
X139564604Y-96309604D01*
X139486622Y-96404626D01*
X139428676Y-96513036D01*
X139392993Y-96630667D01*
X139380944Y-96753000D01*
X139380944Y-97303000D01*
X139392993Y-97425333D01*
X139428676Y-97542964D01*
X139486622Y-97651374D01*
X139564604Y-97746396D01*
X139659626Y-97824378D01*
X139768036Y-97882324D01*
X139885667Y-97918007D01*
X140008000Y-97930056D01*
X140408000Y-97930056D01*
X140530333Y-97918007D01*
X140647964Y-97882324D01*
X140650392Y-97881026D01*
X140670728Y-97905804D01*
X140692200Y-97931968D01*
X140713186Y-97949191D01*
X141011809Y-98247814D01*
X141029032Y-98268800D01*
X141112780Y-98337531D01*
X141208328Y-98388602D01*
X141312003Y-98420052D01*
X141392804Y-98428010D01*
X141392813Y-98428010D01*
X141419821Y-98430670D01*
X141446829Y-98428010D01*
X144510693Y-98428010D01*
X144503622Y-98436626D01*
X144464403Y-98510000D01*
X143410007Y-98510000D01*
X143382999Y-98507340D01*
X143355991Y-98510000D01*
X143355982Y-98510000D01*
X143275181Y-98517958D01*
X143171506Y-98549408D01*
X143075958Y-98600479D01*
X143075956Y-98600480D01*
X143075957Y-98600480D01*
X143013195Y-98651987D01*
X143013190Y-98651992D01*
X142992210Y-98669210D01*
X142974992Y-98690190D01*
X142174181Y-99491002D01*
X142153201Y-99508220D01*
X142135983Y-99529200D01*
X142135977Y-99529206D01*
X142084469Y-99591968D01*
X142046039Y-99663868D01*
X142033399Y-99687516D01*
X142005831Y-99778396D01*
X142001949Y-99791192D01*
X141991330Y-99899010D01*
X141993991Y-99926028D01*
X141993991Y-100190473D01*
X141777250Y-100192000D01*
X141671000Y-100298250D01*
X141671000Y-101090000D01*
X141691000Y-101090000D01*
X141691000Y-101094000D01*
X141671000Y-101094000D01*
X141671000Y-101885750D01*
X141777250Y-101992000D01*
X141993991Y-101993527D01*
X141993990Y-104988982D01*
X141991330Y-105015990D01*
X141993990Y-105042998D01*
X141993990Y-105043007D01*
X142001948Y-105123808D01*
X142033398Y-105227483D01*
X142084469Y-105323032D01*
X142153200Y-105406780D01*
X142174186Y-105424003D01*
X142783987Y-106033804D01*
X142801210Y-106054790D01*
X142884958Y-106123521D01*
X142980506Y-106174592D01*
X143014944Y-106185039D01*
X143014944Y-106264000D01*
X143023150Y-106347314D01*
X143047452Y-106427427D01*
X143086916Y-106501260D01*
X143140026Y-106565974D01*
X143204740Y-106619084D01*
X143242000Y-106639000D01*
X143242000Y-106790761D01*
X142056962Y-107975800D01*
X142032157Y-107996157D01*
X142011802Y-108020960D01*
X141950930Y-108095132D01*
X141909467Y-108172704D01*
X141890573Y-108208053D01*
X141853405Y-108330579D01*
X141844000Y-108426069D01*
X141844000Y-108426079D01*
X141840856Y-108458000D01*
X141844000Y-108489922D01*
X141844001Y-111048944D01*
X140432000Y-111048944D01*
X140348686Y-111057150D01*
X140268573Y-111081452D01*
X140194740Y-111120916D01*
X140130026Y-111174026D01*
X140076916Y-111238740D01*
X140037452Y-111312573D01*
X140013150Y-111392686D01*
X140004944Y-111476000D01*
X140004944Y-113329817D01*
X139049762Y-114285000D01*
X135386541Y-114285000D01*
X135639624Y-114115895D01*
X135879895Y-113875624D01*
X136068676Y-113593094D01*
X136198710Y-113279164D01*
X136265000Y-112945898D01*
X136265000Y-112606102D01*
X136198710Y-112272836D01*
X136129497Y-112105741D01*
X136872044Y-111363195D01*
X136896844Y-111342842D01*
X136918459Y-111316505D01*
X136971396Y-111252000D01*
X136978071Y-111243867D01*
X137038428Y-111130947D01*
X137075596Y-111008421D01*
X137085001Y-110912931D01*
X137085001Y-110912921D01*
X137088145Y-110881000D01*
X137085001Y-110849079D01*
X137085001Y-106264000D01*
X137932944Y-106264000D01*
X137941150Y-106347314D01*
X137965452Y-106427427D01*
X138004916Y-106501260D01*
X138058026Y-106565974D01*
X138122740Y-106619084D01*
X138196573Y-106658548D01*
X138276686Y-106682850D01*
X138360000Y-106691056D01*
X138701750Y-106689000D01*
X138808000Y-106582750D01*
X138808000Y-105666000D01*
X138812000Y-105666000D01*
X138812000Y-106582750D01*
X138918250Y-106689000D01*
X139260000Y-106691056D01*
X139343314Y-106682850D01*
X139423427Y-106658548D01*
X139497260Y-106619084D01*
X139561974Y-106565974D01*
X139615084Y-106501260D01*
X139654548Y-106427427D01*
X139678850Y-106347314D01*
X139687056Y-106264000D01*
X139685000Y-105772250D01*
X139578750Y-105666000D01*
X138812000Y-105666000D01*
X138808000Y-105666000D01*
X138041250Y-105666000D01*
X137935000Y-105772250D01*
X137932944Y-106264000D01*
X137085001Y-106264000D01*
X137085001Y-105064000D01*
X137932944Y-105064000D01*
X137935000Y-105555750D01*
X138041250Y-105662000D01*
X138808000Y-105662000D01*
X138808000Y-104745250D01*
X138812000Y-104745250D01*
X138812000Y-105662000D01*
X139578750Y-105662000D01*
X139685000Y-105555750D01*
X139687056Y-105064000D01*
X139678850Y-104980686D01*
X139654548Y-104900573D01*
X139615084Y-104826740D01*
X139561974Y-104762026D01*
X139497260Y-104708916D01*
X139423427Y-104669452D01*
X139343314Y-104645150D01*
X139260000Y-104636944D01*
X138918250Y-104639000D01*
X138812000Y-104745250D01*
X138808000Y-104745250D01*
X138701750Y-104639000D01*
X138360000Y-104636944D01*
X138276686Y-104645150D01*
X138196573Y-104669452D01*
X138122740Y-104708916D01*
X138058026Y-104762026D01*
X138004916Y-104826740D01*
X137965452Y-104900573D01*
X137941150Y-104980686D01*
X137932944Y-105064000D01*
X137085001Y-105064000D01*
X137085001Y-104783912D01*
X137088145Y-104751991D01*
X137085001Y-104720069D01*
X137085001Y-104720059D01*
X137075596Y-104624569D01*
X137038428Y-104502043D01*
X137025555Y-104477959D01*
X136978071Y-104389122D01*
X136917199Y-104314950D01*
X136917197Y-104314948D01*
X136896844Y-104290148D01*
X136872045Y-104269796D01*
X136381604Y-103779355D01*
X136387056Y-103724000D01*
X137932944Y-103724000D01*
X137941150Y-103807314D01*
X137965452Y-103887427D01*
X138004916Y-103961260D01*
X138058026Y-104025974D01*
X138122740Y-104079084D01*
X138196573Y-104118548D01*
X138276686Y-104142850D01*
X138360000Y-104151056D01*
X138701750Y-104149000D01*
X138808000Y-104042750D01*
X138808000Y-103126000D01*
X138812000Y-103126000D01*
X138812000Y-104042750D01*
X138918250Y-104149000D01*
X139260000Y-104151056D01*
X139343314Y-104142850D01*
X139423427Y-104118548D01*
X139497260Y-104079084D01*
X139561974Y-104025974D01*
X139615084Y-103961260D01*
X139654548Y-103887427D01*
X139678850Y-103807314D01*
X139687056Y-103724000D01*
X139685000Y-103232250D01*
X139578750Y-103126000D01*
X138812000Y-103126000D01*
X138808000Y-103126000D01*
X138041250Y-103126000D01*
X137935000Y-103232250D01*
X137932944Y-103724000D01*
X136387056Y-103724000D01*
X136387056Y-102524000D01*
X137932944Y-102524000D01*
X137935000Y-103015750D01*
X138041250Y-103122000D01*
X138808000Y-103122000D01*
X138808000Y-102205250D01*
X138812000Y-102205250D01*
X138812000Y-103122000D01*
X139578750Y-103122000D01*
X139685000Y-103015750D01*
X139687056Y-102524000D01*
X139678850Y-102440686D01*
X139654548Y-102360573D01*
X139615084Y-102286740D01*
X139561974Y-102222026D01*
X139497260Y-102168916D01*
X139423427Y-102129452D01*
X139343314Y-102105150D01*
X139260000Y-102096944D01*
X138918250Y-102099000D01*
X138812000Y-102205250D01*
X138808000Y-102205250D01*
X138701750Y-102099000D01*
X138360000Y-102096944D01*
X138276686Y-102105150D01*
X138196573Y-102129452D01*
X138122740Y-102168916D01*
X138058026Y-102222026D01*
X138004916Y-102286740D01*
X137965452Y-102360573D01*
X137941150Y-102440686D01*
X137932944Y-102524000D01*
X136387056Y-102524000D01*
X136378850Y-102440686D01*
X136354548Y-102360573D01*
X136315084Y-102286740D01*
X136261974Y-102222026D01*
X136197260Y-102168916D01*
X136123427Y-102129452D01*
X136043314Y-102105150D01*
X135960000Y-102096944D01*
X135060000Y-102096944D01*
X134976686Y-102105150D01*
X134896573Y-102129452D01*
X134822740Y-102168916D01*
X134758026Y-102222026D01*
X134704916Y-102286740D01*
X134665452Y-102360573D01*
X134641150Y-102440686D01*
X134637869Y-102474000D01*
X134348131Y-102474000D01*
X134344850Y-102440686D01*
X134320548Y-102360573D01*
X134281084Y-102286740D01*
X134227974Y-102222026D01*
X134163260Y-102168916D01*
X134089427Y-102129452D01*
X134009314Y-102105150D01*
X133926000Y-102096944D01*
X133026000Y-102096944D01*
X132942686Y-102105150D01*
X132862573Y-102129452D01*
X132788740Y-102168916D01*
X132724026Y-102222026D01*
X132670916Y-102286740D01*
X132631452Y-102360573D01*
X132607150Y-102440686D01*
X132598944Y-102524000D01*
X132598944Y-103724000D01*
X132607150Y-103807314D01*
X132631452Y-103887427D01*
X132670916Y-103961260D01*
X132724026Y-104025974D01*
X132788740Y-104079084D01*
X132862573Y-104118548D01*
X132942686Y-104142850D01*
X133026000Y-104151056D01*
X133926000Y-104151056D01*
X134009314Y-104142850D01*
X134089427Y-104118548D01*
X134163260Y-104079084D01*
X134227974Y-104025974D01*
X134281084Y-103961260D01*
X134320548Y-103887427D01*
X134344850Y-103807314D01*
X134348131Y-103774000D01*
X134637869Y-103774000D01*
X134641150Y-103807314D01*
X134665452Y-103887427D01*
X134704916Y-103961260D01*
X134758026Y-104025974D01*
X134822740Y-104079084D01*
X134896573Y-104118548D01*
X134935054Y-104130221D01*
X134966930Y-104189858D01*
X135027802Y-104264030D01*
X135027805Y-104264033D01*
X135048158Y-104288833D01*
X135072957Y-104309185D01*
X135400716Y-104636944D01*
X135060000Y-104636944D01*
X134976686Y-104645150D01*
X134896573Y-104669452D01*
X134822740Y-104708916D01*
X134758026Y-104762026D01*
X134704916Y-104826740D01*
X134665452Y-104900573D01*
X134641150Y-104980686D01*
X134637869Y-105014000D01*
X134348131Y-105014000D01*
X134344850Y-104980686D01*
X134320548Y-104900573D01*
X134281084Y-104826740D01*
X134227974Y-104762026D01*
X134163260Y-104708916D01*
X134089427Y-104669452D01*
X134009314Y-104645150D01*
X133926000Y-104636944D01*
X133026000Y-104636944D01*
X132942686Y-104645150D01*
X132862573Y-104669452D01*
X132788740Y-104708916D01*
X132724026Y-104762026D01*
X132670916Y-104826740D01*
X132631452Y-104900573D01*
X132607150Y-104980686D01*
X132598944Y-105064000D01*
X132598944Y-106264000D01*
X132607150Y-106347314D01*
X132631452Y-106427427D01*
X132670916Y-106501260D01*
X132724026Y-106565974D01*
X132788740Y-106619084D01*
X132826000Y-106639000D01*
X132826001Y-109713760D01*
X132699762Y-109840000D01*
X130841920Y-109840000D01*
X130809999Y-109836856D01*
X130778078Y-109840000D01*
X130778068Y-109840000D01*
X130682578Y-109849405D01*
X130560052Y-109886573D01*
X130447132Y-109946930D01*
X130447130Y-109946931D01*
X130447131Y-109946931D01*
X130372959Y-110007802D01*
X130372957Y-110007804D01*
X130348157Y-110028157D01*
X130327804Y-110052957D01*
X129864962Y-110515800D01*
X129840157Y-110536157D01*
X129819802Y-110560960D01*
X129758930Y-110635132D01*
X129743194Y-110664573D01*
X129698573Y-110748053D01*
X129661405Y-110870579D01*
X129652000Y-110966069D01*
X129652000Y-110966079D01*
X129648856Y-110998000D01*
X129652000Y-111029922D01*
X129652000Y-111048944D01*
X128413510Y-111048944D01*
X128412000Y-111033618D01*
X128412000Y-109616238D01*
X130613043Y-107415196D01*
X130637843Y-107394843D01*
X130658196Y-107370043D01*
X130658199Y-107370040D01*
X130719070Y-107295868D01*
X130779427Y-107182948D01*
X130816595Y-107060422D01*
X130819686Y-107029041D01*
X130826000Y-106964932D01*
X130826000Y-106964924D01*
X130829144Y-106933000D01*
X130826000Y-106901076D01*
X130826000Y-106639000D01*
X130863260Y-106619084D01*
X130927974Y-106565974D01*
X130981084Y-106501260D01*
X131020548Y-106427427D01*
X131044850Y-106347314D01*
X131053056Y-106264000D01*
X131053056Y-105064000D01*
X131044850Y-104980686D01*
X131020548Y-104900573D01*
X130981084Y-104826740D01*
X130927974Y-104762026D01*
X130863260Y-104708916D01*
X130826000Y-104689000D01*
X130826000Y-104099000D01*
X130863260Y-104079084D01*
X130927974Y-104025974D01*
X130981084Y-103961260D01*
X131020548Y-103887427D01*
X131044850Y-103807314D01*
X131053056Y-103724000D01*
X131053056Y-102524000D01*
X131044850Y-102440686D01*
X131020548Y-102360573D01*
X130981084Y-102286740D01*
X130936646Y-102232592D01*
X132159238Y-101010000D01*
X132906944Y-101010000D01*
X132915150Y-101093314D01*
X132939452Y-101173427D01*
X132978916Y-101247260D01*
X133032026Y-101311974D01*
X133096740Y-101365084D01*
X133170573Y-101404548D01*
X133250686Y-101428850D01*
X133334000Y-101437056D01*
X133875750Y-101435000D01*
X133982000Y-101328750D01*
X133982000Y-100562000D01*
X133015250Y-100562000D01*
X132909000Y-100668250D01*
X132906944Y-101010000D01*
X132159238Y-101010000D01*
X132815682Y-100353556D01*
X132908409Y-100353556D01*
X132909000Y-100451750D01*
X133015250Y-100558000D01*
X133982000Y-100558000D01*
X133982000Y-100538000D01*
X133986000Y-100538000D01*
X133986000Y-100558000D01*
X134006000Y-100558000D01*
X134006000Y-100562000D01*
X133986000Y-100562000D01*
X133986000Y-101328750D01*
X134092250Y-101435000D01*
X134634000Y-101437056D01*
X134717314Y-101428850D01*
X134797427Y-101404548D01*
X134871260Y-101365084D01*
X134935974Y-101311974D01*
X134988261Y-101248262D01*
X134987944Y-101301000D01*
X134996150Y-101384314D01*
X135020452Y-101464427D01*
X135059916Y-101538260D01*
X135113026Y-101602974D01*
X135177740Y-101656084D01*
X135251573Y-101695548D01*
X135331686Y-101719850D01*
X135415000Y-101728056D01*
X135781750Y-101726000D01*
X135888000Y-101619750D01*
X135888000Y-100853000D01*
X135892000Y-100853000D01*
X135892000Y-101619750D01*
X135998250Y-101726000D01*
X136365000Y-101728056D01*
X136448314Y-101719850D01*
X136528427Y-101695548D01*
X136602260Y-101656084D01*
X136666974Y-101602974D01*
X136720084Y-101538260D01*
X136759548Y-101464427D01*
X136783850Y-101384314D01*
X136792056Y-101301000D01*
X137019944Y-101301000D01*
X137028150Y-101384314D01*
X137052452Y-101464427D01*
X137091916Y-101538260D01*
X137145026Y-101602974D01*
X137209740Y-101656084D01*
X137283573Y-101695548D01*
X137363686Y-101719850D01*
X137447000Y-101728056D01*
X137813750Y-101726000D01*
X137920000Y-101619750D01*
X137920000Y-100853000D01*
X137924000Y-100853000D01*
X137924000Y-101619750D01*
X138030250Y-101726000D01*
X138397000Y-101728056D01*
X138480314Y-101719850D01*
X138560427Y-101695548D01*
X138634260Y-101656084D01*
X138698974Y-101602974D01*
X138728497Y-101567000D01*
X140841944Y-101567000D01*
X140850150Y-101650314D01*
X140874452Y-101730427D01*
X140913916Y-101804260D01*
X140967026Y-101868974D01*
X141031740Y-101922084D01*
X141105573Y-101961548D01*
X141185686Y-101985850D01*
X141269000Y-101994056D01*
X141560750Y-101992000D01*
X141667000Y-101885750D01*
X141667000Y-101094000D01*
X140950250Y-101094000D01*
X140844000Y-101200250D01*
X140841944Y-101567000D01*
X138728497Y-101567000D01*
X138752084Y-101538260D01*
X138791548Y-101464427D01*
X138815850Y-101384314D01*
X138824056Y-101301000D01*
X138822000Y-100959250D01*
X138715750Y-100853000D01*
X137924000Y-100853000D01*
X137920000Y-100853000D01*
X137128250Y-100853000D01*
X137022000Y-100959250D01*
X137019944Y-101301000D01*
X136792056Y-101301000D01*
X136790000Y-100959250D01*
X136683750Y-100853000D01*
X135892000Y-100853000D01*
X135888000Y-100853000D01*
X135868000Y-100853000D01*
X135868000Y-100849000D01*
X135888000Y-100849000D01*
X135888000Y-100829000D01*
X135892000Y-100829000D01*
X135892000Y-100849000D01*
X136683750Y-100849000D01*
X136790000Y-100742750D01*
X136792056Y-100401000D01*
X136783850Y-100317686D01*
X136759548Y-100237573D01*
X136720084Y-100163740D01*
X136666974Y-100099026D01*
X136602260Y-100045916D01*
X136558121Y-100022323D01*
X136601073Y-99987073D01*
X136682165Y-99888263D01*
X136742421Y-99775531D01*
X136779527Y-99653210D01*
X136792056Y-99526000D01*
X136792056Y-99076000D01*
X136779527Y-98948790D01*
X136742421Y-98826469D01*
X136682165Y-98713737D01*
X136601073Y-98614927D01*
X136502263Y-98533835D01*
X136389531Y-98473579D01*
X136267210Y-98436473D01*
X136140000Y-98423944D01*
X135791385Y-98423944D01*
X135776422Y-98419405D01*
X135680932Y-98410000D01*
X135680921Y-98410000D01*
X135649000Y-98406856D01*
X135617079Y-98410000D01*
X135009000Y-98410000D01*
X134989084Y-98372740D01*
X134937594Y-98310000D01*
X134989084Y-98247260D01*
X135009000Y-98210000D01*
X137168762Y-98210000D01*
X137272000Y-98313239D01*
X137272000Y-98564805D01*
X137210927Y-98614927D01*
X137129835Y-98713737D01*
X137069579Y-98826469D01*
X137032473Y-98948790D01*
X137019944Y-99076000D01*
X137019944Y-99526000D01*
X137032473Y-99653210D01*
X137069579Y-99775531D01*
X137129835Y-99888263D01*
X137210927Y-99987073D01*
X137253879Y-100022323D01*
X137209740Y-100045916D01*
X137145026Y-100099026D01*
X137091916Y-100163740D01*
X137052452Y-100237573D01*
X137028150Y-100317686D01*
X137019944Y-100401000D01*
X137022000Y-100742750D01*
X137128250Y-100849000D01*
X137920000Y-100849000D01*
X137920000Y-100829000D01*
X137924000Y-100829000D01*
X137924000Y-100849000D01*
X138715750Y-100849000D01*
X138822000Y-100742750D01*
X138822756Y-100617000D01*
X140841944Y-100617000D01*
X140844000Y-100983750D01*
X140950250Y-101090000D01*
X141667000Y-101090000D01*
X141667000Y-100298250D01*
X141560750Y-100192000D01*
X141269000Y-100189944D01*
X141185686Y-100198150D01*
X141105573Y-100222452D01*
X141031740Y-100261916D01*
X140967026Y-100315026D01*
X140913916Y-100379740D01*
X140874452Y-100453573D01*
X140850150Y-100533686D01*
X140841944Y-100617000D01*
X138822756Y-100617000D01*
X138824056Y-100401000D01*
X138815850Y-100317686D01*
X138791548Y-100237573D01*
X138752084Y-100163740D01*
X138698974Y-100099026D01*
X138634260Y-100045916D01*
X138590121Y-100022323D01*
X138633073Y-99987073D01*
X138714165Y-99888263D01*
X138774421Y-99775531D01*
X138811527Y-99653210D01*
X138824056Y-99526000D01*
X138824056Y-99076000D01*
X138811527Y-98948790D01*
X138774421Y-98826469D01*
X138714165Y-98713737D01*
X138633073Y-98614927D01*
X138572000Y-98564805D01*
X138572000Y-98075920D01*
X138575144Y-98043999D01*
X138572000Y-98012078D01*
X138572000Y-97719746D01*
X138630287Y-97695603D01*
X138765410Y-97605316D01*
X138880322Y-97490404D01*
X138970609Y-97355281D01*
X139032799Y-97205141D01*
X139064503Y-97045752D01*
X139064503Y-96883242D01*
X139032799Y-96723853D01*
X138970609Y-96573713D01*
X138880322Y-96438590D01*
X138765410Y-96323678D01*
X138630287Y-96233391D01*
X138480147Y-96171201D01*
X138320758Y-96139497D01*
X138158248Y-96139497D01*
X137998859Y-96171201D01*
X137848719Y-96233391D01*
X137713596Y-96323678D01*
X137598684Y-96438590D01*
X137508397Y-96573713D01*
X137446207Y-96723853D01*
X137416460Y-96873402D01*
X137386425Y-96910000D01*
X135009000Y-96910000D01*
X134989084Y-96872740D01*
X134935974Y-96808026D01*
X134871260Y-96754916D01*
X134797427Y-96715452D01*
X134717314Y-96691150D01*
X134634000Y-96682944D01*
X133725294Y-96682944D01*
X133772049Y-96636189D01*
X133796853Y-96615833D01*
X133878080Y-96516858D01*
X133938437Y-96403938D01*
X133975605Y-96281412D01*
X133985010Y-96185922D01*
X133985010Y-96185912D01*
X133988154Y-96153991D01*
X133985010Y-96122070D01*
X133985010Y-95663591D01*
X134061686Y-95686850D01*
X134145000Y-95695056D01*
X134511750Y-95693000D01*
X134618000Y-95586750D01*
X134618000Y-94870000D01*
X134598000Y-94870000D01*
X134598000Y-94866000D01*
X134618000Y-94866000D01*
X134618000Y-94846000D01*
X134622000Y-94846000D01*
X134622000Y-94866000D01*
X134642000Y-94866000D01*
X134642000Y-94870000D01*
X134622000Y-94870000D01*
X134622000Y-95586750D01*
X134728250Y-95693000D01*
X135095000Y-95695056D01*
X135178314Y-95686850D01*
X135258427Y-95662548D01*
X135332260Y-95623084D01*
X135396974Y-95569974D01*
X135450084Y-95505260D01*
X135489548Y-95431427D01*
X135513850Y-95351314D01*
X135522056Y-95268000D01*
X135521262Y-95155353D01*
X135536452Y-95205427D01*
X135575916Y-95279260D01*
X135629026Y-95343974D01*
X135693740Y-95397084D01*
X135767573Y-95436548D01*
X135847686Y-95460850D01*
X135931000Y-95469056D01*
X136797750Y-95467000D01*
X136904000Y-95360750D01*
X136904000Y-94744000D01*
X136908000Y-94744000D01*
X136908000Y-95360750D01*
X137014250Y-95467000D01*
X137881000Y-95469056D01*
X137964314Y-95460850D01*
X138044427Y-95436548D01*
X138118260Y-95397084D01*
X138182974Y-95343974D01*
X138236084Y-95279260D01*
X138275548Y-95205427D01*
X138299850Y-95125314D01*
X138308056Y-95042000D01*
X138306000Y-94850250D01*
X138199750Y-94744000D01*
X136908000Y-94744000D01*
X136904000Y-94744000D01*
X136884000Y-94744000D01*
X136884000Y-94740000D01*
X136904000Y-94740000D01*
X136904000Y-94720000D01*
X136908000Y-94720000D01*
X136908000Y-94740000D01*
X138199750Y-94740000D01*
X138306000Y-94633750D01*
X138306222Y-94613000D01*
X138524583Y-94613000D01*
X139658000Y-95746418D01*
G37*
G04 #@! TD.AperFunction*
D20*
X135504812Y-94961062D02*
X135413752Y-94870002D01*
X135505788Y-94870002D01*
X135504812Y-94961062D01*
G04 #@! TA.AperFunction,Conductor*
D22*
G36*
X135504812Y-94961062D02*
G01*
X135413752Y-94870002D01*
X135505788Y-94870002D01*
X135504812Y-94961062D01*
G37*
G04 #@! TD.AperFunction*
D20*
X135506000Y-94850250D02*
X135505831Y-94865998D01*
X135413752Y-94865998D01*
X135520000Y-94759750D01*
X135520111Y-94744002D01*
X135612248Y-94744002D01*
X135506000Y-94850250D01*
G04 #@! TA.AperFunction,Conductor*
D22*
G36*
X135506000Y-94850250D02*
G01*
X135505831Y-94865998D01*
X135413752Y-94865998D01*
X135520000Y-94759750D01*
X135520111Y-94744002D01*
X135612248Y-94744002D01*
X135506000Y-94850250D01*
G37*
G04 #@! TD.AperFunction*
D20*
X135612248Y-94739998D02*
X135520139Y-94739998D01*
X135520784Y-94648534D01*
X135612248Y-94739998D01*
G04 #@! TA.AperFunction,Conductor*
D22*
G36*
X135612248Y-94739998D02*
G01*
X135520139Y-94739998D01*
X135520784Y-94648534D01*
X135612248Y-94739998D01*
G37*
G04 #@! TD.AperFunction*
M02*
