%TF.GenerationSoftware,KiCad,Pcbnew,(5.1.9)-1*%
%TF.CreationDate,2021-04-28T15:15:37+02:00*%
%TF.ProjectId,OpenThermMonitorTwomes,4f70656e-5468-4657-926d-4d6f6e69746f,rev?*%
%TF.SameCoordinates,Original*%
%TF.FileFunction,Legend,Bot*%
%TF.FilePolarity,Positive*%
%FSLAX46Y46*%
G04 Gerber Fmt 4.6, Leading zero omitted, Abs format (unit mm)*
G04 Created by KiCad (PCBNEW (5.1.9)-1) date 2021-04-28 15:15:37*
%MOMM*%
%LPD*%
G01*
G04 APERTURE LIST*
%ADD10C,0.300000*%
G04 APERTURE END LIST*
D10*
X132921142Y-102697571D02*
X131992571Y-102697571D01*
X132492571Y-103269000D01*
X132278285Y-103269000D01*
X132135428Y-103340428D01*
X132064000Y-103411857D01*
X131992571Y-103554714D01*
X131992571Y-103911857D01*
X132064000Y-104054714D01*
X132135428Y-104126142D01*
X132278285Y-104197571D01*
X132706857Y-104197571D01*
X132849714Y-104126142D01*
X132921142Y-104054714D01*
X131564000Y-102697571D02*
X131064000Y-104197571D01*
X130564000Y-102697571D01*
X130206857Y-102697571D02*
X129278285Y-102697571D01*
X129778285Y-103269000D01*
X129564000Y-103269000D01*
X129421142Y-103340428D01*
X129349714Y-103411857D01*
X129278285Y-103554714D01*
X129278285Y-103911857D01*
X129349714Y-104054714D01*
X129421142Y-104126142D01*
X129564000Y-104197571D01*
X129992571Y-104197571D01*
X130135428Y-104126142D01*
X130206857Y-104054714D01*
X131889142Y-101697571D02*
X131889142Y-100197571D01*
X131532000Y-100197571D01*
X131317714Y-100269000D01*
X131174857Y-100411857D01*
X131103428Y-100554714D01*
X131032000Y-100840428D01*
X131032000Y-101054714D01*
X131103428Y-101340428D01*
X131174857Y-101483285D01*
X131317714Y-101626142D01*
X131532000Y-101697571D01*
X131889142Y-101697571D01*
X130174857Y-100840428D02*
X130317714Y-100769000D01*
X130389142Y-100697571D01*
X130460571Y-100554714D01*
X130460571Y-100483285D01*
X130389142Y-100340428D01*
X130317714Y-100269000D01*
X130174857Y-100197571D01*
X129889142Y-100197571D01*
X129746285Y-100269000D01*
X129674857Y-100340428D01*
X129603428Y-100483285D01*
X129603428Y-100554714D01*
X129674857Y-100697571D01*
X129746285Y-100769000D01*
X129889142Y-100840428D01*
X130174857Y-100840428D01*
X130317714Y-100911857D01*
X130389142Y-100983285D01*
X130460571Y-101126142D01*
X130460571Y-101411857D01*
X130389142Y-101554714D01*
X130317714Y-101626142D01*
X130174857Y-101697571D01*
X129889142Y-101697571D01*
X129746285Y-101626142D01*
X129674857Y-101554714D01*
X129603428Y-101411857D01*
X129603428Y-101126142D01*
X129674857Y-100983285D01*
X129746285Y-100911857D01*
X129889142Y-100840428D01*
X131889142Y-99097571D02*
X131889142Y-97597571D01*
X131532000Y-97597571D01*
X131317714Y-97669000D01*
X131174857Y-97811857D01*
X131103428Y-97954714D01*
X131032000Y-98240428D01*
X131032000Y-98454714D01*
X131103428Y-98740428D01*
X131174857Y-98883285D01*
X131317714Y-99026142D01*
X131532000Y-99097571D01*
X131889142Y-99097571D01*
X130532000Y-97597571D02*
X129532000Y-97597571D01*
X130174857Y-99097571D01*
X131889142Y-96697571D02*
X131889142Y-95197571D01*
X131532000Y-95197571D01*
X131317714Y-95269000D01*
X131174857Y-95411857D01*
X131103428Y-95554714D01*
X131032000Y-95840428D01*
X131032000Y-96054714D01*
X131103428Y-96340428D01*
X131174857Y-96483285D01*
X131317714Y-96626142D01*
X131532000Y-96697571D01*
X131889142Y-96697571D01*
X129746285Y-95197571D02*
X130032000Y-95197571D01*
X130174857Y-95269000D01*
X130246285Y-95340428D01*
X130389142Y-95554714D01*
X130460571Y-95840428D01*
X130460571Y-96411857D01*
X130389142Y-96554714D01*
X130317714Y-96626142D01*
X130174857Y-96697571D01*
X129889142Y-96697571D01*
X129746285Y-96626142D01*
X129674857Y-96554714D01*
X129603428Y-96411857D01*
X129603428Y-96054714D01*
X129674857Y-95911857D01*
X129746285Y-95840428D01*
X129889142Y-95769000D01*
X130174857Y-95769000D01*
X130317714Y-95840428D01*
X130389142Y-95911857D01*
X130460571Y-96054714D01*
X131889142Y-94197571D02*
X131889142Y-92697571D01*
X131532000Y-92697571D01*
X131317714Y-92769000D01*
X131174857Y-92911857D01*
X131103428Y-93054714D01*
X131032000Y-93340428D01*
X131032000Y-93554714D01*
X131103428Y-93840428D01*
X131174857Y-93983285D01*
X131317714Y-94126142D01*
X131532000Y-94197571D01*
X131889142Y-94197571D01*
X129674857Y-92697571D02*
X130389142Y-92697571D01*
X130460571Y-93411857D01*
X130389142Y-93340428D01*
X130246285Y-93269000D01*
X129889142Y-93269000D01*
X129746285Y-93340428D01*
X129674857Y-93411857D01*
X129603428Y-93554714D01*
X129603428Y-93911857D01*
X129674857Y-94054714D01*
X129746285Y-94126142D01*
X129889142Y-94197571D01*
X130246285Y-94197571D01*
X130389142Y-94126142D01*
X130460571Y-94054714D01*
X131889142Y-91597571D02*
X131889142Y-90097571D01*
X131532000Y-90097571D01*
X131317714Y-90169000D01*
X131174857Y-90311857D01*
X131103428Y-90454714D01*
X131032000Y-90740428D01*
X131032000Y-90954714D01*
X131103428Y-91240428D01*
X131174857Y-91383285D01*
X131317714Y-91526142D01*
X131532000Y-91597571D01*
X131889142Y-91597571D01*
X130103428Y-90097571D02*
X129960571Y-90097571D01*
X129817714Y-90169000D01*
X129746285Y-90240428D01*
X129674857Y-90383285D01*
X129603428Y-90669000D01*
X129603428Y-91026142D01*
X129674857Y-91311857D01*
X129746285Y-91454714D01*
X129817714Y-91526142D01*
X129960571Y-91597571D01*
X130103428Y-91597571D01*
X130246285Y-91526142D01*
X130317714Y-91454714D01*
X130389142Y-91311857D01*
X130460571Y-91026142D01*
X130460571Y-90669000D01*
X130389142Y-90383285D01*
X130317714Y-90240428D01*
X130246285Y-90169000D01*
X130103428Y-90097571D01*
X131853428Y-88569000D02*
X131139142Y-88569000D01*
X131996285Y-88997571D02*
X131496285Y-87497571D01*
X130996285Y-88997571D01*
X130210571Y-87497571D02*
X130067714Y-87497571D01*
X129924857Y-87569000D01*
X129853428Y-87640428D01*
X129782000Y-87783285D01*
X129710571Y-88069000D01*
X129710571Y-88426142D01*
X129782000Y-88711857D01*
X129853428Y-88854714D01*
X129924857Y-88926142D01*
X130067714Y-88997571D01*
X130210571Y-88997571D01*
X130353428Y-88926142D01*
X130424857Y-88854714D01*
X130496285Y-88711857D01*
X130567714Y-88426142D01*
X130567714Y-88069000D01*
X130496285Y-87783285D01*
X130424857Y-87640428D01*
X130353428Y-87569000D01*
X130210571Y-87497571D01*
X131889428Y-86397571D02*
X132389428Y-85683285D01*
X132746571Y-86397571D02*
X132746571Y-84897571D01*
X132175142Y-84897571D01*
X132032285Y-84969000D01*
X131960857Y-85040428D01*
X131889428Y-85183285D01*
X131889428Y-85397571D01*
X131960857Y-85540428D01*
X132032285Y-85611857D01*
X132175142Y-85683285D01*
X132746571Y-85683285D01*
X131318000Y-86326142D02*
X131175142Y-86397571D01*
X130889428Y-86397571D01*
X130746571Y-86326142D01*
X130675142Y-86183285D01*
X130675142Y-86111857D01*
X130746571Y-85969000D01*
X130889428Y-85897571D01*
X131103714Y-85897571D01*
X131246571Y-85826142D01*
X131318000Y-85683285D01*
X131318000Y-85611857D01*
X131246571Y-85469000D01*
X131103714Y-85397571D01*
X130889428Y-85397571D01*
X130746571Y-85469000D01*
X130246571Y-85397571D02*
X129675142Y-85397571D01*
X130032285Y-84897571D02*
X130032285Y-86183285D01*
X129960857Y-86326142D01*
X129818000Y-86397571D01*
X129675142Y-86397571D01*
X147557714Y-102797571D02*
X148272000Y-102797571D01*
X148343428Y-103511857D01*
X148272000Y-103440428D01*
X148129142Y-103369000D01*
X147772000Y-103369000D01*
X147629142Y-103440428D01*
X147557714Y-103511857D01*
X147486285Y-103654714D01*
X147486285Y-104011857D01*
X147557714Y-104154714D01*
X147629142Y-104226142D01*
X147772000Y-104297571D01*
X148129142Y-104297571D01*
X148272000Y-104226142D01*
X148343428Y-104154714D01*
X147057714Y-102797571D02*
X146557714Y-104297571D01*
X146057714Y-102797571D01*
X147914857Y-100369000D02*
X148057714Y-100297571D01*
X148272000Y-100297571D01*
X148486285Y-100369000D01*
X148629142Y-100511857D01*
X148700571Y-100654714D01*
X148772000Y-100940428D01*
X148772000Y-101154714D01*
X148700571Y-101440428D01*
X148629142Y-101583285D01*
X148486285Y-101726142D01*
X148272000Y-101797571D01*
X148129142Y-101797571D01*
X147914857Y-101726142D01*
X147843428Y-101654714D01*
X147843428Y-101154714D01*
X148129142Y-101154714D01*
X147200571Y-101797571D02*
X147200571Y-100297571D01*
X146343428Y-101797571D01*
X146343428Y-100297571D01*
X145629142Y-101797571D02*
X145629142Y-100297571D01*
X145272000Y-100297571D01*
X145057714Y-100369000D01*
X144914857Y-100511857D01*
X144843428Y-100654714D01*
X144772000Y-100940428D01*
X144772000Y-101154714D01*
X144843428Y-101440428D01*
X144914857Y-101583285D01*
X145057714Y-101726142D01*
X145272000Y-101797571D01*
X145629142Y-101797571D01*
X148479142Y-99297571D02*
X148479142Y-97797571D01*
X148122000Y-97797571D01*
X147907714Y-97869000D01*
X147764857Y-98011857D01*
X147693428Y-98154714D01*
X147622000Y-98440428D01*
X147622000Y-98654714D01*
X147693428Y-98940428D01*
X147764857Y-99083285D01*
X147907714Y-99226142D01*
X148122000Y-99297571D01*
X148479142Y-99297571D01*
X146336285Y-98297571D02*
X146336285Y-99297571D01*
X146693428Y-97726142D02*
X147050571Y-98797571D01*
X146122000Y-98797571D01*
X148479142Y-96697571D02*
X148479142Y-95197571D01*
X148122000Y-95197571D01*
X147907714Y-95269000D01*
X147764857Y-95411857D01*
X147693428Y-95554714D01*
X147622000Y-95840428D01*
X147622000Y-96054714D01*
X147693428Y-96340428D01*
X147764857Y-96483285D01*
X147907714Y-96626142D01*
X148122000Y-96697571D01*
X148479142Y-96697571D01*
X147122000Y-95197571D02*
X146193428Y-95197571D01*
X146693428Y-95769000D01*
X146479142Y-95769000D01*
X146336285Y-95840428D01*
X146264857Y-95911857D01*
X146193428Y-96054714D01*
X146193428Y-96411857D01*
X146264857Y-96554714D01*
X146336285Y-96626142D01*
X146479142Y-96697571D01*
X146907714Y-96697571D01*
X147050571Y-96626142D01*
X147122000Y-96554714D01*
X148479142Y-94097571D02*
X148479142Y-92597571D01*
X148122000Y-92597571D01*
X147907714Y-92669000D01*
X147764857Y-92811857D01*
X147693428Y-92954714D01*
X147622000Y-93240428D01*
X147622000Y-93454714D01*
X147693428Y-93740428D01*
X147764857Y-93883285D01*
X147907714Y-94026142D01*
X148122000Y-94097571D01*
X148479142Y-94097571D01*
X147050571Y-92740428D02*
X146979142Y-92669000D01*
X146836285Y-92597571D01*
X146479142Y-92597571D01*
X146336285Y-92669000D01*
X146264857Y-92740428D01*
X146193428Y-92883285D01*
X146193428Y-93026142D01*
X146264857Y-93240428D01*
X147122000Y-94097571D01*
X146193428Y-94097571D01*
X148479142Y-91497571D02*
X148479142Y-89997571D01*
X148122000Y-89997571D01*
X147907714Y-90069000D01*
X147764857Y-90211857D01*
X147693428Y-90354714D01*
X147622000Y-90640428D01*
X147622000Y-90854714D01*
X147693428Y-91140428D01*
X147764857Y-91283285D01*
X147907714Y-91426142D01*
X148122000Y-91497571D01*
X148479142Y-91497571D01*
X146193428Y-91497571D02*
X147050571Y-91497571D01*
X146622000Y-91497571D02*
X146622000Y-89997571D01*
X146764857Y-90211857D01*
X146907714Y-90354714D01*
X147050571Y-90426142D01*
X147622000Y-89097571D02*
X148122000Y-88383285D01*
X148479142Y-89097571D02*
X148479142Y-87597571D01*
X147907714Y-87597571D01*
X147764857Y-87669000D01*
X147693428Y-87740428D01*
X147622000Y-87883285D01*
X147622000Y-88097571D01*
X147693428Y-88240428D01*
X147764857Y-88311857D01*
X147907714Y-88383285D01*
X148479142Y-88383285D01*
X147122000Y-87597571D02*
X146122000Y-89097571D01*
X146122000Y-87597571D02*
X147122000Y-89097571D01*
X148314857Y-84997571D02*
X147457714Y-84997571D01*
X147886285Y-86497571D02*
X147886285Y-84997571D01*
X147100571Y-84997571D02*
X146100571Y-86497571D01*
X146100571Y-84997571D02*
X147100571Y-86497571D01*
M02*
