G04 #@! TF.GenerationSoftware,KiCad,Pcbnew,(5.1.9)-1*
G04 #@! TF.CreationDate,2021-07-08T21:32:50+02:00*
G04 #@! TF.ProjectId,OpenThermMonitorTwomes,4f70656e-5468-4657-926d-4d6f6e69746f,rev?*
G04 #@! TF.SameCoordinates,Original*
G04 #@! TF.FileFunction,Legend,Bot*
G04 #@! TF.FilePolarity,Positive*
%FSLAX46Y46*%
G04 Gerber Fmt 4.6, Leading zero omitted, Abs format (unit mm)*
G04 Created by KiCad (PCBNEW (5.1.9)-1) date 2021-07-08 21:32:50*
%MOMM*%
%LPD*%
G01*
G04 APERTURE LIST*
%ADD10C,0.120000*%
%ADD11C,0.300000*%
%ADD12C,0.920000*%
%ADD13C,2.720000*%
%ADD14O,1.920000X1.920000*%
G04 APERTURE END LIST*
D10*
X147604571Y-108057904D02*
X147985523Y-108057904D01*
X147985523Y-107257904D01*
X147337904Y-108057904D02*
X147337904Y-107524571D01*
X147337904Y-107257904D02*
X147376000Y-107296000D01*
X147337904Y-107334095D01*
X147299809Y-107296000D01*
X147337904Y-107257904D01*
X147337904Y-107334095D01*
X146614095Y-108019809D02*
X146690285Y-108057904D01*
X146842666Y-108057904D01*
X146918857Y-108019809D01*
X146956952Y-107981714D01*
X146995047Y-107905523D01*
X146995047Y-107676952D01*
X146956952Y-107600761D01*
X146918857Y-107562666D01*
X146842666Y-107524571D01*
X146690285Y-107524571D01*
X146614095Y-107562666D01*
X145966476Y-108019809D02*
X146042666Y-108057904D01*
X146195047Y-108057904D01*
X146271238Y-108019809D01*
X146309333Y-107943619D01*
X146309333Y-107638857D01*
X146271238Y-107562666D01*
X146195047Y-107524571D01*
X146042666Y-107524571D01*
X145966476Y-107562666D01*
X145928380Y-107638857D01*
X145928380Y-107715047D01*
X146309333Y-107791238D01*
X145585523Y-107524571D02*
X145585523Y-108057904D01*
X145585523Y-107600761D02*
X145547428Y-107562666D01*
X145471238Y-107524571D01*
X145356952Y-107524571D01*
X145280761Y-107562666D01*
X145242666Y-107638857D01*
X145242666Y-108057904D01*
X144899809Y-108019809D02*
X144823619Y-108057904D01*
X144671238Y-108057904D01*
X144595047Y-108019809D01*
X144556952Y-107943619D01*
X144556952Y-107905523D01*
X144595047Y-107829333D01*
X144671238Y-107791238D01*
X144785523Y-107791238D01*
X144861714Y-107753142D01*
X144899809Y-107676952D01*
X144899809Y-107638857D01*
X144861714Y-107562666D01*
X144785523Y-107524571D01*
X144671238Y-107524571D01*
X144595047Y-107562666D01*
X143909333Y-108019809D02*
X143985523Y-108057904D01*
X144137904Y-108057904D01*
X144214095Y-108019809D01*
X144252190Y-107943619D01*
X144252190Y-107638857D01*
X144214095Y-107562666D01*
X144137904Y-107524571D01*
X143985523Y-107524571D01*
X143909333Y-107562666D01*
X143871238Y-107638857D01*
X143871238Y-107715047D01*
X144252190Y-107791238D01*
X143185523Y-108057904D02*
X143185523Y-107257904D01*
X143185523Y-108019809D02*
X143261714Y-108057904D01*
X143414095Y-108057904D01*
X143490285Y-108019809D01*
X143528380Y-107981714D01*
X143566476Y-107905523D01*
X143566476Y-107676952D01*
X143528380Y-107600761D01*
X143490285Y-107562666D01*
X143414095Y-107524571D01*
X143261714Y-107524571D01*
X143185523Y-107562666D01*
X141852190Y-107524571D02*
X141852190Y-108057904D01*
X142195047Y-107524571D02*
X142195047Y-107943619D01*
X142156952Y-108019809D01*
X142080761Y-108057904D01*
X141966476Y-108057904D01*
X141890285Y-108019809D01*
X141852190Y-107981714D01*
X141471238Y-107524571D02*
X141471238Y-108057904D01*
X141471238Y-107600761D02*
X141433142Y-107562666D01*
X141356952Y-107524571D01*
X141242666Y-107524571D01*
X141166476Y-107562666D01*
X141128380Y-107638857D01*
X141128380Y-108057904D01*
X140404571Y-108057904D02*
X140404571Y-107257904D01*
X140404571Y-108019809D02*
X140480761Y-108057904D01*
X140633142Y-108057904D01*
X140709333Y-108019809D01*
X140747428Y-107981714D01*
X140785523Y-107905523D01*
X140785523Y-107676952D01*
X140747428Y-107600761D01*
X140709333Y-107562666D01*
X140633142Y-107524571D01*
X140480761Y-107524571D01*
X140404571Y-107562666D01*
X139718857Y-108019809D02*
X139795047Y-108057904D01*
X139947428Y-108057904D01*
X140023619Y-108019809D01*
X140061714Y-107943619D01*
X140061714Y-107638857D01*
X140023619Y-107562666D01*
X139947428Y-107524571D01*
X139795047Y-107524571D01*
X139718857Y-107562666D01*
X139680761Y-107638857D01*
X139680761Y-107715047D01*
X140061714Y-107791238D01*
X139337904Y-108057904D02*
X139337904Y-107524571D01*
X139337904Y-107676952D02*
X139299809Y-107600761D01*
X139261714Y-107562666D01*
X139185523Y-107524571D01*
X139109333Y-107524571D01*
X137776000Y-107981714D02*
X137814095Y-108019809D01*
X137928380Y-108057904D01*
X138004571Y-108057904D01*
X138118857Y-108019809D01*
X138195047Y-107943619D01*
X138233142Y-107867428D01*
X138271238Y-107715047D01*
X138271238Y-107600761D01*
X138233142Y-107448380D01*
X138195047Y-107372190D01*
X138118857Y-107296000D01*
X138004571Y-107257904D01*
X137928380Y-107257904D01*
X137814095Y-107296000D01*
X137776000Y-107334095D01*
X137433142Y-107638857D02*
X137166476Y-107638857D01*
X137052190Y-108057904D02*
X137433142Y-108057904D01*
X137433142Y-107257904D01*
X137052190Y-107257904D01*
X136252190Y-108057904D02*
X136518857Y-107676952D01*
X136709333Y-108057904D02*
X136709333Y-107257904D01*
X136404571Y-107257904D01*
X136328380Y-107296000D01*
X136290285Y-107334095D01*
X136252190Y-107410285D01*
X136252190Y-107524571D01*
X136290285Y-107600761D01*
X136328380Y-107638857D01*
X136404571Y-107676952D01*
X136709333Y-107676952D01*
X135909333Y-108057904D02*
X135909333Y-107257904D01*
X135452190Y-108057904D01*
X135452190Y-107257904D01*
X135071238Y-107753142D02*
X134461714Y-107753142D01*
X133928380Y-107257904D02*
X133776000Y-107257904D01*
X133699809Y-107296000D01*
X133623619Y-107372190D01*
X133585523Y-107524571D01*
X133585523Y-107791238D01*
X133623619Y-107943619D01*
X133699809Y-108019809D01*
X133776000Y-108057904D01*
X133928380Y-108057904D01*
X134004571Y-108019809D01*
X134080761Y-107943619D01*
X134118857Y-107791238D01*
X134118857Y-107524571D01*
X134080761Y-107372190D01*
X134004571Y-107296000D01*
X133928380Y-107257904D01*
X133242666Y-108057904D02*
X133242666Y-107257904D01*
X133242666Y-107638857D02*
X132785523Y-107638857D01*
X132785523Y-108057904D02*
X132785523Y-107257904D01*
X132023619Y-108057904D02*
X132404571Y-108057904D01*
X132404571Y-107257904D01*
X131756952Y-107753142D02*
X131147428Y-107753142D01*
X130766476Y-108057904D02*
X130766476Y-107257904D01*
X130461714Y-107257904D01*
X130385523Y-107296000D01*
X130347428Y-107334095D01*
X130309333Y-107410285D01*
X130309333Y-107524571D01*
X130347428Y-107600761D01*
X130385523Y-107638857D01*
X130461714Y-107676952D01*
X130766476Y-107676952D01*
X129433142Y-107524571D02*
X129242666Y-108057904D01*
X129052190Y-107524571D01*
X128785523Y-107334095D02*
X128747428Y-107296000D01*
X128671238Y-107257904D01*
X128480761Y-107257904D01*
X128404571Y-107296000D01*
X128366476Y-107334095D01*
X128328380Y-107410285D01*
X128328380Y-107486476D01*
X128366476Y-107600761D01*
X128823619Y-108057904D01*
X128328380Y-108057904D01*
D11*
X133302142Y-102697571D02*
X132373571Y-102697571D01*
X132873571Y-103269000D01*
X132659285Y-103269000D01*
X132516428Y-103340428D01*
X132445000Y-103411857D01*
X132373571Y-103554714D01*
X132373571Y-103911857D01*
X132445000Y-104054714D01*
X132516428Y-104126142D01*
X132659285Y-104197571D01*
X133087857Y-104197571D01*
X133230714Y-104126142D01*
X133302142Y-104054714D01*
X131945000Y-102697571D02*
X131445000Y-104197571D01*
X130945000Y-102697571D01*
X130587857Y-102697571D02*
X129659285Y-102697571D01*
X130159285Y-103269000D01*
X129945000Y-103269000D01*
X129802142Y-103340428D01*
X129730714Y-103411857D01*
X129659285Y-103554714D01*
X129659285Y-103911857D01*
X129730714Y-104054714D01*
X129802142Y-104126142D01*
X129945000Y-104197571D01*
X130373571Y-104197571D01*
X130516428Y-104126142D01*
X130587857Y-104054714D01*
X131032000Y-101554714D02*
X131103428Y-101626142D01*
X131317714Y-101697571D01*
X131460571Y-101697571D01*
X131674857Y-101626142D01*
X131817714Y-101483285D01*
X131889142Y-101340428D01*
X131960571Y-101054714D01*
X131960571Y-100840428D01*
X131889142Y-100554714D01*
X131817714Y-100411857D01*
X131674857Y-100269000D01*
X131460571Y-100197571D01*
X131317714Y-100197571D01*
X131103428Y-100269000D01*
X131032000Y-100340428D01*
X130460571Y-101626142D02*
X130246285Y-101697571D01*
X129889142Y-101697571D01*
X129746285Y-101626142D01*
X129674857Y-101554714D01*
X129603428Y-101411857D01*
X129603428Y-101269000D01*
X129674857Y-101126142D01*
X129746285Y-101054714D01*
X129889142Y-100983285D01*
X130174857Y-100911857D01*
X130317714Y-100840428D01*
X130389142Y-100769000D01*
X130460571Y-100626142D01*
X130460571Y-100483285D01*
X130389142Y-100340428D01*
X130317714Y-100269000D01*
X130174857Y-100197571D01*
X129817714Y-100197571D01*
X129603428Y-100269000D01*
X134437142Y-99103571D02*
X134437142Y-97603571D01*
X133937142Y-98675000D01*
X133437142Y-97603571D01*
X133437142Y-99103571D01*
X132437142Y-97603571D02*
X132151428Y-97603571D01*
X132008571Y-97675000D01*
X131865714Y-97817857D01*
X131794285Y-98103571D01*
X131794285Y-98603571D01*
X131865714Y-98889285D01*
X132008571Y-99032142D01*
X132151428Y-99103571D01*
X132437142Y-99103571D01*
X132580000Y-99032142D01*
X132722857Y-98889285D01*
X132794285Y-98603571D01*
X132794285Y-98103571D01*
X132722857Y-97817857D01*
X132580000Y-97675000D01*
X132437142Y-97603571D01*
X131222857Y-99032142D02*
X131008571Y-99103571D01*
X130651428Y-99103571D01*
X130508571Y-99032142D01*
X130437142Y-98960714D01*
X130365714Y-98817857D01*
X130365714Y-98675000D01*
X130437142Y-98532142D01*
X130508571Y-98460714D01*
X130651428Y-98389285D01*
X130937142Y-98317857D01*
X131080000Y-98246428D01*
X131151428Y-98175000D01*
X131222857Y-98032142D01*
X131222857Y-97889285D01*
X131151428Y-97746428D01*
X131080000Y-97675000D01*
X130937142Y-97603571D01*
X130580000Y-97603571D01*
X130365714Y-97675000D01*
X129722857Y-99103571D02*
X129722857Y-97603571D01*
X134437142Y-96690571D02*
X134437142Y-95190571D01*
X133937142Y-96262000D01*
X133437142Y-95190571D01*
X133437142Y-96690571D01*
X132722857Y-96690571D02*
X132722857Y-95190571D01*
X132080000Y-96619142D02*
X131865714Y-96690571D01*
X131508571Y-96690571D01*
X131365714Y-96619142D01*
X131294285Y-96547714D01*
X131222857Y-96404857D01*
X131222857Y-96262000D01*
X131294285Y-96119142D01*
X131365714Y-96047714D01*
X131508571Y-95976285D01*
X131794285Y-95904857D01*
X131937142Y-95833428D01*
X132008571Y-95762000D01*
X132080000Y-95619142D01*
X132080000Y-95476285D01*
X132008571Y-95333428D01*
X131937142Y-95262000D01*
X131794285Y-95190571D01*
X131437142Y-95190571D01*
X131222857Y-95262000D01*
X130294285Y-95190571D02*
X130008571Y-95190571D01*
X129865714Y-95262000D01*
X129722857Y-95404857D01*
X129651428Y-95690571D01*
X129651428Y-96190571D01*
X129722857Y-96476285D01*
X129865714Y-96619142D01*
X130008571Y-96690571D01*
X130294285Y-96690571D01*
X130437142Y-96619142D01*
X130580000Y-96476285D01*
X130651428Y-96190571D01*
X130651428Y-95690571D01*
X130580000Y-95404857D01*
X130437142Y-95262000D01*
X130294285Y-95190571D01*
X133500571Y-94126142D02*
X133286285Y-94197571D01*
X132929142Y-94197571D01*
X132786285Y-94126142D01*
X132714857Y-94054714D01*
X132643428Y-93911857D01*
X132643428Y-93769000D01*
X132714857Y-93626142D01*
X132786285Y-93554714D01*
X132929142Y-93483285D01*
X133214857Y-93411857D01*
X133357714Y-93340428D01*
X133429142Y-93269000D01*
X133500571Y-93126142D01*
X133500571Y-92983285D01*
X133429142Y-92840428D01*
X133357714Y-92769000D01*
X133214857Y-92697571D01*
X132857714Y-92697571D01*
X132643428Y-92769000D01*
X131143428Y-94054714D02*
X131214857Y-94126142D01*
X131429142Y-94197571D01*
X131572000Y-94197571D01*
X131786285Y-94126142D01*
X131929142Y-93983285D01*
X132000571Y-93840428D01*
X132072000Y-93554714D01*
X132072000Y-93340428D01*
X132000571Y-93054714D01*
X131929142Y-92911857D01*
X131786285Y-92769000D01*
X131572000Y-92697571D01*
X131429142Y-92697571D01*
X131214857Y-92769000D01*
X131143428Y-92840428D01*
X130500571Y-94197571D02*
X130500571Y-92697571D01*
X129643428Y-94197571D02*
X130286285Y-93340428D01*
X129643428Y-92697571D02*
X130500571Y-93554714D01*
X131889142Y-91597571D02*
X131889142Y-90097571D01*
X131532000Y-90097571D01*
X131317714Y-90169000D01*
X131174857Y-90311857D01*
X131103428Y-90454714D01*
X131032000Y-90740428D01*
X131032000Y-90954714D01*
X131103428Y-91240428D01*
X131174857Y-91383285D01*
X131317714Y-91526142D01*
X131532000Y-91597571D01*
X131889142Y-91597571D01*
X130103428Y-90097571D02*
X129960571Y-90097571D01*
X129817714Y-90169000D01*
X129746285Y-90240428D01*
X129674857Y-90383285D01*
X129603428Y-90669000D01*
X129603428Y-91026142D01*
X129674857Y-91311857D01*
X129746285Y-91454714D01*
X129817714Y-91526142D01*
X129960571Y-91597571D01*
X130103428Y-91597571D01*
X130246285Y-91526142D01*
X130317714Y-91454714D01*
X130389142Y-91311857D01*
X130460571Y-91026142D01*
X130460571Y-90669000D01*
X130389142Y-90383285D01*
X130317714Y-90240428D01*
X130246285Y-90169000D01*
X130103428Y-90097571D01*
X131853428Y-88569000D02*
X131139142Y-88569000D01*
X131996285Y-88997571D02*
X131496285Y-87497571D01*
X130996285Y-88997571D01*
X130210571Y-87497571D02*
X130067714Y-87497571D01*
X129924857Y-87569000D01*
X129853428Y-87640428D01*
X129782000Y-87783285D01*
X129710571Y-88069000D01*
X129710571Y-88426142D01*
X129782000Y-88711857D01*
X129853428Y-88854714D01*
X129924857Y-88926142D01*
X130067714Y-88997571D01*
X130210571Y-88997571D01*
X130353428Y-88926142D01*
X130424857Y-88854714D01*
X130496285Y-88711857D01*
X130567714Y-88426142D01*
X130567714Y-88069000D01*
X130496285Y-87783285D01*
X130424857Y-87640428D01*
X130353428Y-87569000D01*
X130210571Y-87497571D01*
X132139428Y-86397571D02*
X132639428Y-85683285D01*
X132996571Y-86397571D02*
X132996571Y-84897571D01*
X132425142Y-84897571D01*
X132282285Y-84969000D01*
X132210857Y-85040428D01*
X132139428Y-85183285D01*
X132139428Y-85397571D01*
X132210857Y-85540428D01*
X132282285Y-85611857D01*
X132425142Y-85683285D01*
X132996571Y-85683285D01*
X131568000Y-86326142D02*
X131353714Y-86397571D01*
X130996571Y-86397571D01*
X130853714Y-86326142D01*
X130782285Y-86254714D01*
X130710857Y-86111857D01*
X130710857Y-85969000D01*
X130782285Y-85826142D01*
X130853714Y-85754714D01*
X130996571Y-85683285D01*
X131282285Y-85611857D01*
X131425142Y-85540428D01*
X131496571Y-85469000D01*
X131568000Y-85326142D01*
X131568000Y-85183285D01*
X131496571Y-85040428D01*
X131425142Y-84969000D01*
X131282285Y-84897571D01*
X130925142Y-84897571D01*
X130710857Y-84969000D01*
X130282285Y-84897571D02*
X129425142Y-84897571D01*
X129853714Y-86397571D02*
X129853714Y-84897571D01*
X147732714Y-102797571D02*
X148447000Y-102797571D01*
X148518428Y-103511857D01*
X148447000Y-103440428D01*
X148304142Y-103369000D01*
X147947000Y-103369000D01*
X147804142Y-103440428D01*
X147732714Y-103511857D01*
X147661285Y-103654714D01*
X147661285Y-104011857D01*
X147732714Y-104154714D01*
X147804142Y-104226142D01*
X147947000Y-104297571D01*
X148304142Y-104297571D01*
X148447000Y-104226142D01*
X148518428Y-104154714D01*
X147232714Y-102797571D02*
X146732714Y-104297571D01*
X146232714Y-102797571D01*
X147700857Y-100342000D02*
X147843714Y-100270571D01*
X148058000Y-100270571D01*
X148272285Y-100342000D01*
X148415142Y-100484857D01*
X148486571Y-100627714D01*
X148558000Y-100913428D01*
X148558000Y-101127714D01*
X148486571Y-101413428D01*
X148415142Y-101556285D01*
X148272285Y-101699142D01*
X148058000Y-101770571D01*
X147915142Y-101770571D01*
X147700857Y-101699142D01*
X147629428Y-101627714D01*
X147629428Y-101127714D01*
X147915142Y-101127714D01*
X146986571Y-101770571D02*
X146986571Y-100270571D01*
X146129428Y-101770571D01*
X146129428Y-100270571D01*
X145415142Y-101770571D02*
X145415142Y-100270571D01*
X145058000Y-100270571D01*
X144843714Y-100342000D01*
X144700857Y-100484857D01*
X144629428Y-100627714D01*
X144558000Y-100913428D01*
X144558000Y-101127714D01*
X144629428Y-101413428D01*
X144700857Y-101556285D01*
X144843714Y-101699142D01*
X145058000Y-101770571D01*
X145415142Y-101770571D01*
X148479142Y-99297571D02*
X148479142Y-97797571D01*
X148122000Y-97797571D01*
X147907714Y-97869000D01*
X147764857Y-98011857D01*
X147693428Y-98154714D01*
X147622000Y-98440428D01*
X147622000Y-98654714D01*
X147693428Y-98940428D01*
X147764857Y-99083285D01*
X147907714Y-99226142D01*
X148122000Y-99297571D01*
X148479142Y-99297571D01*
X146336285Y-98297571D02*
X146336285Y-99297571D01*
X146693428Y-97726142D02*
X147050571Y-98797571D01*
X146122000Y-98797571D01*
X148479142Y-96697571D02*
X148479142Y-95197571D01*
X148122000Y-95197571D01*
X147907714Y-95269000D01*
X147764857Y-95411857D01*
X147693428Y-95554714D01*
X147622000Y-95840428D01*
X147622000Y-96054714D01*
X147693428Y-96340428D01*
X147764857Y-96483285D01*
X147907714Y-96626142D01*
X148122000Y-96697571D01*
X148479142Y-96697571D01*
X147122000Y-95197571D02*
X146193428Y-95197571D01*
X146693428Y-95769000D01*
X146479142Y-95769000D01*
X146336285Y-95840428D01*
X146264857Y-95911857D01*
X146193428Y-96054714D01*
X146193428Y-96411857D01*
X146264857Y-96554714D01*
X146336285Y-96626142D01*
X146479142Y-96697571D01*
X146907714Y-96697571D01*
X147050571Y-96626142D01*
X147122000Y-96554714D01*
X148506428Y-94026142D02*
X148292142Y-94097571D01*
X147935000Y-94097571D01*
X147792142Y-94026142D01*
X147720714Y-93954714D01*
X147649285Y-93811857D01*
X147649285Y-93669000D01*
X147720714Y-93526142D01*
X147792142Y-93454714D01*
X147935000Y-93383285D01*
X148220714Y-93311857D01*
X148363571Y-93240428D01*
X148435000Y-93169000D01*
X148506428Y-93026142D01*
X148506428Y-92883285D01*
X148435000Y-92740428D01*
X148363571Y-92669000D01*
X148220714Y-92597571D01*
X147863571Y-92597571D01*
X147649285Y-92669000D01*
X147006428Y-94097571D02*
X147006428Y-92597571D01*
X146649285Y-92597571D01*
X146435000Y-92669000D01*
X146292142Y-92811857D01*
X146220714Y-92954714D01*
X146149285Y-93240428D01*
X146149285Y-93454714D01*
X146220714Y-93740428D01*
X146292142Y-93883285D01*
X146435000Y-94026142D01*
X146649285Y-94097571D01*
X147006428Y-94097571D01*
X145577857Y-93669000D02*
X144863571Y-93669000D01*
X145720714Y-94097571D02*
X145220714Y-92597571D01*
X144720714Y-94097571D01*
X148470714Y-91539142D02*
X148256428Y-91610571D01*
X147899285Y-91610571D01*
X147756428Y-91539142D01*
X147685000Y-91467714D01*
X147613571Y-91324857D01*
X147613571Y-91182000D01*
X147685000Y-91039142D01*
X147756428Y-90967714D01*
X147899285Y-90896285D01*
X148185000Y-90824857D01*
X148327857Y-90753428D01*
X148399285Y-90682000D01*
X148470714Y-90539142D01*
X148470714Y-90396285D01*
X148399285Y-90253428D01*
X148327857Y-90182000D01*
X148185000Y-90110571D01*
X147827857Y-90110571D01*
X147613571Y-90182000D01*
X146113571Y-91467714D02*
X146185000Y-91539142D01*
X146399285Y-91610571D01*
X146542142Y-91610571D01*
X146756428Y-91539142D01*
X146899285Y-91396285D01*
X146970714Y-91253428D01*
X147042142Y-90967714D01*
X147042142Y-90753428D01*
X146970714Y-90467714D01*
X146899285Y-90324857D01*
X146756428Y-90182000D01*
X146542142Y-90110571D01*
X146399285Y-90110571D01*
X146185000Y-90182000D01*
X146113571Y-90253428D01*
X144756428Y-91610571D02*
X145470714Y-91610571D01*
X145470714Y-90110571D01*
X147622000Y-89097571D02*
X148122000Y-88383285D01*
X148479142Y-89097571D02*
X148479142Y-87597571D01*
X147907714Y-87597571D01*
X147764857Y-87669000D01*
X147693428Y-87740428D01*
X147622000Y-87883285D01*
X147622000Y-88097571D01*
X147693428Y-88240428D01*
X147764857Y-88311857D01*
X147907714Y-88383285D01*
X148479142Y-88383285D01*
X147122000Y-87597571D02*
X146122000Y-89097571D01*
X146122000Y-87597571D02*
X147122000Y-89097571D01*
X148314857Y-84997571D02*
X147457714Y-84997571D01*
X147886285Y-86497571D02*
X147886285Y-84997571D01*
X147100571Y-84997571D02*
X146100571Y-86497571D01*
X146100571Y-84997571D02*
X147100571Y-86497571D01*
%LPC*%
D12*
X150992000Y-109728000D03*
X152792000Y-109728000D03*
G36*
G01*
X140372000Y-114076000D02*
X140372000Y-111476000D01*
G75*
G02*
X140432000Y-111416000I60000J0D01*
G01*
X143032000Y-111416000D01*
G75*
G02*
X143092000Y-111476000I0J-60000D01*
G01*
X143092000Y-114076000D01*
G75*
G02*
X143032000Y-114136000I-60000J0D01*
G01*
X140432000Y-114136000D01*
G75*
G02*
X140372000Y-114076000I0J60000D01*
G01*
G37*
D13*
X146732000Y-112776000D03*
X134540000Y-112776000D03*
G36*
G01*
X128180000Y-114076000D02*
X128180000Y-111476000D01*
G75*
G02*
X128240000Y-111416000I60000J0D01*
G01*
X130840000Y-111416000D01*
G75*
G02*
X130900000Y-111476000I0J-60000D01*
G01*
X130900000Y-114076000D01*
G75*
G02*
X130840000Y-114136000I-60000J0D01*
G01*
X128240000Y-114136000D01*
G75*
G02*
X128180000Y-114076000I0J60000D01*
G01*
G37*
G36*
G01*
X128450000Y-102669000D02*
X128450000Y-104469000D01*
G75*
G02*
X128390000Y-104529000I-60000J0D01*
G01*
X126590000Y-104529000D01*
G75*
G02*
X126530000Y-104469000I0J60000D01*
G01*
X126530000Y-102669000D01*
G75*
G02*
X126590000Y-102609000I60000J0D01*
G01*
X128390000Y-102609000D01*
G75*
G02*
X128450000Y-102669000I0J-60000D01*
G01*
G37*
D14*
X127490000Y-101029000D03*
X127490000Y-98489000D03*
X127490000Y-95949000D03*
X127490000Y-93409000D03*
X127490000Y-90869000D03*
X127490000Y-88329000D03*
X127490000Y-85789000D03*
G36*
G01*
X151310000Y-102669000D02*
X151310000Y-104469000D01*
G75*
G02*
X151250000Y-104529000I-60000J0D01*
G01*
X149450000Y-104529000D01*
G75*
G02*
X149390000Y-104469000I0J60000D01*
G01*
X149390000Y-102669000D01*
G75*
G02*
X149450000Y-102609000I60000J0D01*
G01*
X151250000Y-102609000D01*
G75*
G02*
X151310000Y-102669000I0J-60000D01*
G01*
G37*
X150350000Y-101029000D03*
X150350000Y-98489000D03*
X150350000Y-95949000D03*
X150350000Y-93409000D03*
X150350000Y-90869000D03*
X150350000Y-88329000D03*
X150350000Y-85789000D03*
M02*
