M48
; DRILL file {KiCad (5.1.9)-1} date 04/28/21 15:15:43
; FORMAT={-:-/ absolute / inch / decimal}
; #@! TF.CreationDate,2021-04-28T15:15:43+02:00
; #@! TF.GenerationSoftware,Kicad,Pcbnew,(5.1.9)-1
; #@! TF.FileFunction,Plated,1,2,PTH
FMAT,2
INCH
T1C0.0157
T2C0.0400
T3C0.0512
%
G90
G05
T1
X4.945Y-4.29
X4.965Y-4.4
X5.175Y-3.555
X5.19Y-3.84
X5.23Y-3.475
X5.285Y-3.345
X5.38Y-3.77
X5.39Y-4.005
X5.4425Y-3.8175
X5.48Y-3.5905
X5.655Y-3.55
X5.705Y-3.475
X5.81Y-3.46
X5.845Y-4.305
T2
X5.0193Y-3.3775
X5.0193Y-3.4775
X5.0193Y-3.5775
X5.0193Y-3.6775
X5.0193Y-3.7775
X5.0193Y-3.8775
X5.0193Y-3.9775
X5.0193Y-4.0775
X5.9193Y-3.3775
X5.9193Y-3.4775
X5.9193Y-3.5775
X5.9193Y-3.6775
X5.9193Y-3.7775
X5.9193Y-3.8775
X5.9193Y-3.9775
X5.9193Y-4.0775
T3
X5.1Y-4.44
X5.2969Y-4.44
X5.58Y-4.44
X5.7769Y-4.44
T0
M30
